CommissionerLoud-MediumItalic.ufo
<glyph name="numbersign" format="2">
  <advance width="688.6526315789474"/>
  <unicode hex="0023"/>
  <outline>
    <contour>
      <point x="-6.673684210526315" y="140.67368421052632" type="line"/>
      <point x="58.71578947368421" y="142.49473684210525"/>
      <point x="129.41052631578947" y="144.31578947368422"/>
      <point x="173.85263157894735" y="145.13684210526316" type="curve"/>
      <point x="417.2842105263158" y="145.13684210526316" type="line"/>
      <point x="460.90526315789475" y="144.31578947368422"/>
      <point x="531.5999999999999" y="142.49473684210525"/>
      <point x="596.1684210526315" y="140.67368421052632" type="curve"/>
      <point x="614.8947368421053" y="231.78947368421052" type="line"/>
      <point x="549.9157894736843" y="229.96842105263158"/>
      <point x="478.81052631578945" y="228.14736842105262"/>
      <point x="434.77894736842103" y="227.32631578947368" type="curve"/>
      <point x="191.34736842105264" y="227.32631578947368" type="line"/>
      <point x="147.31578947368422" y="228.14736842105262"/>
      <point x="77.03157894736842" y="229.96842105263158"/>
      <point x="12.052631578947368" y="231.78947368421052" type="curve"/>
    </contour>
    <contour>
      <point x="52.42105263157895" y="0.0" type="curve"/>
      <point x="156.33684210526317" y="0.0" type="line"/>
      <point x="181.46315789473687" y="67.82105263157894"/>
      <point x="203.41052631578947" y="128.69473684210527"/>
      <point x="234.71578947368423" y="213.10526315789474" type="curve"/>
      <point x="327.61052631578946" y="443.5684210526316" type="line"/>
      <point x="366.021052631579" y="533.0315789473684"/>
      <point x="389.7894736842105" y="588.5684210526317"/>
      <point x="421.20000000000005" y="661.2105263157895" type="curve"/>
      <point x="319.33684210526314" y="661.2105263157895" type="line"/>
      <point x="292.9789473684211" y="589.1052631578948"/>
      <point x="271.6736842105263" y="531.978947368421"/>
      <point x="239.18947368421053" y="443.56842105263155" type="curve"/>
      <point x="146.29473684210527" y="213.10526315789474" type="line"/>
      <point x="109.06315789473685" y="128.46315789473687"/>
      <point x="81.42105263157896" y="66.17894736842103"/>
    </contour>
    <contour>
      <point x="107.57894736842105" y="426.4210526315789" type="line"/>
      <point x="172.96842105263158" y="428.2421052631579"/>
      <point x="244.07368421052632" y="430.06315789473683"/>
      <point x="288.10526315789474" y="430.88421052631577" type="curve"/>
      <point x="531.5368421052631" y="430.88421052631577" type="line"/>
      <point x="575.5684210526316" y="430.06315789473683"/>
      <point x="645.8526315789474" y="428.2421052631579"/>
      <point x="710.421052631579" y="426.4210526315789" type="curve"/>
      <point x="729.5578947368421" y="517.5368421052631" type="line"/>
      <point x="664.1684210526316" y="515.7157894736843"/>
      <point x="593.4736842105264" y="513.8947368421052"/>
      <point x="549.0315789473683" y="513.0736842105263" type="curve"/>
      <point x="305.6" y="513.0736842105263" type="line"/>
      <point x="261.978947368421" y="513.8947368421052"/>
      <point x="191.28421052631577" y="515.7157894736843"/>
      <point x="126.71578947368421" y="517.5368421052631" type="curve"/>
    </contour>
    <contour>
      <point x="294.7368421052632" y="0.0" type="curve"/>
      <point x="398.65263157894736" y="0.0" type="line"/>
      <point x="423.77894736842103" y="67.82105263157894"/>
      <point x="445.72631578947363" y="128.69473684210527"/>
      <point x="477.0315789473684" y="213.10526315789474" type="curve"/>
      <point x="569.9263157894737" y="443.5684210526316" type="line"/>
      <point x="608.336842105263" y="533.0315789473684"/>
      <point x="632.1052631578947" y="588.5684210526317"/>
      <point x="663.5157894736842" y="661.2105263157895" type="curve"/>
      <point x="561.6526315789474" y="661.2105263157895" type="line"/>
      <point x="535.2947368421052" y="589.1052631578948"/>
      <point x="513.9894736842106" y="531.978947368421"/>
      <point x="481.5052631578947" y="443.56842105263155" type="curve"/>
      <point x="388.61052631578946" y="213.10526315789474" type="line"/>
      <point x="351.37894736842105" y="128.46315789473687"/>
      <point x="323.7368421052632" y="66.17894736842103"/>
    </contour>
  </outline>
</glyph>
<glyph name="dollar" format="2">
  <advance width="566.7789473684211"/>
  <unicode hex="0024"/>
  <outline>
    <contour>
      <point x="258.4631578947368" y="-11.463157894736842" type="curve" smooth="yes"/>
      <point x="414.93684210526317" y="-11.463157894736842"/>
      <point x="490.04210526315796" y="46.84210526315789"/>
      <point x="514.3263157894737" y="164.26315789473685" type="curve" smooth="yes"/>
      <point x="535.2" y="264.2210526315789"/>
      <point x="496.37894736842105" y="326.6315789473684"/>
      <point x="349.0736842105263" y="385.8842105263158" type="curve" smooth="yes"/>
      <point x="234.31578947368422" y="432.6210526315789"/>
      <point x="196.06315789473686" y="463.2315789473684"/>
      <point x="208.7263157894737" y="521.3684210526316" type="curve" smooth="yes"/>
      <point x="222.1578947368421" y="586.1684210526315"/>
      <point x="288.11578947368423" y="602.8315789473684"/>
      <point x="354.69473684210527" y="602.8315789473684" type="curve"/>
      <point x="374.6421052631579" y="602.8315789473684"/>
      <point x="461.5684210526316" y="574.0105263157895"/>
      <point x="542.3157894736843" y="541.1894736842105" type="curve"/>
      <point x="574.7894736842105" y="639.2842105263157" type="line"/>
      <point x="510.6526315789473" y="659.9263157894737"/>
      <point x="399.0315789473684" y="697.6421052631579"/>
      <point x="349.3578947368421" y="697.6421052631579" type="curve" smooth="yes"/>
      <point x="205.9894736842105" y="697.6421052631579"/>
      <point x="129.16842105263157" y="641.1789473684211"/>
      <point x="106.88421052631578" y="534.3473684210527" type="curve" smooth="yes"/>
      <point x="82.42105263157895" y="418.3894736842105"/>
      <point x="141.47368421052633" y="364.2842105263158"/>
      <point x="264.5684210526316" y="312.67368421052635" type="curve" smooth="yes"/>
      <point x="362.32631578947365" y="271.7052631578947"/>
      <point x="425.14736842105265" y="237.14736842105265"/>
      <point x="412.0736842105263" y="174.3684210526316" type="curve" smooth="yes"/>
      <point x="396.69473684210527" y="99.6"/>
      <point x="331.7894736842105" y="81.70526315789473"/>
      <point x="260.9263157894737" y="81.70526315789473" type="curve"/>
      <point x="225.24210526315787" y="81.70526315789473"/>
      <point x="138.33684210526314" y="113.34736842105264"/>
      <point x="46.821052631578944" y="152.5263157894737" type="curve"/>
      <point x="15.34736842105263" y="50.55789473684211" type="line"/>
      <point x="103.32631578947368" y="19.252631578947366"/>
      <point x="207.6421052631579" y="-11.463157894736842"/>
    </contour>
    <contour>
      <point x="159.42105263157896" y="-137.0" type="curve"/>
      <point x="255.0" y="-137.0" type="line"/>
      <point x="281.9473684210526" y="0.17894736842105097"/>
      <point x="311.30526315789473" y="153.58947368421053"/>
      <point x="318.89473684210526" y="192.0" type="curve"/>
      <point x="378.89473684210526" y="474.0" type="line"/>
      <point x="387.7157894736842" y="512.8210526315789"/>
      <point x="423.35789473684207" y="664.8210526315789"/>
      <point x="455.0" y="803.0" type="curve"/>
      <point x="359.42105263157896" y="803.0" type="line"/>
      <point x="332.47368421052636" y="664.8210526315789"/>
      <point x="303.11578947368423" y="512.4105263157895"/>
      <point x="295.5263157894737" y="474.0" type="curve"/>
      <point x="235.5263157894737" y="192.0" type="line"/>
      <point x="227.11578947368423" y="154.41052631578947"/>
      <point x="191.06315789473686" y="0.5894736842105264"/>
    </contour>
  </outline>
</glyph>
<glyph name="ampersand" format="2">
  <advance width="749.448275862069"/>
  <unicode hex="0026"/>
  <outline>
    <contour>
      <point x="544.3793103448276" y="0.0" type="curve"/>
      <point x="687.1034482758622" y="0.0" type="line"/>
      <point x="632.3448275862067" y="67.24137931034483"/>
      <point x="581.2758620689656" y="129.89655172413794"/>
      <point x="529.0" y="193.86206896551724" type="curve"/>
      <point x="354.9310344827586" y="419.68965517241384" type="line" smooth="yes"/>
      <point x="312.48275862068965" y="475.0344827586207"/>
      <point x="299.55172413793105" y="519.4827586206897"/>
      <point x="310.86206896551727" y="571.1379310344828" type="curve" smooth="yes"/>
      <point x="322.2758620689655" y="621.2068965517241"/>
      <point x="356.1379310344828" y="642.6896551724138"/>
      <point x="407.0344827586207" y="644.6896551724138" type="curve"/>
      <point x="458.58620689655174" y="641.7931034482759"/>
      <point x="494.51724137931035" y="609.6206896551724"/>
      <point x="484.0" y="555.3448275862069" type="curve" smooth="yes"/>
      <point x="475.48275862068965" y="513.8620689655173"/>
      <point x="408.1034482758621" y="471.7586206896552"/>
      <point x="340.5172413793103" y="428.62068965517244" type="curve"/>
      <point x="391.6896551724138" y="362.4827586206897" type="line"/>
      <point x="468.62068965517244" y="414.48275862068965"/>
      <point x="569.8275862068965" y="475.34482758620686"/>
      <point x="583.0344827586207" y="542.1724137931035" type="curve" smooth="yes"/>
      <point x="603.8275862068965" y="643.3448275862069"/>
      <point x="522.9999999999999" y="726.7931034482758"/>
      <point x="407.13793103448273" y="726.7931034482758" type="curve" smooth="yes"/>
      <point x="311.48275862068965" y="726.7931034482758"/>
      <point x="225.3448275862069" y="680.9655172413793"/>
      <point x="205.44827586206898" y="581.5172413793103" type="curve" smooth="yes"/>
      <point x="189.24137931034483" y="501.7931034482758"/>
      <point x="219.6551724137931" y="430.51724137931035"/>
      <point x="266.48275862068965" y="369.0" type="curve" smooth="yes"/>
      <point x="446.93103448275866" y="136.0" type="line"/>
      <point x="478.55172413793105" y="91.79310344827586"/>
      <point x="513.0689655172414" y="43.793103448275865"/>
    </contour>
    <contour>
      <point x="236.10344827586204" y="-10.793103448275861" type="curve" smooth="yes"/>
      <point x="301.0344827586207" y="-10.793103448275861"/>
      <point x="383.41379310344826" y="46.75862068965517"/>
      <point x="463.27586206896547" y="99.20689655172411" type="curve"/>
      <point x="477.06896551724134" y="99.20689655172411" type="line"/>
      <point x="471.58620689655174" y="119.06896551724138" type="line"/>
      <point x="424.2758620689655" y="181.89655172413794" type="line"/>
      <point x="361.93103448275866" y="134.99999999999997"/>
      <point x="276.3793103448276" y="81.17241379310346"/>
      <point x="250.44827586206895" y="81.17241379310346" type="curve"/>
      <point x="162.0344827586207" y="84.0689655172414"/>
      <point x="127.3448275862069" y="141.6551724137931"/>
      <point x="141.96551724137933" y="210.86206896551724" type="curve" smooth="yes"/>
      <point x="156.6896551724138" y="281.2758620689655"/>
      <point x="210.58620689655172" y="319.3103448275862"/>
      <point x="291.10344827586204" y="349.9310344827586" type="curve"/>
      <point x="251.51724137931032" y="418.17241379310343" type="line"/>
      <point x="152.20689655172416" y="385.2758620689655"/>
      <point x="60.86206896551724" y="328.8965517241379"/>
      <point x="36.6551724137931" y="212.27586206896552" type="curve" smooth="yes"/>
      <point x="13.758620689655169" y="102.10344827586206"/>
      <point x="84.93103448275862" y="-10.793103448275861"/>
    </contour>
    <contour>
      <point x="541.8620689655173" y="170.20689655172413" type="line"/>
      <point x="602.3448275862067" y="229.82758620689654"/>
      <point x="663.2068965517241" y="288.93103448275866"/>
      <point x="723.5862068965517" y="348.44827586206895" type="curve"/>
      <point x="628.9310344827586" y="415.9655172413793" type="line"/>
      <point x="581.6206896551724" y="355.7586206896552"/>
      <point x="536.3103448275863" y="298.55172413793105"/>
      <point x="486.0" y="234.34482758620692" type="curve"/>
    </contour>
  </outline>
</glyph>
<glyph name="quotesingle" format="2">
  <advance width="211.32631578947368"/>
  <unicode hex="0027"/>
  <outline>
    <contour>
      <point x="91.47368421052632" y="422.0736842105263" type="curve"/>
      <point x="173.07368421052632" y="423.0736842105263" type="line"/>
      <point x="200.8736842105263" y="531.2631578947369"/>
      <point x="232.03157894736842" y="638.2210526315789"/>
      <point x="263.3684210526316" y="744.4105263157895" type="curve"/>
      <point x="138.11578947368423" y="741.7684210526315" type="line"/>
      <point x="124.47368421052633" y="636.8105263157895"/>
      <point x="110.24210526315788" y="531.2631578947369"/>
    </contour>
  </outline>
</glyph>
<glyph name="parenleft" format="2">
  <advance width="395.61052631578946"/>
  <unicode hex="0028"/>
  <outline>
    <contour>
      <point x="202.37894736842105" y="-125.95789473684209" type="curve"/>
      <point x="295.0315789473684" y="-94.43157894736842" type="line"/>
      <point x="220.49473684210523" y="43.42105263157895"/>
      <point x="151.22105263157897" y="181.0"/>
      <point x="183.57894736842104" y="336.0736842105263" type="curve" smooth="yes"/>
      <point x="215.93684210526317" y="491.5578947368422"/>
      <point x="343.1578947368421" y="613.063157894737"/>
      <point x="468.80000000000007" y="736.4315789473684" type="curve"/>
      <point x="379.37894736842105" y="773.1368421052632" type="line"/>
      <point x="262.8947368421053" y="663.8315789473685"/>
      <point x="113.45263157894738" y="533.757894736842"/>
      <point x="74.98947368421052" y="348.9263157894737" type="curve" smooth="yes"/>
      <point x="36.526315789473685" y="164.68421052631578"/>
      <point x="133.66315789473686" y="0.5263157894736904"/>
    </contour>
  </outline>
</glyph>
<glyph name="asterisk" format="2">
  <advance width="480.57894736842104"/>
  <unicode hex="002A"/>
  <outline>
    <contour>
      <point x="436.41052631578947" y="330.93684210526317" type="curve"/>
      <point x="491.37894736842105" y="390.59999999999997" type="line"/>
      <point x="432.27368421052626" y="438.1368421052631"/>
      <point x="371.7578947368421" y="485.8526315789474"/>
      <point x="312.65263157894736" y="533.3894736842105" type="curve"/>
      <point x="261.06315789473683" y="590.4421052631579"/>
      <point x="208.70526315789473" y="647.1368421052632"/>
      <point x="157.52631578947367" y="703.0105263157895" type="curve"/>
      <point x="103.14736842105263" y="642.9368421052633" type="line"/>
      <point x="161.66315789473686" y="594.9894736842106"/>
      <point x="221.3578947368421" y="547.6842105263157"/>
      <point x="281.2842105263158" y="499.1473684210526" type="curve"/>
      <point x="333.05263157894734" y="443.2736842105263"/>
      <point x="385.2315789473684" y="386.4"/>
    </contour>
    <contour>
      <point x="94.31578947368422" y="403.6526315789474" type="line"/>
      <point x="164.13684210526316" y="433.93684210526317"/>
      <point x="234.13684210526316" y="464.22105263157897"/>
      <point x="304.5473684210526" y="495.09473684210525" type="curve"/>
      <point x="378.0105263157895" y="514.578947368421"/>
      <point x="451.88421052631577" y="533.8842105263158"/>
      <point x="525.3473684210526" y="553.3684210526317" type="curve"/>
      <point x="499.2105263157895" y="630.2947368421054" type="line"/>
      <point x="429.8" y="600.0105263157894"/>
      <point x="359.79999999999995" y="569.7263157894737"/>
      <point x="289.9789473684211" y="539.4421052631579" type="curve"/>
      <point x="215.92631578947368" y="518.9578947368423"/>
      <point x="141.6421052631579" y="500.0631578947368"/>
      <point x="68.17894736842103" y="480.57894736842104" type="curve"/>
    </contour>
    <contour>
      <point x="209.27368421052628" y="302.0" type="curve"/>
      <point x="289.021052631579" y="284.5578947368421" type="line"/>
      <point x="299.7368421052632" y="360.61052631578946"/>
      <point x="309.63157894736844" y="436.25263157894733"/>
      <point x="319.7578947368421" y="512.8947368421053" type="curve"/>
      <point x="341.4526315789474" y="585.7157894736843"/>
      <point x="362.5578947368421" y="658.5368421052631"/>
      <point x="384.2526315789474" y="731.9473684210527" type="curve"/>
      <point x="304.9157894736842" y="748.9789473684211" type="line"/>
      <point x="294.2" y="673.3368421052631"/>
      <point x="284.30526315789473" y="597.2842105263157"/>
      <point x="274.17894736842106" y="522.4105263157895" type="curve"/>
      <point x="252.4842105263158" y="448.41052631578947"/>
      <point x="230.96842105263158" y="375.41052631578947"/>
    </contour>
  </outline>
</glyph>
<glyph name="plus" format="2">
  <advance width="592.3157894736842"/>
  <unicode hex="002B"/>
  <outline>
    <contour>
      <point x="201.1578947368421" y="56.37894736842105" type="curve"/>
      <point x="309.64210526315793" y="56.37894736842105" type="line"/>
      <point x="322.05263157894734" y="122.53684210526315"/>
      <point x="335.05263157894734" y="192.05263157894737"/>
      <point x="343.2842105263158" y="236.0842105263158" type="curve"/>
      <point x="370.82105263157894" y="365.41052631578947" type="line"/>
      <point x="381.6947368421052" y="410.2631578947369"/>
      <point x="398.33684210526314" y="480.13684210526316"/>
      <point x="413.8" y="545.1157894736842" type="curve"/>
      <point x="305.3157894736842" y="545.1157894736842" type="line"/>
      <point x="293.49473684210534" y="481.5473684210526"/>
      <point x="279.4947368421053" y="408.44210526315794"/>
      <point x="271.2631578947369" y="365.41052631578947" type="curve"/>
      <point x="243.7263157894737" y="236.0842105263158" type="line"/>
      <point x="233.85263157894735" y="192.6421052631579"/>
      <point x="217.21052631578948" y="121.94736842105262"/>
    </contour>
    <contour>
      <point x="57.70526315789473" y="248.4421052631579" type="line"/>
      <point x="123.09473684210528" y="250.26315789473685"/>
      <point x="194.20000000000002" y="252.08421052631581"/>
      <point x="238.2315789473684" y="252.90526315789475" type="curve"/>
      <point x="355.7684210526316" y="252.90526315789475" type="line"/>
      <point x="399.80000000000007" y="252.08421052631581"/>
      <point x="470.0842105263158" y="250.26315789473685"/>
      <point x="534.6526315789474" y="248.4421052631579" type="curve"/>
      <point x="556.8421052631579" y="353.0526315789474" type="line"/>
      <point x="491.86315789473684" y="351.2315789473684"/>
      <point x="420.16842105263163" y="349.41052631578947"/>
      <point x="376.13684210526316" y="348.58947368421053" type="curve"/>
      <point x="258.59999999999997" y="348.58947368421053" type="line"/>
      <point x="214.5684210526316" y="349.41052631578947"/>
      <point x="144.87368421052633" y="351.2315789473684"/>
      <point x="79.89473684210526" y="353.0526315789474" type="curve"/>
    </contour>
  </outline>
</glyph>
<glyph name="comma" format="2">
  <advance width="239.0421052631579"/>
  <unicode hex="002C"/>
  <outline>
    <contour>
      <point x="-47.11578947368421" y="-157.0" type="curve"/>
      <point x="13.189473684210524" y="-155.58947368421053" type="line"/>
      <point x="56.010526315789456" y="-100.03157894736843"/>
      <point x="142.23157894736838" y="7.873684210526315"/>
      <point x="151.28421052631577" y="54.368421052631575" type="curve" smooth="yes"/>
      <point x="159.56842105263155" y="97.8421052631579"/>
      <point x="148.2842105263158" y="131.67368421052632"/>
      <point x="105.75789473684209" y="141.0105263157895" type="curve"/>
      <point x="43.400000000000006" y="136.7263157894737" type="line"/>
      <point x="39.4" y="100.0"/>
      <point x="35.578947368421055" y="63.27368421052631"/>
      <point x="31.168421052631587" y="29.010526315789473" type="curve"/>
      <point x="7.578947368421057" y="-30.452631578947365"/>
      <point x="-21.347368421052632" y="-98.41052631578948"/>
    </contour>
  </outline>
</glyph>
<glyph name="hyphen" format="2">
  <advance width="424.10526315789474"/>
  <unicode hex="002D"/>
  <outline>
    <contour>
      <point x="57.29473684210525" y="246.38947368421051" type="line"/>
      <point x="113.22105263157896" y="248.21052631578945"/>
      <point x="174.09473684210528" y="250.03157894736842"/>
      <point x="212.07368421052632" y="250.85263157894735" type="curve"/>
      <point x="250.0526315789474" y="250.03157894736842"/>
      <point x="310.10526315789474" y="248.21052631578945"/>
      <point x="366.0315789473684" y="246.38947368421051" type="curve"/>
      <point x="387.8105263157895" y="351.0" type="line"/>
      <point x="331.47368421052636" y="349.178947368421"/>
      <point x="270.421052631579" y="347.35789473684207"/>
      <point x="232.03157894736842" y="346.53684210526313" type="curve"/>
      <point x="194.46315789473684" y="347.35789473684207"/>
      <point x="134.58947368421053" y="349.178947368421"/>
      <point x="79.0736842105263" y="351.0" type="curve"/>
    </contour>
  </outline>
</glyph>
<glyph name="period" format="2">
  <advance width="247.25263157894736"/>
  <unicode hex="002E"/>
  <outline>
    <contour>
      <point x="78.70526315789473" y="-11.873684210526315" type="curve" smooth="yes"/>
      <point x="126.23157894736842" y="-11.873684210526315"/>
      <point x="151.49473684210525" y="9.8"/>
      <point x="161.36842105263156" y="57.98947368421052" type="curve" smooth="yes"/>
      <point x="169.2421052631579" y="101.35789473684213"/>
      <point x="144.26315789473685" y="137.65263157894736"/>
      <point x="90.63157894736842" y="137.65263157894736" type="curve" smooth="yes"/>
      <point x="39.58947368421053" y="137.65263157894736"/>
      <point x="17.842105263157897" y="116.97894736842106"/>
      <point x="10.378947368421054" y="78.66315789473686" type="curve" smooth="yes"/>
      <point x="0.09473684210526351" y="28.6"/>
      <point x="25.715789473684218" y="-11.873684210526315"/>
    </contour>
  </outline>
</glyph>
<glyph name="slash" format="2">
  <advance width="457.29473684210524"/>
  <unicode hex="002F"/>
  <outline>
    <contour>
      <point x="-31.65263157894737" y="0.0" type="curve"/>
      <point x="96.19999999999999" y="0.0" type="line"/>
      <point x="139.2736842105263" y="74.0"/>
      <point x="175.34736842105264" y="136.0"/>
      <point x="228.77894736842106" y="228.0" type="curve"/>
      <point x="379.8736842105263" y="474.0" type="line"/>
      <point x="440.41052631578947" y="568.5894736842105"/>
      <point x="481.7684210526316" y="632.5894736842105"/>
      <point x="534.1263157894737" y="713.0" type="curve"/>
      <point x="406.6842105263158" y="713.0" type="line"/>
      <point x="362.0210526315789" y="636.5894736842105"/>
      <point x="324.9473684210526" y="572.0"/>
      <point x="268.9263157894737" y="476.41052631578947" type="curve"/>
      <point x="116.42105263157895" y="228.0" type="line"/>
      <point x="56.88421052631578" y="137.23157894736843"/>
      <point x="16.52631578947368" y="74.23157894736842"/>
    </contour>
  </outline>
</glyph>
<glyph name="one" format="2">
  <advance width="441.66315789473686"/>
  <unicode hex="0031"/>
  <outline>
    <contour>
      <point x="102.02105263157895" y="458.36842105263156" type="line"/>
      <point x="185.66315789473686" y="499.31578947368416"/>
      <point x="268.1263157894737" y="539.6736842105263"/>
      <point x="352.58947368421053" y="581.0315789473684" type="curve"/>
      <point x="378.06315789473683" y="690.1052631578947" type="line"/>
      <point x="282.38947368421054" y="648.3368421052631"/>
      <point x="187.94736842105263" y="607.5684210526316"/>
      <point x="92.68421052631578" y="565.8" type="curve"/>
    </contour>
    <contour>
      <point x="165.56842105263158" y="0.0" type="curve"/>
      <point x="295.4" y="0.0" type="line"/>
      <point x="307.93684210526317" y="72.53684210526316"/>
      <point x="319.0631578947369" y="135.4842105263158"/>
      <point x="333.0105263157895" y="217.7157894736842" type="curve"/>
      <point x="381.8315789473684" y="447.82105263157894" type="line"/>
      <point x="402.06315789473683" y="530.3578947368421"/>
      <point x="422.11578947368423" y="609.9473684210526"/>
      <point x="440.9894736842105" y="686.4631578947368" type="curve"/>
      <point x="378.06315789473683" y="690.1052631578947" type="line"/>
      <point x="304.8736842105263" y="638.8526315789474" type="line"/>
      <point x="291.51578947368426" y="568.1368421052632"/>
      <point x="277.38947368421054" y="491.93684210526317"/>
      <point x="265.2105263157895" y="427.70526315789476" type="curve"/>
      <point x="220.90526315789472" y="217.7157894736842" type="line"/>
      <point x="199.44210526315788" y="135.4842105263158"/>
      <point x="184.21052631578948" y="72.53684210526316"/>
    </contour>
  </outline>
</glyph>
<glyph name="three" format="2">
  <advance width="576.2413793103448"/>
  <unicode hex="0033"/>
  <outline>
    <contour>
      <point x="242.58620689655174" y="-11.689655172413794" type="curve" smooth="yes"/>
      <point x="410.2068965517241" y="-11.689655172413794"/>
      <point x="488.99999999999994" y="49.41379310344828"/>
      <point x="512.7931034482758" y="161.48275862068965" type="curve" smooth="yes"/>
      <point x="535.7931034482758" y="270.8965517241379"/>
      <point x="463.6551724137931" y="336.62068965517244"/>
      <point x="402.7586206896552" y="353.41379310344826" type="curve"/>
      <point x="404.6551724137931" y="363.89655172413796" type="line"/>
      <point x="481.17241379310343" y="378.0"/>
      <point x="543.5862068965517" y="415.82758620689657"/>
      <point x="561.5862068965517" y="500.72413793103453" type="curve" smooth="yes"/>
      <point x="584.6896551724138" y="610.5172413793103"/>
      <point x="501.20689655172407" y="700.4827586206897"/>
      <point x="358.0" y="700.4827586206897" type="curve" smooth="yes"/>
      <point x="314.1034482758621" y="700.4827586206897"/>
      <point x="200.79310344827587" y="664.7586206896552"/>
      <point x="138.13793103448276" y="646.6551724137931" type="curve"/>
      <point x="126.37931034482759" y="530.448275862069" type="line"/>
      <point x="207.51724137931035" y="563.8620689655172"/>
      <point x="314.0689655172414" y="603.0344827586207"/>
      <point x="334.6896551724137" y="603.0344827586207" type="curve"/>
      <point x="414.2758620689656" y="601.1379310344828"/>
      <point x="458.2413793103448" y="561.1724137931035"/>
      <point x="443.6206896551724" y="493.0689655172414" type="curve" smooth="yes"/>
      <point x="430.10344827586204" y="431.3793103448276"/>
      <point x="376.51724137931035" y="401.3103448275862"/>
      <point x="265.6551724137931" y="399.51724137931035" type="curve"/>
      <point x="243.3793103448276" y="401.3103448275862"/>
      <point x="220.0" y="403.2068965517241"/>
      <point x="199.51724137931035" y="404.1034482758621" type="curve"/>
      <point x="178.17241379310346" y="304.86206896551727" type="line"/>
      <point x="202.24137931034483" y="305.75862068965523"/>
      <point x="226.6206896551724" y="307.65517241379314"/>
      <point x="250.68965517241375" y="308.55172413793105" type="curve"/>
      <point x="362.55172413793105" y="307.6551724137931"/>
      <point x="417.0344827586207" y="257.6551724137931"/>
      <point x="400.31034482758616" y="181.82758620689654" type="curve" smooth="yes"/>
      <point x="386.6896551724138" y="118.72413793103448"/>
      <point x="341.6206896551724" y="86.75862068965517"/>
      <point x="243.48275862068965" y="84.86206896551724" type="curve"/>
      <point x="208.72413793103448" y="84.86206896551724"/>
      <point x="111.0" y="122.13793103448276"/>
      <point x="31.965517241379317" y="156.75862068965517" type="curve"/>
      <point x="0.13793103448275712" y="51.03448275862069" type="line"/>
      <point x="77.75862068965517" y="24.206896551724142"/>
      <point x="195.0689655172414" y="-11.689655172413794"/>
    </contour>
  </outline>
</glyph>
<glyph name="four" format="2">
  <advance width="605.1379310344828"/>
  <unicode hex="0034"/>
  <outline>
    <contour>
      <point x="288.448275862069" y="0.0" type="curve"/>
      <point x="418.48275862068965" y="0.0" type="line"/>
      <point x="429.5862068965517" y="64.58620689655173"/>
      <point x="437.7931034482759" y="117.06896551724137"/>
      <point x="450.8965517241379" y="193.44827586206898" type="curve"/>
      <point x="504.2068965517241" y="445.6896551724138" type="line"/>
      <point x="524.0000000000001" y="525.6896551724138"/>
      <point x="543.6896551724138" y="603.5862068965517"/>
      <point x="564.4827586206897" y="686.6896551724138" type="curve"/>
      <point x="432.44827586206895" y="686.6896551724138" type="line"/>
      <point x="394.93103448275866" y="642.3793103448276"/>
      <point x="357.31034482758616" y="598.8620689655172"/>
      <point x="320.6896551724138" y="555.448275862069" type="curve"/>
      <point x="208.75862068965517" y="432.62068965517244" type="line"/>
      <point x="153.24137931034483" y="373.8965517241379"/>
      <point x="78.31034482758622" y="293.96551724137925"/>
      <point x="25.79310344827586" y="238.24137931034483" type="curve"/>
      <point x="8.241379310344827" y="152.86206896551724" type="line"/>
      <point x="374.551724137931" y="152.86206896551724" type="line"/>
      <point x="428.7241379310345" y="151.06896551724137"/>
      <point x="507.48275862068965" y="149.17241379310343"/>
      <point x="557.6551724137931" y="147.27586206896552" type="curve"/>
      <point x="580.7931034482758" y="256.58620689655174" type="line"/>
      <point x="529.7241379310344" y="254.68965517241378"/>
      <point x="449.9655172413793" y="251.89655172413794"/>
      <point x="394.0" y="250.10344827586206" type="curve"/>
      <point x="379.2068965517242" y="250.10344827586206" type="line"/>
      <point x="118.44827586206897" y="250.10344827586206" type="line"/>
      <point x="124.93103448275862" y="226.82758620689657" type="line"/>
      <point x="162.55172413793105" y="270.3448275862069"/>
      <point x="200.9655172413793" y="314.65517241379314"/>
      <point x="238.58620689655172" y="358.17241379310343" type="curve"/>
      <point x="388.44827586206895" y="522.0344827586207" type="line"/>
      <point x="433.9655172413793" y="569.8620689655172"/>
      <point x="478.68965517241384" y="617.7931034482758"/>
      <point x="525.2068965517242" y="666.5172413793102" type="curve"/>
      <point x="428.6551724137931" y="636.1034482758621" type="line"/>
      <point x="415.448275862069" y="564.6896551724137"/>
      <point x="403.13793103448273" y="496.48275862068965"/>
      <point x="390.82758620689657" y="425.0689655172414" type="curve"/>
      <point x="345.8965517241379" y="212.72413793103448" type="line"/>
      <point x="338.4137931034483" y="193.44827586206898" type="line"/>
      <point x="318.82758620689657" y="117.06896551724137"/>
      <point x="305.1379310344828" y="65.48275862068967"/>
    </contour>
  </outline>
</glyph>
<glyph name="five" format="2">
  <advance width="578.7586206896551"/>
  <unicode hex="0035"/>
  <outline>
    <contour>
      <point x="237.58620689655172" y="-11.689655172413794" type="curve" smooth="yes"/>
      <point x="403.0" y="-11.689655172413794"/>
      <point x="492.20689655172407" y="59.6896551724138"/>
      <point x="522.103448275862" y="201.9655172413793" type="curve" smooth="yes"/>
      <point x="553.2068965517241" y="349.9655172413793"/>
      <point x="463.37931034482756" y="446.44827586206895"/>
      <point x="346.8620689655172" y="446.44827586206895" type="curve" smooth="yes"/>
      <point x="312.8965517241379" y="446.44827586206895"/>
      <point x="270.6551724137931" y="432.62068965517244"/>
      <point x="235.6206896551724" y="418.2068965517241" type="curve"/>
      <point x="226.0344827586207" y="418.2068965517241" type="line"/>
      <point x="234.34482758620692" y="456.8620689655172" type="line"/>
      <point x="248.24137931034485" y="511.79310344827593"/>
      <point x="261.8620689655172" y="569.7931034482758"/>
      <point x="275.9655172413793" y="626.7586206896551" type="curve"/>
      <point x="224.10344827586206" y="589.448275862069" type="line"/>
      <point x="325.4137931034482" y="589.448275862069" type="line"/>
      <point x="402.7241379310345" y="585.7586206896551"/>
      <point x="483.9310344827586" y="582.0689655172414"/>
      <point x="562.344827586207" y="578.3793103448276" type="curve"/>
      <point x="584.5862068965517" y="686.6896551724138" type="line"/>
      <point x="166.17241379310346" y="686.6896551724138" type="line"/>
      <point x="153.0689655172414" y="608.4137931034483"/>
      <point x="137.0689655172414" y="520.3448275862069"/>
      <point x="120.06896551724138" y="427.2758620689655" type="curve"/>
      <point x="97.27586206896552" y="317.3103448275862" type="line"/>
      <point x="145.44827586206895" y="313.51724137931035" type="line"/>
      <point x="192.6206896551724" y="337.9655172413793"/>
      <point x="250.0689655172414" y="354.37931034482756"/>
      <point x="287.5862068965517" y="354.37931034482756" type="curve"/>
      <point x="369.96551724137936" y="352.48275862068965"/>
      <point x="426.8620689655172" y="304.4137931034483"/>
      <point x="407.8275862068965" y="209.6551724137931" type="curve" smooth="yes"/>
      <point x="390.0" y="121.62068965517241"/>
      <point x="331.62068965517244" y="86.75862068965517"/>
      <point x="237.48275862068968" y="84.86206896551724" type="curve"/>
      <point x="202.82758620689654" y="84.86206896551724"/>
      <point x="109.0" y="122.13793103448276"/>
      <point x="31.965517241379317" y="156.75862068965517" type="curve"/>
      <point x="0.13793103448275712" y="51.03448275862069" type="line"/>
      <point x="75.75862068965516" y="24.206896551724142"/>
      <point x="191.0689655172414" y="-11.689655172413794"/>
    </contour>
  </outline>
</glyph>
<glyph name="seven" format="2">
  <advance width="536.4526315789474"/>
  <unicode hex="0037"/>
  <outline>
    <contour>
      <point x="44.77894736842106" y="0.0" type="curve"/>
      <point x="189.41052631578947" y="0.0" type="line"/>
      <point x="237.78947368421052" y="79.84210526315789"/>
      <point x="284.93684210526317" y="159.45263157894738"/>
      <point x="332.7263157894737" y="238.1157894736842" type="curve"/>
      <point x="421.46315789473687" y="373.4421052631579" type="line"/>
      <point x="474.0736842105263" y="452.17894736842106"/>
      <point x="522.5052631578945" y="524.1473684210526"/>
      <point x="573.3473684210527" y="600.5263157894738" type="curve"/>
      <point x="591.6631578947369" y="686.4631578947368" type="line"/>
      <point x="117.0" y="686.4631578947368" type="line"/>
      <point x="93.98947368421052" y="577.1052631578948" type="line"/>
      <point x="175.60000000000002" y="580.9789473684211"/>
      <point x="257.621052631579" y="585.2631578947369"/>
      <point x="339.2315789473684" y="589.1368421052632" type="curve"/>
      <point x="475.0947368421053" y="589.1368421052632" type="line"/>
      <point x="445.3368421052632" y="612.6842105263158" type="line"/>
      <point x="414.4947368421052" y="563.2"/>
      <point x="384.42105263157896" y="513.8947368421052"/>
      <point x="354.7578947368421" y="464.41052631578947" type="curve"/>
      <point x="221.94736842105266" y="263.06315789473683" type="line"/>
      <point x="163.69473684210524" y="176.6315789473684"/>
      <point x="104.03157894736844" y="88.02105263157894"/>
    </contour>
  </outline>
</glyph>
<glyph name="eight" format="2">
  <advance width="611.448275862069"/>
  <unicode hex="0038"/>
  <outline>
    <contour>
      <point x="284.06896551724134" y="-11.689655172413794" type="curve" smooth="yes"/>
      <point x="443.2068965517241" y="-11.689655172413794"/>
      <point x="525.1034482758621" y="55.51724137931035"/>
      <point x="548.8965517241379" y="166.0" type="curve" smooth="yes"/>
      <point x="573.8965517241379" y="281.4137931034483"/>
      <point x="504.06896551724134" y="343.0344827586207"/>
      <point x="447.5862068965517" y="361.51724137931035" type="curve"/>
      <point x="449.48275862068965" y="371.10344827586204" type="line"/>
      <point x="519.8620689655172" y="383.2068965517241"/>
      <point x="580.3793103448276" y="423.7241379310345"/>
      <point x="596.4827586206897" y="501.7241379310345" type="curve" smooth="yes"/>
      <point x="619.4827586206897" y="611.2068965517241"/>
      <point x="535.1034482758621" y="700.4827586206897"/>
      <point x="374.6896551724138" y="700.4827586206897" type="curve" smooth="yes"/>
      <point x="248.34482758620692" y="700.4827586206897"/>
      <point x="151.96551724137933" y="651.6896551724137"/>
      <point x="131.0689655172414" y="552.2068965517242" type="curve" smooth="yes"/>
      <point x="112.96551724137932" y="466.2068965517241"/>
      <point x="162.3793103448276" y="403.8965517241379"/>
      <point x="215.86206896551724" y="385.7931034482758" type="curve"/>
      <point x="213.9655172413793" y="376.2068965517241" type="line"/>
      <point x="149.58620689655172" y="365.3103448275862"/>
      <point x="62.6551724137931" y="330.10344827586204"/>
      <point x="39.55172413793103" y="221.58620689655174" type="curve" smooth="yes"/>
      <point x="14.75862068965517" y="104.20689655172414"/>
      <point x="85.13793103448276" y="-11.689655172413794"/>
    </contour>
    <contour>
      <point x="287.6551724137931" y="85.75862068965517" type="curve"/>
      <point x="173.75862068965517" y="88.55172413793103"/>
      <point x="138.41379310344828" y="150.9655172413793"/>
      <point x="153.13793103448276" y="219.3793103448276" type="curve" smooth="yes"/>
      <point x="169.86206896551724" y="298.2068965517241"/>
      <point x="233.58620689655174" y="318.44827586206895"/>
      <point x="316.41379310344826" y="321.2413793103448" type="curve"/>
      <point x="401.03448275862064" y="318.44827586206895"/>
      <point x="458.7241379310345" y="270.9655172413793"/>
      <point x="441.7931034482759" y="188.82758620689657" type="curve" smooth="yes"/>
      <point x="428.17241379310343" y="122.82758620689656"/>
      <point x="379.8965517241379" y="88.55172413793103"/>
    </contour>
    <contour>
      <point x="345.551724137931" y="408.62068965517244" type="curve"/>
      <point x="262.62068965517244" y="410.51724137931035"/>
      <point x="221.9655172413793" y="461.10344827586204"/>
      <point x="235.58620689655172" y="523.1034482758621" type="curve" smooth="yes"/>
      <point x="249.0" y="583.4827586206897"/>
      <point x="301.7931034482758" y="602.9310344827587"/>
      <point x="370.0" y="605.7241379310345" type="curve"/>
      <point x="453.2413793103448" y="602.9310344827587"/>
      <point x="500.31034482758616" y="563.6551724137931"/>
      <point x="486.5862068965517" y="496.8620689655172" type="curve" smooth="yes"/>
      <point x="474.9655172413793" y="440.17241379310343"/>
      <point x="424.6896551724138" y="410.51724137931035"/>
    </contour>
  </outline>
</glyph>
<glyph name="less" format="2">
  <advance width="572.3157894736842"/>
  <unicode hex="003C"/>
  <outline>
    <contour>
      <point x="474.8842105263158" y="60.136842105263156" type="curve"/>
      <point x="498.0736842105263" y="167.56842105263158" type="line"/>
      <point x="437.74736842105267" y="192.53684210526316"/>
      <point x="372.52631578947364" y="219.86315789473684"/>
      <point x="311.021052631579" y="245.42105263157896" type="curve"/>
      <point x="212.54736842105262" y="290.0526315789474" type="line"/>
      <point x="214.9578947368421" y="300.15789473684214" type="line"/>
      <point x="331.2736842105263" y="343.9684210526315" type="line"/>
      <point x="403.6736842105263" y="369.1157894736842"/>
      <point x="480.7894736842106" y="396.4421052631579"/>
      <point x="552.0105263157894" y="421.0" type="curve"/>
      <point x="576.4315789473684" y="540.178947368421" type="line"/>
      <point x="505.22105263157897" y="511.53684210526313"/>
      <point x="438.47368421052636" y="484.7157894736842"/>
      <point x="379.7263157894737" y="461.4842105263158" type="curve"/>
      <point x="274.0105263157895" y="421.41052631578947" type="line"/>
      <point x="216.85263157894738" y="401.2315789473684"/>
      <point x="149.69473684210524" y="377.4631578947368"/>
      <point x="80.30526315789473" y="353.87368421052633" type="curve"/>
      <point x="57.1157894736842" y="246.44210526315788" type="line"/>
      <point x="116.50526315789473" y="222.85263157894738"/>
      <point x="174.07368421052632" y="199.0842105263158"/>
      <point x="222.05263157894737" y="178.90526315789475" type="curve"/>
      <point x="311.41052631578947" y="138.83157894736843" type="line"/>
      <point x="359.74736842105267" y="115.60000000000001"/>
      <point x="415.67368421052635" y="88.18947368421051"/>
    </contour>
  </outline>
</glyph>
<glyph name="equal" format="2">
  <advance width="572.3157894736842"/>
  <unicode hex="003D"/>
  <outline>
    <contour>
      <point x="37.757894736842104" y="133.17894736842106" type="line"/>
      <point x="103.14736842105262" y="135.0"/>
      <point x="174.25263157894736" y="136.82105263157897"/>
      <point x="218.28421052631577" y="137.6421052631579" type="curve"/>
      <point x="307.61052631578946" y="137.6421052631579" type="line"/>
      <point x="351.64210526315793" y="136.82105263157897"/>
      <point x="421.9263157894737" y="135.0"/>
      <point x="486.4947368421053" y="133.17894736842106" type="curve"/>
      <point x="508.6842105263158" y="237.78947368421052" type="line"/>
      <point x="443.7052631578947" y="235.96842105263158"/>
      <point x="372.0105263157895" y="234.14736842105262"/>
      <point x="327.978947368421" y="233.32631578947368" type="curve"/>
      <point x="238.65263157894736" y="233.32631578947368" type="line"/>
      <point x="194.62105263157895" y="234.14736842105262"/>
      <point x="124.92631578947368" y="235.96842105263158"/>
      <point x="59.94736842105264" y="237.78947368421052" type="curve"/>
    </contour>
    <contour>
      <point x="85.6842105263158" y="363.7052631578947" type="line"/>
      <point x="151.07368421052632" y="365.5263157894737"/>
      <point x="222.17894736842103" y="367.34736842105264"/>
      <point x="266.2105263157894" y="368.1684210526316" type="curve"/>
      <point x="355.53684210526313" y="368.1684210526316" type="line"/>
      <point x="399.5684210526316" y="367.34736842105264"/>
      <point x="469.85263157894735" y="365.5263157894737"/>
      <point x="534.421052631579" y="363.7052631578947" type="curve"/>
      <point x="556.6105263157896" y="468.3157894736842" type="line"/>
      <point x="491.6315789473684" y="466.4947368421052"/>
      <point x="419.93684210526317" y="464.6736842105263"/>
      <point x="375.9052631578947" y="463.85263157894735" type="curve"/>
      <point x="286.578947368421" y="463.85263157894735" type="line"/>
      <point x="242.54736842105262" y="464.6736842105263"/>
      <point x="172.85263157894738" y="466.4947368421052"/>
      <point x="107.8736842105263" y="468.3157894736842" type="curve"/>
    </contour>
  </outline>
</glyph>
<glyph name="greater" format="2">
  <advance width="572.3157894736842"/>
  <unicode hex="003E"/>
  <outline>
    <contour>
      <point x="17.936842105263157" y="60.136842105263156" type="line"/>
      <point x="89.14736842105262" y="88.77894736842104"/>
      <point x="155.89473684210526" y="115.6"/>
      <point x="214.6421052631579" y="138.83157894736843" type="curve"/>
      <point x="320.3578947368421" y="178.90526315789475" type="line"/>
      <point x="377.51578947368426" y="199.0842105263158"/>
      <point x="444.67368421052635" y="222.85263157894738"/>
      <point x="514.0631578947368" y="246.44210526315788" type="curve"/>
      <point x="537.2526315789474" y="353.87368421052633" type="line"/>
      <point x="477.86315789473684" y="377.46315789473687"/>
      <point x="420.2947368421053" y="401.2315789473684"/>
      <point x="372.3157894736842" y="421.41052631578947" type="curve"/>
      <point x="282.9578947368421" y="461.4842105263158" type="line"/>
      <point x="234.62105263157895" y="484.7157894736842"/>
      <point x="178.69473684210527" y="512.1263157894738"/>
      <point x="119.48421052631578" y="540.178947368421" type="curve"/>
      <point x="96.29473684210527" y="432.74736842105267" type="line"/>
      <point x="156.62105263157895" y="407.7789473684211"/>
      <point x="221.84210526315792" y="380.4526315789474"/>
      <point x="283.34736842105264" y="354.89473684210526" type="curve"/>
      <point x="381.82105263157894" y="310.2631578947368" type="line"/>
      <point x="379.41052631578947" y="300.1578947368421" type="line"/>
      <point x="263.09473684210525" y="256.34736842105264" type="line"/>
      <point x="190.69473684210527" y="231.2"/>
      <point x="113.57894736842104" y="203.8736842105263"/>
      <point x="42.357894736842105" y="179.31578947368422" type="curve"/>
    </contour>
  </outline>
</glyph>
<glyph name="at" format="2">
  <advance width="886.0842105263158"/>
  <unicode hex="0040"/>
  <outline>
    <contour>
      <point x="480.2105263157895" y="-136.3684210526316" type="curve" smooth="yes"/>
      <point x="545.0315789473684" y="-136.3684210526316"/>
      <point x="670.8000000000001" y="-94.2421052631579"/>
      <point x="763.0315789473684" y="-66.1157894736842" type="curve"/>
      <point x="763.0315789473684" y="13.168421052631578" type="line"/>
      <point x="647.1052631578947" y="-30.88421052631579"/>
      <point x="524.6421052631579" y="-66.42105263157895"/>
      <point x="480.2105263157895" y="-68.83157894736843" type="curve"/>
      <point x="207.98947368421054" y="-65.01052631578948"/>
      <point x="85.73684210526316" y="117.82105263157895"/>
      <point x="132.37894736842105" y="335.05263157894734" type="curve" smooth="yes"/>
      <point x="171.45263157894738" y="517.9578947368421"/>
      <point x="297.10526315789474" y="612.0421052631579"/>
      <point x="475.2105263157895" y="615.8631578947368" type="curve"/>
      <point x="686.2526315789473" y="612.0421052631579"/>
      <point x="804.8631578947368" y="466.90526315789475"/>
      <point x="767.5052631578947" y="264.0105263157895" type="curve" smooth="yes"/>
      <point x="761.5578947368421" y="232.2736842105263"/>
      <point x="682.6736842105264" y="136.9263157894737"/>
      <point x="650.3157894736843" y="131.17894736842106" type="curve"/>
      <point x="603.7578947368421" y="134.58947368421053"/>
      <point x="585.9157894736842" y="160.7157894736842"/>
      <point x="600.9684210526316" y="233.92631578947368" type="curve"/>
      <point x="623.7052631578947" y="342.8421052631579" type="line"/>
      <point x="636.9894736842106" y="386.82105263157894"/>
      <point x="652.0421052631579" y="436.87368421052633"/>
      <point x="666.5052631578948" y="482.9263157894737" type="curve"/>
      <point x="577.8526315789474" y="477.87368421052633" type="line"/>
      <point x="561.6210526315789" y="425.38947368421054" type="line"/>
      <point x="553.336842105263" y="425.38947368421054" type="line"/>
      <point x="518.7473684210526" y="457.6736842105263"/>
      <point x="466.18947368421055" y="488.5157894736842"/>
      <point x="429.8105263157895" y="488.5157894736842" type="curve" smooth="yes"/>
      <point x="336.63157894736844" y="488.5157894736842"/>
      <point x="267.9684210526316" y="412.53684210526313"/>
      <point x="246.02105263157895" y="305.7473684210526" type="curve" smooth="yes"/>
      <point x="220.61052631578949" y="182.41052631578947"/>
      <point x="271.53684210526313" y="70.53684210526316"/>
      <point x="386.7894736842105" y="70.53684210526316" type="curve" smooth="yes"/>
      <point x="415.0421052631579" y="70.53684210526316"/>
      <point x="466.06315789473683" y="99.66315789473684"/>
      <point x="512.2947368421053" y="136.78947368421052" type="curve"/>
      <point x="520.1684210526316" y="136.78947368421052" type="line"/>
      <point x="534.5578947368421" y="97.8421052631579"/>
      <point x="576.1578947368421" y="61.357894736842105"/>
      <point x="657.315789473684" y="61.357894736842105" type="curve" smooth="yes"/>
      <point x="696.8315789473684" y="61.357894736842105"/>
      <point x="823.6842105263157" y="176.76842105263157"/>
      <point x="837.7368421052631" y="249.8" type="curve" smooth="yes"/>
      <point x="883.6105263157895" y="487.88421052631577"/>
      <point x="728.1684210526315" y="683.4"/>
      <point x="476.62105263157895" y="683.4" type="curve" smooth="yes"/>
      <point x="283.33684210526314" y="683.4"/>
      <point x="109.84210526315789" y="579.9368421052632"/>
      <point x="61.968421052631584" y="349.3157894736842" type="curve" smooth="yes"/>
      <point x="9.221052631578946" y="97.14736842105263"/>
      <point x="162.4842105263158" y="-136.3684210526316"/>
    </contour>
    <contour>
      <point x="411.7263157894737" y="150.21052631578948" type="curve"/>
      <point x="343.56842105263155" y="152.21052631578948"/>
      <point x="317.2421052631579" y="214.2736842105263"/>
      <point x="333.2631578947368" y="290.8421052631579" type="curve" smooth="yes"/>
      <point x="347.33684210526314" y="357.2631578947368"/>
      <point x="386.37894736842105" y="404.61052631578946"/>
      <point x="450.2842105263158" y="407.0210526315789" type="curve"/>
      <point x="477.61052631578946" y="405.2"/>
      <point x="514.0842105263157" y="385.28421052631575"/>
      <point x="539.7157894736841" y="363.36842105263156" type="curve"/>
      <point x="507.15789473684214" y="212.4736842105263" type="line"/>
      <point x="475.7578947368421" y="175.30526315789473"/>
      <point x="435.9263157894737" y="153.4421052631579"/>
    </contour>
  </outline>
</glyph>
<glyph name="A" format="2">
  <advance width="702.8947368421052"/>
  <unicode hex="0041"/>
  <anchor x="299.2421052631579" y="0.0" name="bottom"/>
  <anchor x="631.0315789473684" y="0.0" name="ogonek"/>
  <anchor x="448.42105263157896" y="713.0" name="top"/>
  <outline>
    <contour>
      <point x="-35.77894736842105" y="0.0" type="curve"/>
      <point x="112.67368421052632" y="0.0" type="line"/>
      <point x="152.1263157894737" y="80.73684210526316"/>
      <point x="194.57894736842104" y="167.5263157894737"/>
      <point x="233.4421052631579" y="247.0842105263158" type="curve"/>
      <point x="425.41052631578947" y="608.4421052631579" type="line"/>
      <point x="435.5157894736842" y="608.4421052631579" type="line"/>
      <point x="477.01052631578943" y="245.67368421052632" type="line"/>
      <point x="482.8" y="167.70526315789473"/>
      <point x="489.3578947368421" y="78.37894736842105"/>
      <point x="495.1473684210527" y="0.0" type="curve"/>
      <point x="633.4947368421053" y="0.0" type="line"/>
      <point x="620.3157894736842" y="74.17894736842105"/>
      <point x="604.7263157894737" y="163.2315789473684"/>
      <point x="590.9578947368421" y="240.94736842105263" type="curve"/>
      <point x="557.9894736842105" y="487.0" type="line"/>
      <point x="550.7368421052631" y="571.8210526315789"/>
      <point x="544.6631578947367" y="640.357894736842"/>
      <point x="538.5894736842105" y="713.0" type="curve"/>
      <point x="361.2526315789474" y="713.0" type="line"/>
      <point x="323.17894736842106" y="639.0"/>
      <point x="288.6947368421052" y="571.5894736842105"/>
      <point x="245.44210526315786" y="487.58947368421053" type="curve"/>
      <point x="109.29473684210527" y="243.0" type="line"/>
      <point x="63.52631578947369" y="166.58947368421053"/>
      <point x="10.578947368421055" y="77.58947368421053"/>
    </contour>
    <contour>
      <point x="157.14736842105262" y="167.2842105263158" type="line"/>
      <point x="522.5894736842106" y="167.2842105263158" type="line"/>
      <point x="531.8736842105263" y="258.86315789473684" type="line"/>
      <point x="187.36842105263156" y="258.86315789473684" type="line"/>
    </contour>
  </outline>
</glyph>
<glyph name="C" format="2">
  <advance width="683.9473684210526"/>
  <unicode hex="0043"/>
  <anchor x="345.30526315789473" y="0.0" name="bottom"/>
  <anchor x="489.41052631578947" y="713.0" name="top"/>
  <outline>
    <contour>
      <point x="383.0526315789474" y="-11.873684210526315" type="curve" smooth="yes"/>
      <point x="424.12631578947367" y="-11.873684210526315"/>
      <point x="528.5684210526316" y="13.252631578947366"/>
      <point x="586.1052631578947" y="32.37894736842105" type="curve"/>
      <point x="602.8842105263159" y="151.32631578947368" type="line"/>
      <point x="531.7578947368422" y="119.2"/>
      <point x="430.6526315789474" y="88.86315789473684"/>
      <point x="400.93684210526317" y="88.86315789473684" type="curve"/>
      <point x="227.22105263157894" y="92.27368421052631"/>
      <point x="164.33684210526317" y="235.2"/>
      <point x="195.71578947368423" y="383.9684210526316" type="curve" smooth="yes"/>
      <point x="230.9157894736842" y="550.6631578947369"/>
      <point x="341.87368421052633" y="619.6210526315789"/>
      <point x="473.2736842105263" y="623.0315789473684" type="curve"/>
      <point x="497.1684210526316" y="623.0315789473684"/>
      <point x="597.6315789473684" y="594.3894736842105"/>
      <point x="691.8105263157895" y="559.1578947368422" type="curve"/>
      <point x="725.5684210526315" y="672.7473684210527" type="line"/>
      <point x="653.842105263158" y="694.2105263157894"/>
      <point x="529.8421052631579" y="726.6421052631579"/>
      <point x="484.71578947368425" y="726.6421052631579" type="curve" smooth="yes"/>
      <point x="264.2421052631579" y="726.6421052631579"/>
      <point x="119.63157894736841" y="613.6421052631579"/>
      <point x="75.0421052631579" y="400.64210526315793" type="curve" smooth="yes"/>
      <point x="29.400000000000002" y="184.02105263157895"/>
      <point x="138.61052631578949" y="-11.873684210526315"/>
    </contour>
  </outline>
</glyph>
<glyph name="D" format="2">
  <advance width="737.3578947368421"/>
  <unicode hex="0044"/>
  <anchor x="299.6421052631579" y="0.0" name="bottom"/>
  <anchor x="392.211" y="357.0" name="center"/>
  <anchor x="449.6421052631579" y="713.0" name="top"/>
  <outline>
    <contour>
      <point x="24.389473684210532" y="0.0" type="curve"/>
      <point x="110.8" y="0.0"/>
      <point x="186.6315789473684" y="-4.284210526315789"/>
      <point x="288.178947368421" y="-4.284210526315789" type="curve"/>
      <point x="560.6736842105263" y="-4.284210526315789"/>
      <point x="668.7263157894737" y="129.41052631578947"/>
      <point x="710.9052631578948" y="332.17894736842106" type="curve" smooth="yes"/>
      <point x="753.3157894736843" y="537.6947368421053"/>
      <point x="648.6736842105263" y="716.4631578947368"/>
      <point x="418.06315789473683" y="716.4631578947368" type="curve"/>
      <point x="333.89473684210526" y="716.4631578947368"/>
      <point x="253.7473684210526" y="713.0"/>
      <point x="174.38947368421054" y="713.0" type="curve"/>
      <point x="160.85263157894738" y="634.8210526315789"/>
      <point x="149.31578947368422" y="566.5157894736843"/>
      <point x="133.3684210526316" y="473.41052631578947" type="curve"/>
      <point x="82.54736842105264" y="234.30526315789473" type="line"/>
      <point x="60.26315789473684" y="145.2526315789474"/>
      <point x="44.03157894736842" y="79.30526315789474"/>
    </contour>
    <contour>
      <point x="177.0" y="97.50526315789473" type="line"/>
      <point x="186.30526315789473" y="148.26315789473685"/>
      <point x="196.4315789473684" y="198.94736842105263"/>
      <point x="208.14736842105262" y="261.4" type="curve"/>
      <point x="247.88421052631577" y="449.5473684210526" type="line"/>
      <point x="262.83157894736837" y="513.2315789473685"/>
      <point x="274.36842105263156" y="562.6842105263157"/>
      <point x="286.90526315789475" y="615.4947368421052" type="curve"/>
      <point x="389.53684210526313" y="615.4947368421052" type="line"/>
      <point x="563.0105263157894" y="611.2631578947368"/>
      <point x="619.7894736842106" y="489.8"/>
      <point x="588.5894736842106" y="344.5157894736842" type="curve" smooth="yes"/>
      <point x="557.2105263157895" y="194.97894736842105"/>
      <point x="491.55789473684206" y="102.14736842105263"/>
      <point x="298.2105263157894" y="97.50526315789473" type="curve"/>
    </contour>
  </outline>
</glyph>
<glyph name="F" format="2">
  <advance width="577.1578947368421"/>
  <unicode hex="0046"/>
  <outline>
    <contour>
      <point x="24.389473684210532" y="0.0" type="curve"/>
      <point x="160.32631578947368" y="0.0" type="line"/>
      <point x="173.86315789473682" y="78.12631578947368"/>
      <point x="184.39999999999998" y="143.8947368421053"/>
      <point x="199.93684210526314" y="234.30526315789473" type="curve"/>
      <point x="247.06315789473683" y="456.4" type="line"/>
      <point x="269.34736842105264" y="547.2736842105263"/>
      <point x="287.4" y="615.4526315789474"/>
      <point x="307.0421052631579" y="694.8105263157895" type="curve"/>
      <point x="310.3263157894737" y="713.0" type="line"/>
      <point x="174.38947368421054" y="713.0" type="line"/>
      <point x="160.85263157894738" y="634.8210526315789"/>
      <point x="149.31578947368422" y="566.5157894736843"/>
      <point x="133.3684210526316" y="473.41052631578947" type="curve"/>
      <point x="82.54736842105264" y="234.30526315789473" type="line"/>
      <point x="60.26315789473684" y="145.2526315789474"/>
      <point x="44.03157894736842" y="79.30526315789474"/>
    </contour>
    <contour>
      <point x="185.73684210526315" y="305.12631578947367" type="line"/>
      <point x="314.81052631578945" y="305.12631578947367" type="line"/>
      <point x="402.2421052631579" y="303.0736842105263"/>
      <point x="461.13684210526316" y="301.2526315789474"/>
      <point x="525.2105263157895" y="300.0210526315789" type="curve"/>
      <point x="548.221052631579" y="409.3263157894737" type="line"/>
      <point x="486.9157894736842" y="407.5052631578947"/>
      <point x="426.0210526315789" y="405.2736842105263"/>
      <point x="335.9473684210526" y="402.63157894736844" type="curve"/>
      <point x="206.28421052631577" y="402.63157894736844" type="line"/>
    </contour>
    <contour>
      <point x="256.5578947368421" y="611.8" type="line"/>
      <point x="374.7578947368421" y="611.8" type="line"/>
      <point x="474.0842105263158" y="607.9263157894736"/>
      <point x="542.2842105263157" y="604.6947368421052"/>
      <point x="607.5368421052632" y="602.0526315789473" type="curve"/>
      <point x="630.5473684210526" y="713.0" type="line"/>
      <point x="277.9263157894737" y="713.0" type="line"/>
    </contour>
  </outline>
</glyph>
<glyph name="G" format="2">
  <advance width="730.8421052631579"/>
  <unicode hex="0047"/>
  <anchor x="345.30526315789473" y="0.0" name="bottom"/>
  <anchor x="495.30526315789473" y="713.0" name="top"/>
  <outline>
    <contour>
      <point x="400.46315789473687" y="-11.463157894736842" type="curve" smooth="yes"/>
      <point x="453.3368421052631" y="-11.463157894736842"/>
      <point x="558.978947368421" y="10.663157894736843"/>
      <point x="625.8526315789475" y="26.557894736842105" type="curve"/>
      <point x="626.7263157894737" y="139.0421052631579" type="line"/>
      <point x="549.3157894736843" y="112.32631578947367"/>
      <point x="439.9789473684211" y="86.81052631578947"/>
      <point x="407.62105263157895" y="86.81052631578947" type="curve"/>
      <point x="223.3263157894737" y="90.22105263157894"/>
      <point x="162.69473684210527" y="232.73684210526315"/>
      <point x="194.89473684210526" y="384.7894736842106" type="curve" smooth="yes"/>
      <point x="231.09473684210525" y="555.0736842105263"/>
      <point x="347.2631578947368" y="620.0315789473684"/>
      <point x="476.2" y="623.0315789473684" type="curve"/>
      <point x="501.68421052631584" y="623.0315789473684"/>
      <point x="608.1473684210526" y="591.4421052631578"/>
      <point x="708.1473684210526" y="551.6736842105264" type="curve"/>
      <point x="741.9052631578946" y="665.263157894737" type="line"/>
      <point x="662.8947368421052" y="689.0842105263158"/>
      <point x="527.0210526315789" y="726.6421052631579"/>
      <point x="478.07368421052627" y="726.6421052631579" type="curve" smooth="yes"/>
      <point x="263.2210526315789" y="726.6421052631579"/>
      <point x="120.45263157894736" y="615.7473684210526"/>
      <point x="75.0421052631579" y="400.64210526315793" type="curve" smooth="yes"/>
      <point x="29.631578947368425" y="185.35789473684213"/>
      <point x="131.09473684210528" y="-11.463157894736842"/>
    </contour>
    <contour>
      <point x="502.4105263157895" y="26.55789473684211" type="curve"/>
      <point x="625.8526315789475" y="26.557894736842105" type="line"/>
      <point x="638.4421052631579" y="96.66315789473684"/>
      <point x="647.0315789473685" y="148.76842105263157"/>
      <point x="657.0315789473685" y="202.8736842105263" type="curve"/>
      <point x="673.9052631578948" y="266.15789473684214"/>
      <point x="686.778947368421" y="311.4421052631579"/>
      <point x="700.2421052631579" y="362.13684210526316" type="curve"/>
      <point x="567.6421052631579" y="362.13684210526316" type="line"/>
      <point x="560.2842105263159" y="311.4421052631579"/>
      <point x="553.5157894736843" y="266.15789473684214"/>
      <point x="544.1578947368422" y="202.8736842105263" type="curve"/>
      <point x="531.1052631578948" y="148.76842105263157"/>
      <point x="518.4631578947367" y="95.30526315789474"/>
    </contour>
  </outline>
</glyph>
<glyph name="J" format="2">
  <advance width="306.30526315789473"/>
  <unicode hex="004A"/>
  <anchor x="103.72631578947369" y="0.0" name="bottom"/>
  <anchor x="253.7263157894737" y="713.0" name="top"/>
  <outline>
    <contour>
      <point x="-68.26315789473686" y="-156.7157894736842" type="curve"/>
      <point x="49.22105263157895" y="-156.7157894736842" type="line"/>
      <point x="87.86315789473683" y="-106.76842105263158"/>
      <point x="174.57894736842104" y="12.431578947368422"/>
      <point x="182.9157894736842" y="53.06315789473683" type="curve" smooth="yes"/>
      <point x="200.73684210526315" y="135.81052631578947"/>
      <point x="212.04210526315788" y="222.2"/>
      <point x="230.68421052631578" y="310.41052631578947" type="curve"/>
      <point x="265.4736842105263" y="473.41052631578947" type="line"/>
      <point x="288.7578947368421" y="566.6947368421053"/>
      <point x="305.40000000000003" y="633.6421052631579"/>
      <point x="325.0421052631579" y="713.0" type="curve"/>
      <point x="186.6421052631579" y="713.0" type="line"/>
      <point x="173.10526315789474" y="634.8210526315789"/>
      <point x="161.56842105263155" y="566.5157894736843"/>
      <point x="145.62105263157895" y="473.41052631578947" type="curve"/>
      <point x="106.70526315789473" y="290.9578947368421" type="line"/>
      <point x="52.726315789473695" y="52.11578947368421" type="line"/>
      <point x="6.34736842105263" y="-26.93684210526316"/>
      <point x="-29.778947368421047" y="-90.55789473684212"/>
    </contour>
  </outline>
</glyph>
<glyph name="K" format="2">
  <advance width="683.8947368421053"/>
  <unicode hex="004B"/>
  <anchor x="297.65263157894736" y="0.0" name="bottom"/>
  <anchor x="447.65263157894736" y="713.0" name="top"/>
  <outline>
    <contour>
      <point x="457.9894736842105" y="0.0" type="curve"/>
      <point x="616.1368421052631" y="0.0" type="line"/>
      <point x="570.9894736842107" y="62.694736842105264"/>
      <point x="499.17894736842106" y="162.6736842105263"/>
      <point x="446.08421052631576" y="236.3684210526316" type="curve"/>
      <point x="335.99999999999994" y="399.4526315789474" type="line"/>
      <point x="336.35789473684207" y="344.5052631578947" type="line"/>
      <point x="491.36842105263156" y="486.8421052631579" type="line"/>
      <point x="575.2842105263156" y="560.7157894736841"/>
      <point x="659.3789473684209" y="634.357894736842"/>
      <point x="749.2421052631578" y="713.0" type="curve"/>
      <point x="579.2210526315789" y="713.0" type="line"/>
      <point x="506.0105263157895" y="642.0315789473685"/>
      <point x="455.7157894736842" y="591.5473684210526"/>
      <point x="398.7052631578947" y="535.2947368421053" type="curve"/>
      <point x="270.2736842105263" y="417.4842105263158" type="line"/>
      <point x="229.50526315789475" y="417.4842105263158" type="line"/>
      <point x="209.3684210526316" y="321.62105263157895" type="line"/>
      <point x="251.18947368421053" y="321.62105263157895" type="line"/>
      <point x="346.2105263157895" y="179.57894736842104" type="line"/>
      <point x="380.32631578947365" y="124.50526315789473"/>
      <point x="415.79999999999995" y="67.8421052631579"/>
    </contour>
    <contour>
      <point x="24.389473684210532" y="0.0" type="curve"/>
      <point x="162.37894736842105" y="0.0" type="line"/>
      <point x="175.50526315789472" y="77.30526315789473"/>
      <point x="186.45263157894735" y="143.07368421052635"/>
      <point x="201.9894736842105" y="234.30526315789473" type="curve"/>
      <point x="252.81052631578947" y="473.41052631578947" type="line"/>
      <point x="276.09473684210525" y="566.6947368421053"/>
      <point x="292.7368421052631" y="633.6421052631579"/>
      <point x="312.37894736842105" y="713.0" type="curve"/>
      <point x="174.38947368421054" y="713.0" type="line"/>
      <point x="160.85263157894738" y="634.8210526315789"/>
      <point x="149.31578947368422" y="566.5157894736843"/>
      <point x="133.3684210526316" y="473.41052631578947" type="curve"/>
      <point x="82.54736842105264" y="234.30526315789473" type="line"/>
      <point x="60.26315789473684" y="145.2526315789474"/>
      <point x="44.03157894736842" y="79.30526315789474"/>
    </contour>
  </outline>
</glyph>
<glyph name="L" format="2">
  <advance width="571.3368421052631"/>
  <unicode hex="004C"/>
  <anchor x="257.9684210526316" y="0.0" name="bottom"/>
  <anchor x="452.65263157894736" y="358.2315789473684" name="center"/>
  <anchor x="310.37894736842105" y="713.0" name="top"/>
  <anchor x="344.22105263157897" y="497.2842105263158" name="topright"/>
  <outline>
    <contour>
      <point x="24.389473684210532" y="0.0" type="curve"/>
      <point x="162.78947368421052" y="0.0" type="line"/>
      <point x="167.0736842105263" y="18.77894736842105" type="line"/>
      <point x="177.32631578947368" y="96.90526315789474"/>
      <point x="188.2736842105263" y="163.85263157894735"/>
      <point x="206.68421052631578" y="253.0842105263158" type="curve"/>
      <point x="253.22105263157894" y="473.41052631578947" type="line"/>
      <point x="276.5052631578947" y="566.6947368421053"/>
      <point x="293.1473684210526" y="633.6421052631579"/>
      <point x="312.7894736842105" y="713.0" type="curve"/>
      <point x="174.38947368421054" y="713.0" type="line"/>
      <point x="160.85263157894738" y="634.8210526315789"/>
      <point x="149.31578947368422" y="566.5157894736843"/>
      <point x="133.3684210526316" y="473.41052631578947" type="curve"/>
      <point x="82.54736842105264" y="234.30526315789473" type="line"/>
      <point x="60.26315789473684" y="145.2526315789474"/>
      <point x="44.03157894736842" y="79.30526315789474"/>
    </contour>
    <contour>
      <point x="136.54736842105265" y="0.0" type="line"/>
      <point x="486.6736842105263" y="0.0" type="line"/>
      <point x="511.32631578947365" y="117.92631578947369" type="line"/>
      <point x="435.1263157894736" y="114.05263157894738"/>
      <point x="371.1052631578947" y="111.0"/>
      <point x="260.83157894736837" y="105.30526315789474" type="curve"/>
      <point x="159.14736842105265" y="105.30526315789474" type="line"/>
    </contour>
  </outline>
</glyph>
<glyph name="M" format="2">
  <advance width="959.2105263157894"/>
  <unicode hex="004D"/>
  <anchor x="426.69473684210527" y="0.0" name="bottom"/>
  <anchor x="576.6947368421052" y="713.0" name="top"/>
  <outline>
    <contour>
      <point x="-1.4526315789473658" y="0.0" type="curve"/>
      <point x="131.96842105263158" y="0.0" type="line"/>
      <point x="165.01052631578946" y="112.62105263157893"/>
      <point x="196.8736842105263" y="220.2421052631579"/>
      <point x="223.78947368421052" y="311.8421052631579" type="curve"/>
      <point x="288.36842105263156" y="507.7052631578947" type="line"/>
      <point x="296.7052631578947" y="507.7052631578947" type="line"/>
      <point x="336.4631578947368" y="295.58947368421053" type="line"/>
      <point x="351.19999999999993" y="196.68421052631578"/>
      <point x="367.2947368421053" y="85.70526315789473"/>
      <point x="379.6736842105263" y="0.0" type="curve"/>
      <point x="478.82105263157894" y="0.0" type="line"/>
      <point x="528.5263157894736" y="88.24210526315788"/>
      <point x="588.0736842105262" y="194.68421052631578"/>
      <point x="645.6736842105263" y="296.7684210526316" type="curve"/>
      <point x="769.1052631578947" y="507.7052631578947" type="line"/>
      <point x="777.4421052631578" y="507.7052631578947" type="line"/>
      <point x="759.957894736842" y="311.8421052631579" type="line"/>
      <point x="747.5473684210526" y="219.4736842105263"/>
      <point x="734.1368421052632" y="115.38947368421053"/>
      <point x="719.1368421052631" y="0.0" type="curve"/>
      <point x="855.2526315789473" y="0.0" type="line"/>
      <point x="859.378947368421" y="77.71578947368421"/>
      <point x="862.9157894736842" y="147.89473684210526"/>
      <point x="867.0421052631579" y="234.30526315789473" type="curve"/>
      <point x="887.8105263157894" y="472.58947368421053" type="line"/>
      <point x="898.4526315789474" y="559.7684210526315"/>
      <point x="907.0947368421052" y="632.6421052631579"/>
      <point x="916.3263157894737" y="713.0" type="curve"/>
      <point x="775.1578947368421" y="713.0" type="line"/>
      <point x="721.042105263158" y="617.3473684210526"/>
      <point x="673.5157894736842" y="532.9263157894737"/>
      <point x="623.4" y="444.5052631578947" type="curve"/>
      <point x="469.4842105263158" y="187.18947368421053" type="line"/>
      <point x="460.9684210526316" y="187.18947368421053" type="line"/>
      <point x="413.4421052631579" y="444.5052631578947" type="line"/>
      <point x="400.2421052631579" y="532.3368421052631"/>
      <point x="387.4526315789474" y="618.578947368421"/>
      <point x="373.66315789473686" y="713.0" type="curve"/>
      <point x="236.77894736842106" y="713.0" type="line"/>
      <point x="212.83157894736843" y="632.6421052631579"/>
      <point x="190.65263157894736" y="558.0"/>
      <point x="165.29473684210527" y="472.58947368421053" type="curve"/>
      <point x="86.06315789473685" y="234.30526315789473" type="line"/>
      <point x="54.01052631578948" y="148.12631578947367"/>
      <point x="26.957894736842114" y="76.89473684210526"/>
    </contour>
  </outline>
</glyph>
<glyph name="N" format="2">
  <advance width="758.9473684210526"/>
  <unicode hex="004E"/>
  <anchor x="326.58947368421053" y="0.0" name="bottom"/>
  <anchor x="476.58947368421053" y="713.0" name="top"/>
  <outline>
    <contour>
      <point x="24.389473684210532" y="0.0" type="curve"/>
      <point x="155.81052631578947" y="0.0" type="line"/>
      <point x="168.93684210526314" y="77.30526315789473"/>
      <point x="179.88421052631577" y="143.07368421052635"/>
      <point x="195.42105263157893" y="234.30526315789473" type="curve"/>
      <point x="256.09473684210525" y="522.6526315789474" type="line"/>
      <point x="265.0210526315789" y="522.6526315789474" type="line"/>
      <point x="362.5894736842105" y="317.89473684210526" type="line"/>
      <point x="417.01052631578943" y="195.96842105263156"/>
      <point x="461.5368421052632" y="95.4736842105263"/>
      <point x="502.93684210526317" y="0.0" type="curve"/>
      <point x="627.9684210526317" y="0.0" type="line"/>
      <point x="641.0947368421052" y="77.30526315789473"/>
      <point x="652.0421052631579" y="143.07368421052635"/>
      <point x="667.578947368421" y="234.30526315789473" type="curve"/>
      <point x="718.4" y="473.41052631578947" type="line"/>
      <point x="741.6842105263158" y="566.6947368421053"/>
      <point x="758.3263157894737" y="633.6421052631579"/>
      <point x="777.9684210526316" y="713.0" type="curve"/>
      <point x="646.5473684210525" y="713.0" type="line"/>
      <point x="633.0105263157894" y="634.8210526315789"/>
      <point x="621.4736842105264" y="566.5157894736843"/>
      <point x="605.5263157894736" y="473.41052631578947" type="curve"/>
      <point x="545.6736842105263" y="192.70526315789473" type="line"/>
      <point x="536.3368421052631" y="192.70526315789473" type="line"/>
      <point x="440.58947368421053" y="395.8736842105263" type="line"/>
      <point x="397.2947368421053" y="495.1368421052631"/>
      <point x="352.58947368421053" y="598.0421052631579"/>
      <point x="303.2947368421053" y="713.0" type="curve"/>
      <point x="174.38947368421054" y="713.0" type="line"/>
      <point x="160.85263157894738" y="634.8210526315789"/>
      <point x="149.31578947368422" y="566.5157894736843"/>
      <point x="133.3684210526316" y="473.41052631578947" type="curve"/>
      <point x="82.54736842105264" y="234.30526315789473" type="line"/>
      <point x="60.26315789473684" y="145.2526315789474"/>
      <point x="44.03157894736842" y="79.30526315789474"/>
    </contour>
  </outline>
</glyph>
<glyph name="R" format="2">
  <advance width="683.0"/>
  <unicode hex="0052"/>
  <anchor x="289.551724137931" y="0.0" name="bottom"/>
  <anchor x="437.5862068965517" y="713.0" name="top"/>
  <outline>
    <contour>
      <point x="460.0344827586207" y="0.0" type="curve"/>
      <point x="612.7241379310345" y="0.0" type="line"/>
      <point x="579.8965517241379" y="56.0"/>
      <point x="530.8620689655171" y="139.68965517241378"/>
      <point x="492.0344827586207" y="205.48275862068965" type="curve"/>
      <point x="414.7586206896551" y="347.2758620689655" type="line"/>
      <point x="365.2413793103449" y="297.8965517241379" type="line"/>
      <point x="550.8965517241379" y="296.7931034482759"/>
      <point x="621.3448275862069" y="367.7931034482759"/>
      <point x="647.2413793103448" y="491.1724137931034" type="curve" smooth="yes"/>
      <point x="676.7241379310344" y="630.4827586206897"/>
      <point x="598.0689655172414" y="716.6896551724138"/>
      <point x="430.6206896551723" y="716.6896551724138" type="curve"/>
      <point x="330.03448275862064" y="715.7931034482759"/>
      <point x="243.86206896551727" y="713.8965517241379"/>
      <point x="174.6206896551724" y="713.0" type="curve"/>
      <point x="245.31034482758622" y="615.6551724137931" type="line"/>
      <point x="408.6896551724138" y="615.6551724137931" type="line" smooth="yes"/>
      <point x="473.06896551724134" y="615.6551724137931"/>
      <point x="543.8275862068966" y="592.3448275862069"/>
      <point x="522.7931034482759" y="492.58620689655174" type="curve" smooth="yes"/>
      <point x="502.0689655172414" y="395.9655172413793"/>
      <point x="453.10344827586204" y="370.7241379310345"/>
      <point x="347.10344827586204" y="370.7241379310345" type="curve" smooth="yes"/>
      <point x="207.20689655172416" y="370.7241379310345" type="line"/>
      <point x="186.7586206896552" y="273.48275862068965" type="line"/>
      <point x="357.13793103448273" y="273.48275862068965" type="line"/>
      <point x="296.6896551724138" y="338.2758620689655" type="line"/>
      <point x="384.6551724137931" y="163.86206896551724" type="line"/>
      <point x="408.5172413793103" y="112.03448275862068"/>
      <point x="433.2758620689656" y="59.31034482758621"/>
    </contour>
    <contour>
      <point x="24.620689655172413" y="0.0" type="curve"/>
      <point x="162.0344827586207" y="0.0" type="line"/>
      <point x="175.3448275862069" y="78.3103448275862"/>
      <point x="185.6551724137931" y="143.51724137931035"/>
      <point x="200.9655172413793" y="234.41379310344828" type="curve"/>
      <point x="248.27586206896552" y="456.7586206896552" type="line"/>
      <point x="270.86206896551727" y="547.448275862069"/>
      <point x="288.6551724137931" y="615.551724137931"/>
      <point x="308.44827586206895" y="694.7586206896551" type="curve"/>
      <point x="174.6206896551724" y="713.0" type="line"/>
      <point x="160.41379310344828" y="634.8965517241379"/>
      <point x="149.1034482758621" y="566.4827586206897"/>
      <point x="133.79310344827587" y="473.0" type="curve"/>
      <point x="82.89655172413794" y="234.41379310344828" type="line"/>
      <point x="60.310344827586206" y="145.6206896551724"/>
      <point x="44.41379310344828" y="79.41379310344827"/>
    </contour>
  </outline>
</glyph>
<glyph name="S" format="2">
  <advance width="592.0344827586207"/>
  <unicode hex="0053"/>
  <anchor x="246.3793103448276" y="0.0" name="bottom"/>
  <anchor x="396.3793103448276" y="713.0" name="top"/>
  <outline>
    <contour>
      <point x="272.4827586206896" y="-11.689655172413794" type="curve" smooth="yes"/>
      <point x="436.2068965517241" y="-11.689655172413794"/>
      <point x="514.896551724138" y="48.724137931034484"/>
      <point x="540.4827586206897" y="170.6551724137931" type="curve" smooth="yes"/>
      <point x="561.2758620689656" y="269.72413793103453"/>
      <point x="520.3793103448276" y="339.1034482758621"/>
      <point x="365.8620689655172" y="403.51724137931035" type="curve" smooth="yes"/>
      <point x="257.2413793103448" y="449.17241379310343"/>
      <point x="222.0" y="483.6896551724138"/>
      <point x="235.6206896551724" y="547.5862068965517" type="curve" smooth="yes"/>
      <point x="248.55172413793102" y="608.9310344827587"/>
      <point x="313.17241379310343" y="623.6551724137931"/>
      <point x="375.9655172413793" y="625.6551724137931" type="curve"/>
      <point x="396.27586206896547" y="625.6551724137931"/>
      <point x="486.96551724137936" y="595.6551724137931"/>
      <point x="571.448275862069" y="561.6551724137931" type="curve"/>
      <point x="603.0689655172413" y="671.0689655172414" type="line"/>
      <point x="535.7241379310344" y="690.1724137931035"/>
      <point x="417.86206896551727" y="726.7931034482758"/>
      <point x="366.1034482758621" y="726.7931034482758" type="curve" smooth="yes"/>
      <point x="216.17241379310346" y="726.7931034482758"/>
      <point x="134.9655172413793" y="667.4137931034483"/>
      <point x="112.27586206896551" y="558.0689655172413" type="curve" smooth="yes"/>
      <point x="88.37931034482757" y="444.7931034482759"/>
      <point x="147.17241379310346" y="376.6551724137931"/>
      <point x="278.82758620689657" y="321.82758620689657" type="curve" smooth="yes"/>
      <point x="377.4137931034483" y="280.6896551724138"/>
      <point x="430.75862068965523" y="245.44827586206898"/>
      <point x="417.1379310344828" y="179.3448275862069" type="curve" smooth="yes"/>
      <point x="402.00000000000006" y="104.37931034482759"/>
      <point x="339.0689655172414" y="90.55172413793103"/>
      <point x="273.4827586206896" y="88.55172413793103" type="curve"/>
      <point x="235.93103448275863" y="88.55172413793103"/>
      <point x="145.1724137931035" y="121.55172413793105"/>
      <point x="49.58620689655172" y="162.7586206896552" type="curve"/>
      <point x="16.96551724137931" y="54.13793103448276" type="line"/>
      <point x="109.13793103448278" y="21.620689655172413"/>
      <point x="219.58620689655174" y="-11.689655172413794"/>
    </contour>
  </outline>
</glyph>
<glyph name="T" format="2">
  <advance width="642.7473684210527"/>
  <unicode hex="0054"/>
  <anchor x="270.46315789473687" y="0.0" name="bottom"/>
  <anchor x="340.1263157894737" y="333.1894736842105" name="center"/>
  <anchor x="420.46315789473687" y="713.0" name="top"/>
  <outline>
    <contour>
      <point x="201.1473684210526" y="0.0" type="curve"/>
      <point x="339.1368421052632" y="0.0" type="line"/>
      <point x="352.2631578947369" y="77.30526315789473"/>
      <point x="363.2105263157895" y="143.07368421052635"/>
      <point x="378.74736842105267" y="234.30526315789473" type="curve"/>
      <point x="426.2842105263158" y="456.4" type="line"/>
      <point x="446.2842105263158" y="548.4526315789474"/>
      <point x="463.7473684210526" y="615.4526315789474"/>
      <point x="486.2631578947369" y="694.8105263157895" type="curve"/>
      <point x="489.5473684210527" y="713.0" type="line"/>
      <point x="351.55789473684206" y="713.0" type="line"/>
      <point x="347.6842105263157" y="694.8105263157895" type="line"/>
      <point x="337.0210526315789" y="615.4526315789474"/>
      <point x="325.6631578947368" y="547.8631578947369"/>
      <point x="306.84210526315786" y="456.4" type="curve"/>
      <point x="259.30526315789473" y="234.30526315789473" type="line"/>
      <point x="237.02105263157893" y="145.2526315789474"/>
      <point x="220.7894736842105" y="79.30526315789474"/>
    </contour>
    <contour>
      <point x="102.77894736842106" y="595.0736842105264" type="line"/>
      <point x="158.08421052631581" y="598.5368421052632"/>
      <point x="217.62105263157895" y="603.0"/>
      <point x="296.05263157894734" y="607.6947368421053" type="curve"/>
      <point x="358.12631578947367" y="607.6947368421053" type="line"/>
      <point x="380.3157894736842" y="713.0" type="line"/>
      <point x="127.43157894736842" y="713.0" type="line"/>
    </contour>
    <contour>
      <point x="437.4210526315789" y="607.6947368421053" type="line"/>
      <point x="499.4947368421052" y="607.6947368421053" type="line"/>
      <point x="578.3368421052631" y="602.5894736842105"/>
      <point x="635.0" y="598.5368421052632"/>
      <point x="687.8421052631579" y="595.0736842105264" type="curve"/>
      <point x="712.4947368421052" y="713.0" type="line"/>
      <point x="459.61052631578946" y="713.0" type="line"/>
    </contour>
  </outline>
</glyph>
<glyph name="V" format="2">
  <advance width="697.5578947368421"/>
  <unicode hex="0056"/>
  <anchor x="297.36842105263156" y="0.0" name="bottom"/>
  <anchor x="447.36842105263156" y="713.0" name="top"/>
  <outline>
    <contour>
      <point x="208.50526315789472" y="0.0" type="curve"/>
      <point x="387.7157894736842" y="0.0" type="line"/>
      <point x="423.9684210526316" y="70.76842105263158"/>
      <point x="468.9894736842105" y="159.12631578947372"/>
      <point x="503.2947368421053" y="226.58947368421053" type="curve"/>
      <point x="625.6210526315789" y="450.0" type="line"/>
      <point x="671.3894736842105" y="527.0"/>
      <point x="729.7473684210527" y="625.5894736842105"/>
      <point x="781.5157894736841" y="713.0" type="curve"/>
      <point x="622.1578947368421" y="713.0" type="line"/>
      <point x="574.2210526315788" y="614.3684210526317"/>
      <point x="519.5684210526316" y="502.2"/>
      <point x="471.6315789473684" y="403.15789473684214" type="curve"/>
      <point x="325.61052631578946" y="122.62105263157895" type="line"/>
      <point x="315.5052631578947" y="122.62105263157895" type="line"/>
      <point x="284.4210526315789" y="401.5684210526316" type="line"/>
      <point x="275.5052631578947" y="499.7894736842105"/>
      <point x="264.82105263157894" y="614.3684210526316"/>
      <point x="255.90526315789472" y="713.0" type="curve"/>
      <point x="112.22105263157896" y="713.0" type="line"/>
      <point x="127.57894736842107" y="627.0"/>
      <point x="145.52631578947367" y="525.2315789473685"/>
      <point x="158.88421052631577" y="449.41052631578947" type="curve"/>
      <point x="187.56842105263158" y="226.58947368421053" type="line"/>
      <point x="194.2315789473684" y="158.58947368421053"/>
      <point x="202.25263157894736" y="71.82105263157894"/>
    </contour>
  </outline>
</glyph>
<glyph name="W" format="2">
  <advance width="1028.5578947368422"/>
  <unicode hex="0057"/>
  <anchor x="460.13684210526316" y="0.0" name="bottom"/>
  <anchor x="610.1368421052631" y="713.0" name="top"/>
  <outline>
    <contour>
      <point x="163.38947368421054" y="0.0" type="curve"/>
      <point x="325.4315789473684" y="0.0" type="line"/>
      <point x="363.83157894736837" y="89.47368421052632"/>
      <point x="409.3578947368421" y="197.4315789473684"/>
      <point x="447.34736842105264" y="285.2631578947368" type="curve"/>
      <point x="566.1157894736842" y="543.0947368421052" type="line"/>
      <point x="576.2210526315789" y="543.0947368421052" type="line"/>
      <point x="588.8526315789474" y="285.2631578947368" type="line"/>
      <point x="590.6947368421053" y="195.78947368421052"/>
      <point x="593.3052631578947" y="89.47368421052632"/>
      <point x="595.7368421052631" y="0.0" type="curve"/>
      <point x="763.2947368421053" y="0.0" type="line"/>
      <point x="793.8315789473685" y="66.99999999999999"/>
      <point x="832.5473684210526" y="152.58947368421053"/>
      <point x="865.6736842105263" y="225.58947368421053" type="curve"/>
      <point x="975.3368421052631" y="450.0" type="line"/>
      <point x="1017.1052631578947" y="527.9473684210526"/>
      <point x="1069.3368421052633" y="627.0"/>
      <point x="1115.3368421052635" y="713.0" type="curve"/>
      <point x="958.0315789473684" y="713.0" type="line"/>
      <point x="917.4526315789474" y="618.6526315789474"/>
      <point x="870.1578947368421" y="506.82105263157894"/>
      <point x="829.7578947368421" y="412.42105263157896" type="curve"/>
      <point x="707.2210526315789" y="141.68421052631578" type="line"/>
      <point x="697.1157894736842" y="141.68421052631578" type="line"/>
      <point x="686.9473684210526" y="411.6" type="line"/>
      <point x="685.3368421052631" y="508.5368421052632"/>
      <point x="683.9578947368421" y="617.063157894737"/>
      <point x="682.3473684210527" y="713.0" type="curve"/>
      <point x="534.978947368421" y="713.0" type="line"/>
      <point x="494.3473684210526" y="618.4210526315788"/>
      <point x="446.00000000000006" y="505.17894736842106"/>
      <point x="406.9578947368421" y="413.0105263157895" type="curve"/>
      <point x="284.7263157894737" y="141.68421052631578" type="line"/>
      <point x="274.62105263157895" y="141.68421052631578" type="line"/>
      <point x="265.14736842105265" y="407.4736842105263" type="line"/>
      <point x="264.178947368421" y="503.82105263157894"/>
      <point x="263.4421052631578" y="617.063157894737"/>
      <point x="262.47368421052636" y="713.0" type="curve"/>
      <point x="110.4" y="713.0" type="line"/>
      <point x="119.81052631578947" y="628.5894736842105"/>
      <point x="132.22105263157894" y="526.8210526315789"/>
      <point x="141.22105263157897" y="447.05263157894734" type="curve"/>
      <point x="156.06315789473686" y="225.0" type="line"/>
      <point x="158.77894736842103" y="154.0"/>
      <point x="161.67368421052632" y="71.41052631578948"/>
    </contour>
  </outline>
</glyph>
<glyph name="X" format="2">
  <advance width="699.6421052631579"/>
  <unicode hex="0058"/>
  <outline>
    <contour>
      <point x="-27.652631578947368" y="0.0" type="curve"/>
      <point x="138.29473684210524" y="0.0" type="line"/>
      <point x="180.0" y="57.09473684210527"/>
      <point x="215.63157894736844" y="107.34736842105264"/>
      <point x="254.56842105263155" y="160.44210526315788" type="curve"/>
      <point x="349.2631578947368" y="282.4526315789474" type="line"/>
      <point x="359.36842105263156" y="282.4526315789474" type="line"/>
      <point x="409.6842105263157" y="161.03157894736842" type="line"/>
      <point x="428.3684210526316" y="112.29473684210527"/>
      <point x="447.6421052631578" y="59.32631578947369"/>
      <point x="468.86315789473684" y="0.0" type="curve"/>
      <point x="623.7052631578947" y="0.0" type="line"/>
      <point x="585.8105263157894" y="76.0"/>
      <point x="551.5052631578947" y="143.41052631578947"/>
      <point x="513.6105263157895" y="219.41052631578947" type="curve"/>
      <point x="445.56842105263155" y="375.2315789473684" type="line"/>
      <point x="438.28421052631575" y="340.57894736842104" type="line"/>
      <point x="571.7894736842105" y="506.37894736842105" type="line"/>
      <point x="622.3263157894737" y="564.1999999999999"/>
      <point x="683.8631578947368" y="634.6631578947369"/>
      <point x="751.8631578947367" y="713.0" type="curve"/>
      <point x="584.9157894736843" y="713.0" type="line"/>
      <point x="542.1578947368421" y="653.2105263157896"/>
      <point x="498.4526315789473" y="592.4736842105264"/>
      <point x="459.8736842105263" y="540.5052631578948" type="curve"/>
      <point x="380.61052631578946" y="438.33684210526314" type="line"/>
      <point x="370.5052631578947" y="438.33684210526314" type="line"/>
      <point x="330.6210526315789" y="539.3263157894737" type="line"/>
      <point x="312.52631578947364" y="590.4736842105262"/>
      <point x="292.4842105263158" y="651.0315789473683"/>
      <point x="272.0315789473684" y="713.0" type="curve"/>
      <point x="121.70526315789473" y="713.0" type="line"/>
      <point x="160.18947368421053" y="631.357894736842"/>
      <point x="190.49473684210525" y="564.3578947368421"/>
      <point x="221.79999999999998" y="497.53684210526313" type="curve"/>
      <point x="282.2526315789474" y="350.89473684210526" type="line"/>
      <point x="289.3578947368421" y="383.4947368421052" type="line"/>
      <point x="147.7263157894737" y="205.56842105263158" type="line"/>
      <point x="85.42105263157896" y="132.92631578947368"/>
      <point x="30.1157894736842" y="68.10526315789475"/>
    </contour>
  </outline>
</glyph>
<glyph name="Z" format="2">
  <advance width="677.4736842105264"/>
  <unicode hex="005A"/>
  <anchor x="286.62105263157895" y="0.0" name="bottom"/>
  <anchor x="361.62105263157895" y="357.0" name="center"/>
  <anchor x="436.62105263157895" y="713.0" name="top"/>
  <outline>
    <contour>
      <point x="-7.673684210526316" y="0.0" type="line"/>
      <point x="577.378947368421" y="0.0" type="line"/>
      <point x="601.8000000000001" y="114.41052631578947" type="line"/>
      <point x="523.4736842105262" y="110.94736842105263"/>
      <point x="399.76842105263154" y="105.25263157894736"/>
      <point x="313.6736842105263" y="100.78947368421052" type="curve"/>
      <point x="136.76842105263157" y="100.78947368421052" type="line"/>
      <point x="151.2315789473684" y="56.72631578947368" type="line"/>
      <point x="490.65263157894736" y="406.86315789473684" type="line"/>
      <point x="562.7473684210527" y="478.4947368421053"/>
      <point x="634.4315789473684" y="550.7157894736841"/>
      <point x="703.0105263157894" y="619.242105263158" type="curve"/>
      <point x="722.7368421052631" y="713.0" type="line"/>
      <point x="151.2" y="713.0" type="line"/>
      <point x="127.36842105263156" y="597.5368421052632" type="line"/>
      <point x="225.2315789473684" y="602.642105263158"/>
      <point x="316.5052631578948" y="607.9263157894737"/>
      <point x="397.42105263157896" y="612.2105263157895" type="curve"/>
      <point x="591.6842105263157" y="612.2105263157895" type="line"/>
      <point x="568.6842105263157" y="651.5578947368421" type="line"/>
      <point x="244.58947368421053" y="314.2842105263158" type="line"/>
      <point x="170.85263157894735" y="241.01052631578946"/>
      <point x="69.81052631578947" y="140.2526315789474"/>
      <point x="9.589473684210526" y="80.0842105263158" type="curve"/>
    </contour>
  </outline>
</glyph>
<glyph name="bracketleft" format="2">
  <advance width="386.0526315789474"/>
  <unicode hex="005B"/>
  <outline>
    <contour>
      <point x="3.210526315789477" y="-119.38947368421053" type="curve"/>
      <point x="120.90526315789475" y="-119.38947368421053" type="line"/>
      <point x="124.18947368421054" y="-101.2" type="line"/>
      <point x="137.7263157894737" y="-23.073684210526313"/>
      <point x="148.85263157894738" y="45.05263157894737"/>
      <point x="163.8" y="133.69473684210527" type="curve"/>
      <point x="243.74736842105264" y="512.8421052631579" type="line"/>
      <point x="266.0315789473685" y="603.1263157894737"/>
      <point x="283.67368421052635" y="671.8947368421053"/>
      <point x="303.3157894736843" y="751.2526315789473" type="curve"/>
      <point x="307.6" y="769.4421052631579" type="line"/>
      <point x="189.90526315789475" y="769.4421052631579" type="line"/>
      <point x="175.54736842105265" y="689.2631578947369"/>
      <point x="163.0105263157895" y="622.5473684210526"/>
      <point x="147.6526315789474" y="531.0315789473684" type="curve"/>
      <point x="60.13684210526316" y="114.91578947368421" type="line"/>
      <point x="38.08421052631579" y="26.273684210526316"/>
      <point x="22.03157894736842" y="-42.08421052631579"/>
    </contour>
    <contour>
      <point x="97.1263157894737" y="-119.38947368421053" type="line"/>
      <point x="290.20000000000005" y="-119.38947368421053" type="line"/>
      <point x="309.7473684210526" y="-24.757894736842104" type="line"/>
      <point x="262.3894736842105" y="-26.399999999999995"/>
      <point x="213.08421052631576" y="-28.631578947368418"/>
      <point x="154.90526315789472" y="-30.684210526315788" type="curve"/>
      <point x="115.44210526315791" y="-30.684210526315788" type="line"/>
    </contour>
    <contour>
      <point x="258.52631578947364" y="680.7368421052631" type="line"/>
      <point x="297.86315789473684" y="680.7368421052631" type="line"/>
      <point x="364.9894736842105" y="678.6842105263157"/>
      <point x="411.93684210526317" y="676.4526315789474"/>
      <point x="455.29473684210524" y="674.8105263157894" type="curve"/>
      <point x="475.4315789473684" y="769.4421052631579" type="line"/>
      <point x="277.25263157894733" y="769.4421052631579" type="line"/>
    </contour>
  </outline>
</glyph>
<glyph name="backslash" format="2">
  <advance width="457.29473684210524"/>
  <unicode hex="005C"/>
  <outline>
    <contour>
      <point x="269.89473684210526" y="0.0" type="curve"/>
      <point x="387.0" y="0.0" type="line"/>
      <point x="368.00000000000006" y="74.6421052631579"/>
      <point x="351.99999999999994" y="137.23157894736843"/>
      <point x="328.82105263157894" y="228.0" type="curve"/>
      <point x="276.4421052631579" y="475.41052631578947" type="line"/>
      <point x="259.6" y="570.5894736842104"/>
      <point x="248.11578947368423" y="636.7684210526314"/>
      <point x="234.63157894736844" y="713.0" type="curve"/>
      <point x="118.34736842105264" y="713.0" type="line"/>
      <point x="137.93684210526317" y="633.7684210526315"/>
      <point x="154.1157894736842" y="568.0000000000001"/>
      <point x="177.29473684210527" y="474.58947368421053" type="curve"/>
      <point x="229.26315789473685" y="228.0" type="line"/>
      <point x="245.51578947368418" y="136.0"/>
      <point x="256.82105263157894" y="74.0"/>
    </contour>
  </outline>
</glyph>
<glyph name="asciicircum" format="2">
  <advance width="617.9157894736842"/>
  <unicode hex="005E"/>
  <outline>
    <contour>
      <point x="496.65263157894736" y="371.42105263157896" type="curve"/>
      <point x="589.5368421052631" y="372.8315789473684" type="line"/>
      <point x="548.5157894736842" y="477.63157894736844"/>
      <point x="508.0842105263158" y="581.6631578947367"/>
      <point x="467.06315789473683" y="686.4631578947368" type="curve"/>
      <point x="315.3052631578947" y="686.4631578947368" type="line"/>
      <point x="237.51578947368418" y="582.6631578947369"/>
      <point x="159.31578947368422" y="478.6315789473684"/>
      <point x="81.52631578947368" y="374.8315789473684" type="curve"/>
      <point x="186.97894736842105" y="374.8315789473684" type="line"/>
      <point x="250.78947368421055" y="448.10526315789474"/>
      <point x="313.5473684210527" y="519.9157894736841"/>
      <point x="377.3578947368421" y="593.1894736842105" type="curve"/>
      <point x="387.0526315789474" y="593.1894736842105" type="line"/>
      <point x="423.2526315789474" y="519.7368421052632"/>
      <point x="460.4526315789474" y="444.87368421052633"/>
    </contour>
  </outline>
</glyph>
<glyph name="underscore" format="2">
  <advance width="412.8421052631579"/>
  <unicode hex="005F"/>
  <outline>
    <contour>
      <point x="-92.49473684210525" y="-141.7263157894737" type="line"/>
      <point x="-27.515789473684208" y="-139.90526315789475"/>
      <point x="44.17894736842105" y="-138.0842105263158"/>
      <point x="88.62105263157895" y="-137.26315789473685" type="curve"/>
      <point x="162.05263157894737" y="-137.26315789473685" type="line"/>
      <point x="205.6736842105263" y="-138.0842105263158"/>
      <point x="275.36842105263156" y="-139.90526315789475"/>
      <point x="340.34736842105264" y="-141.7263157894737" type="curve"/>
      <point x="361.30526315789473" y="-43.22105263157894" type="line"/>
      <point x="295.9157894736842" y="-45.04210526315789"/>
      <point x="224.2210526315789" y="-46.86315789473684"/>
      <point x="180.18947368421053" y="-47.68421052631579" type="curve"/>
      <point x="106.7578947368421" y="-47.68421052631579" type="line"/>
      <point x="62.726315789473674" y="-46.86315789473684"/>
      <point x="-6.968421052631578" y="-45.04210526315789"/>
      <point x="-71.53684210526316" y="-43.22105263157894" type="curve"/>
    </contour>
  </outline>
</glyph>
<glyph name="b" format="2">
  <advance width="593.2842105263157"/>
  <unicode hex="0062"/>
  <outline>
    <contour>
      <point x="309.9684210526316" y="-11.873684210526315" type="curve" smooth="yes"/>
      <point x="429.5052631578948" y="-11.873684210526315"/>
      <point x="513.7578947368421" y="82.15789473684211"/>
      <point x="543.7578947368421" y="224.92631578947368" type="curve" smooth="yes"/>
      <point x="575.1684210526315" y="375.7473684210526"/>
      <point x="521.378947368421" y="509.7473684210526"/>
      <point x="377.82105263157894" y="509.7473684210526" type="curve" smooth="yes"/>
      <point x="340.9789473684211" y="509.7473684210526"/>
      <point x="277.1684210526315" y="473.36842105263156"/>
      <point x="237.70526315789473" y="442.08421052631576" type="curve"/>
      <point x="227.6" y="442.08421052631576" type="line"/>
      <point x="238.13684210526316" y="493.58947368421053" type="line"/>
      <point x="261.2421052631579" y="583.1052631578947"/>
      <point x="282.11578947368423" y="664.9789473684211"/>
      <point x="303.75789473684216" y="744.9263157894737" type="curve"/>
      <point x="162.00000000000003" y="730.2315789473685" type="line"/>
      <point x="152.10526315789474" y="653.7157894736843"/>
      <point x="141.21052631578948" y="576.1263157894737"/>
      <point x="129.31578947368422" y="493.58947368421053" type="curve"/>
      <point x="70.90526315789474" y="217.7157894736842" type="line"/>
      <point x="49.4421052631579" y="135.4842105263158"/>
      <point x="34.21052631578948" y="72.53684210526316"/>
      <point x="15.568421052631587" y="0.0" type="curve"/>
      <point x="110.66315789473684" y="0.0" type="line"/>
      <point x="139.0526315789474" y="72.3263157894737" type="line"/>
      <point x="147.9263157894737" y="72.3263157894737" type="line"/>
      <point x="197.74736842105264" y="26.147368421052633"/>
      <point x="263.12631578947367" y="-11.873684210526315"/>
    </contour>
    <contour>
      <point x="281.64210526315793" y="84.16842105263159" type="curve"/>
      <point x="248.9578947368421" y="86.57894736842105"/>
      <point x="197.4631578947368" y="113.03157894736843"/>
      <point x="165.70526315789473" y="150.50526315789475" type="curve"/>
      <point x="207.97894736842105" y="349.8" type="line"/>
      <point x="244.91578947368419" y="385.43157894736845"/>
      <point x="302.94736842105266" y="412.7052631578947"/>
      <point x="328.3789473684211" y="414.9368421052631" type="curve"/>
      <point x="420.68421052631584" y="411.9368421052631"/>
      <point x="453.3157894736843" y="329.2105263157895"/>
      <point x="433.52631578947376" y="233.85263157894738" type="curve" smooth="yes"/>
      <point x="415.68421052631584" y="148.41052631578947"/>
      <point x="366.9263157894737" y="87.57894736842105"/>
    </contour>
  </outline>
</glyph>
<glyph name="c" format="2">
  <advance width="490.5052631578947"/>
  <unicode hex="0063"/>
  <anchor x="231.02105263157893" y="0.0" name="bottom"/>
  <anchor x="330.53684210526313" y="497.2842105263158" name="top"/>
  <outline>
    <contour>
      <point x="282.33684210526314" y="-10.642105263157895" type="curve" smooth="yes"/>
      <point x="314.64210526315793" y="-10.642105263157895"/>
      <point x="375.17894736842106" y="6.252631578947368"/>
      <point x="402.17894736842106" y="16.02105263157895" type="curve"/>
      <point x="414.90526315789475" y="116.18947368421053" type="line"/>
      <point x="380.7789473684211" y="100.47368421052632"/>
      <point x="321.6526315789474" y="82.29473684210527"/>
      <point x="301.22105263157897" y="81.70526315789473" type="curve" smooth="yes"/>
      <point x="195.01052631578946" y="83.70526315789473"/>
      <point x="133.5578947368421" y="150.89473684210526"/>
      <point x="158.57894736842104" y="266.58947368421053" type="curve" smooth="yes"/>
      <point x="179.6" y="361.8736842105263"/>
      <point x="244.73684210526315" y="409.93684210526317"/>
      <point x="327.5894736842105" y="414.93684210526317" type="curve"/>
      <point x="342.3052631578948" y="414.93684210526317"/>
      <point x="406.4315789473684" y="395.1684210526316"/>
      <point x="465.91578947368424" y="370.6315789473684" type="curve"/>
      <point x="494.15789473684214" y="467.8526315789474" type="line"/>
      <point x="444.7157894736842" y="484.4947368421053"/>
      <point x="358.71578947368425" y="509.33684210526314"/>
      <point x="327.76842105263154" y="509.33684210526314" type="curve" smooth="yes"/>
      <point x="180.52631578947367" y="509.33684210526314"/>
      <point x="77.57894736842105" y="415.56842105263155"/>
      <point x="48.757894736842104" y="277.5157894736842" type="curve" smooth="yes"/>
      <point x="13.294736842105259" y="106.48421052631579"/>
      <point x="108.2" y="-10.642105263157895"/>
    </contour>
  </outline>
</glyph>
<glyph name="d" format="2">
  <advance width="581.0315789473685"/>
  <unicode hex="0064"/>
  <anchor x="260.15789473684214" y="0.0" name="bottom"/>
  <anchor x="291.87368421052633" y="248.6421052631579" name="center"/>
  <anchor x="412.9789473684211" y="727.1052631578947" name="top"/>
  <anchor x="610.5473684210527" y="497.2842105263158" name="topright"/>
  <outline>
    <contour>
      <point x="215.87368421052633" y="-11.873684210526315" type="curve" smooth="yes"/>
      <point x="256.76842105263165" y="-11.873684210526315"/>
      <point x="321.14736842105265" y="22.200000000000003"/>
      <point x="371.021052631579" y="67.91578947368421" type="curve"/>
      <point x="379.89473684210526" y="67.91578947368421" type="line"/>
      <point x="369.69473684210527" y="0.0" type="line"/>
      <point x="471.1263157894736" y="0.0" type="line"/>
      <point x="483.6631578947368" y="72.53684210526316"/>
      <point x="494.2" y="135.4842105263158"/>
      <point x="508.1473684210526" y="217.7157894736842" type="curve"/>
      <point x="566.5578947368421" y="493.58947368421053" type="line"/>
      <point x="589.6631578947369" y="583.1052631578947"/>
      <point x="610.5368421052631" y="664.9789473684211"/>
      <point x="632.1789473684211" y="744.9263157894737" type="curve"/>
      <point x="490.42105263157896" y="730.2315789473685" type="line"/>
      <point x="480.5263157894737" y="653.7157894736843"/>
      <point x="469.63157894736844" y="576.1263157894737"/>
      <point x="457.7368421052632" y="493.58947368421053" type="curve"/>
      <point x="446.61052631578946" y="438.54736842105257" type="line"/>
      <point x="436.5052631578947" y="438.54736842105257" type="line"/>
      <point x="394.5052631578947" y="474.36842105263156"/>
      <point x="328.87368421052633" y="509.7473684210526"/>
      <point x="283.7263157894737" y="509.7473684210526" type="curve" smooth="yes"/>
      <point x="164.18947368421053" y="509.7473684210526"/>
      <point x="79.93684210526315" y="415.7157894736842"/>
      <point x="49.93684210526315" y="272.9473684210526" type="curve" smooth="yes"/>
      <point x="18.52631578947368" y="122.1263157894737"/>
      <point x="72.3157894736842" y="-11.873684210526315"/>
    </contour>
    <contour>
      <point x="265.3157894736842" y="82.93684210526317" type="curve"/>
      <point x="173.01052631578946" y="85.34736842105264"/>
      <point x="139.78947368421052" y="169.25263157894736"/>
      <point x="160.16842105263157" y="264.0210526315789" type="curve" smooth="yes"/>
      <point x="178.6" y="350.6421052631579"/>
      <point x="226.76842105263157" y="410.29473684210524"/>
      <point x="312.05263157894734" y="413.7052631578947" type="curve"/>
      <point x="346.5052631578947" y="411.88421052631577"/>
      <point x="396.23157894736846" y="385.4315789473684"/>
      <point x="428.57894736842104" y="357.9789473684211" type="curve"/>
      <point x="387.4842105263158" y="161.0421052631579" type="line"/>
      <point x="354.0842105263158" y="119.51578947368422"/>
      <point x="303.12631578947367" y="85.7578947368421"/>
    </contour>
  </outline>
</glyph>
<glyph name="e" format="2">
  <advance width="527.1034482758621"/>
  <unicode hex="0065"/>
  <anchor x="230.72413793103448" y="0.0" name="bottom"/>
  <anchor x="347.62068965517244" y="0.0" name="ogonek"/>
  <anchor x="329.2068965517241" y="497.58620689655174" name="top"/>
  <outline>
    <contour>
      <point x="277.2758620689655" y="-11.689655172413794" type="curve" smooth="yes"/>
      <point x="314.96551724137936" y="-11.689655172413794"/>
      <point x="382.75862068965523" y="2.517241379310346"/>
      <point x="431.55172413793105" y="18.51724137931034" type="curve"/>
      <point x="446.41379310344826" y="117.68965517241377" type="line"/>
      <point x="382.4137931034483" y="94.37931034482759"/>
      <point x="321.1034482758621" y="80.37931034482759"/>
      <point x="298.7931034482759" y="80.37931034482759" type="curve" smooth="yes"/>
      <point x="190.3793103448276" y="80.37931034482759"/>
      <point x="130.44827586206895" y="143.0"/>
      <point x="153.17241379310343" y="254.10344827586206" type="curve"/>
      <point x="156.75862068965517" y="270.55172413793105" type="line"/>
      <point x="180.58620689655172" y="371.82758620689657"/>
      <point x="243.6896551724138" y="420.48275862068965"/>
      <point x="310.7241379310345" y="423.48275862068965" type="curve"/>
      <point x="379.86206896551727" y="420.48275862068965"/>
      <point x="411.13793103448273" y="366.9310344827586"/>
      <point x="395.41379310344826" y="295.68965517241384" type="curve" smooth="yes"/>
      <point x="393.41379310344826" y="286.58620689655174"/>
      <point x="390.41379310344826" y="276.48275862068965"/>
      <point x="387.41379310344826" y="267.48275862068965" type="curve"/>
      <point x="476.7586206896552" y="228.93103448275863" type="line"/>
      <point x="482.6551724137931" y="245.6206896551724"/>
      <point x="488.7586206896552" y="265.82758620689657"/>
      <point x="493.55172413793105" y="285.31034482758616" type="curve" smooth="yes"/>
      <point x="525.5172413793103" y="414.6551724137931"/>
      <point x="457.0689655172414" y="509.27586206896547"/>
      <point x="309.13793103448273" y="509.27586206896547" type="curve" smooth="yes"/>
      <point x="175.48275862068965" y="509.27586206896547"/>
      <point x="77.06896551724138" y="415.6896551724138"/>
      <point x="47.06896551724138" y="271.8965517241379" type="curve" smooth="yes"/>
      <point x="11.06896551724138" y="99.62068965517241"/>
      <point x="105.03448275862068" y="-11.689655172413794"/>
    </contour>
    <contour>
      <point x="81.06896551724138" y="228.93103448275863" type="line"/>
      <point x="476.7586206896552" y="228.93103448275863" type="line"/>
      <point x="487.2413793103448" y="280.55172413793105" type="line"/>
      <point x="424.10344827586204" y="309.1379310344828" type="line"/>
      <point x="91.55172413793103" y="304.6551724137931" type="line"/>
    </contour>
  </outline>
</glyph>
<glyph name="g" format="2">
  <advance width="546.7586206896551"/>
  <unicode hex="0067"/>
  <anchor x="198.2068965517241" y="-192.0" name="bottom"/>
  <anchor x="311.7586206896552" y="497.58620689655174" name="top"/>
  <outline>
    <contour>
      <point x="178.17241379310346" y="-202.79310344827587" type="curve" smooth="yes"/>
      <point x="296.1379310344828" y="-202.79310344827587"/>
      <point x="419.0" y="-159.58620689655172"/>
      <point x="441.5862068965517" y="-52.6551724137931" type="curve" smooth="yes"/>
      <point x="460.17241379310343" y="36.17241379310345"/>
      <point x="401.0" y="92.65517241379311"/>
      <point x="271.17241379310343" y="92.65517241379311" type="curve" smooth="yes"/>
      <point x="227.41379310344828" y="92.65517241379311" type="line" smooth="yes"/>
      <point x="187.44827586206898" y="92.65517241379311"/>
      <point x="159.0" y="102.3448275862069"/>
      <point x="163.20689655172413" y="124.17241379310346" type="curve" smooth="yes"/>
      <point x="166.72413793103448" y="143.0344827586207"/>
      <point x="203.82758620689657" y="154.93103448275863"/>
      <point x="269.2068965517241" y="163.34482758620692" type="curve" smooth="yes"/>
      <point x="361.0344827586207" y="175.55172413793102"/>
      <point x="445.6896551724138" y="212.86206896551727"/>
      <point x="465.6896551724138" y="319.2068965517241" type="curve" smooth="yes"/>
      <point x="475.8965517241379" y="373.6206896551724"/>
      <point x="459.7931034482758" y="421.55172413793105"/>
      <point x="410.2413793103448" y="460.7586206896552" type="curve"/>
      <point x="380.31034482758616" y="430.551724137931" type="line"/>
      <point x="440.0344827586207" y="428.4482758620689"/>
      <point x="498.9655172413793" y="422.8620689655172"/>
      <point x="560.6896551724138" y="410.0" type="curve"/>
      <point x="579.3448275862069" y="498.48275862068965" type="line"/>
      <point x="413.8965517241379" y="498.48275862068965" type="line" smooth="yes"/>
      <point x="357.13793103448273" y="498.48275862068965"/>
      <point x="334.55172413793105" y="509.37931034482756"/>
      <point x="268.9310344827586" y="509.37931034482756" type="curve" smooth="yes"/>
      <point x="158.0" y="509.37931034482756"/>
      <point x="85.17241379310346" y="455.51724137931035"/>
      <point x="66.96551724137932" y="366.6896551724138" type="curve" smooth="yes"/>
      <point x="51.758620689655174" y="292.96551724137925"/>
      <point x="101.72413793103446" y="239.13793103448273"/>
      <point x="152.27586206896552" y="196.79310344827584" type="curve"/>
      <point x="152.27586206896552" y="188.20689655172416" type="line"/>
      <point x="107.55172413793105" y="175.51724137931038"/>
      <point x="70.3793103448276" y="155.31034482758622"/>
      <point x="61.37931034482759" y="113.72413793103449" type="curve" smooth="yes"/>
      <point x="51.37931034482759" y="66.93103448275862"/>
      <point x="84.27586206896552" y="41.13793103448276"/>
      <point x="96.6896551724138" y="33.24137931034483" type="curve"/>
      <point x="96.6896551724138" y="25.655172413793103" type="line"/>
      <point x="41.793103448275865" y="-0.6206896551724128"/>
      <point x="-8.551724137931037" y="-29.758620689655174"/>
      <point x="-16.655172413793103" y="-66.58620689655172" type="curve" smooth="yes"/>
      <point x="-36.55172413793103" y="-160.86206896551724"/>
      <point x="68.58620689655174" y="-202.79310344827587"/>
    </contour>
    <contour>
      <point x="191.6206896551724" y="-118.79310344827587" type="curve"/>
      <point x="134.86206896551724" y="-117.00000000000001"/>
      <point x="73.55172413793102" y="-98.37931034482759"/>
      <point x="82.48275862068965" y="-57.827586206896555" type="curve" smooth="yes"/>
      <point x="85.99999999999997" y="-40.6551724137931"/>
      <point x="127.68965517241381" y="-18.517241379310345"/>
      <point x="175.82758620689657" y="4.275862068965516" type="curve"/>
      <point x="228.51724137931038" y="4.275862068965516" type="line" smooth="yes"/>
      <point x="330.03448275862075" y="4.275862068965516"/>
      <point x="346.3793103448276" y="-25.655172413793103"/>
      <point x="339.8620689655172" y="-56.724137931034484" type="curve" smooth="yes"/>
      <point x="334.13793103448273" y="-83.6206896551724"/>
      <point x="288.551724137931" y="-112.51724137931036"/>
    </contour>
    <contour>
      <point x="232.5172413793103" y="243.13793103448276" type="curve"/>
      <point x="193.34482758620695" y="271.48275862068965"/>
      <point x="158.37931034482762" y="310.03448275862075"/>
      <point x="165.10344827586206" y="346.34482758620686" type="curve" smooth="yes"/>
      <point x="174.82758620689657" y="396.7586206896552"/>
      <point x="217.1034482758621" y="420.0"/>
      <point x="273.10344827586204" y="420.0" type="curve"/>
      <point x="335.2758620689656" y="420.0"/>
      <point x="378.27586206896547" y="377.13793103448273"/>
      <point x="365.6551724137931" y="320.82758620689657" type="curve" smooth="yes"/>
      <point x="352.6206896551724" y="261.8620689655172"/>
      <point x="293.2068965517241" y="248.55172413793102"/>
    </contour>
  </outline>
</glyph>
<glyph name="h" format="2">
  <advance width="580.3157894736842"/>
  <unicode hex="0068"/>
  <guideline x="122.52631578947368" y="735.9263157894737" angle="4.470799999999997"/>
  <anchor x="241.92631578947368" y="0.0" name="bottom"/>
  <anchor x="327.9263157894737" y="409.0" name="center"/>
  <anchor x="372.82105263157894" y="727.1052631578947" name="top"/>
  <outline>
    <contour>
      <point x="15.568421052631587" y="0.0" type="curve"/>
      <point x="142.1157894736842" y="0.0" type="line"/>
      <point x="154.65263157894736" y="72.53684210526316"/>
      <point x="164.77894736842106" y="135.4842105263158"/>
      <point x="178.49473684210525" y="212.37894736842105" type="curve"/>
      <point x="203.38947368421054" y="328.1368421052632" type="line"/>
      <point x="250.75789473684208" y="372.5578947368421"/>
      <point x="313.17894736842106" y="408.77894736842103"/>
      <point x="342.9368421052632" y="408.77894736842103" type="curve" smooth="yes"/>
      <point x="409.9684210526316" y="408.77894736842103"/>
      <point x="426.93684210526317" y="363.86315789473684"/>
      <point x="409.04210526315796" y="282.2105263157894" type="curve"/>
      <point x="394.9684210526316" y="212.37894736842105" type="line"/>
      <point x="375.5578947368422" y="135.4842105263158"/>
      <point x="360.3263157894737" y="72.53684210526316"/>
      <point x="342.09473684210525" y="0.0" type="curve"/>
      <point x="467.82105263157894" y="0.0" type="line"/>
      <point x="480.3578947368421" y="72.53684210526316"/>
      <point x="490.48421052631585" y="135.4842105263158"/>
      <point x="505.021052631579" y="217.7157894736842" type="curve"/>
      <point x="513.021052631579" y="256.12631578947367"/>
      <point x="522.7157894736841" y="289.33684210526314"/>
      <point x="528.7157894736841" y="317.15789473684214" type="curve" smooth="yes"/>
      <point x="554.4842105263157" y="435.87368421052633"/>
      <point x="508.0736842105264" y="509.7473684210526"/>
      <point x="399.5368421052632" y="509.7473684210526" type="curve" smooth="yes"/>
      <point x="352.2631578947369" y="509.7473684210526"/>
      <point x="280.16842105263163" y="462.24210526315784"/>
      <point x="233.34736842105264" y="422.83157894736837" type="curve"/>
      <point x="223.42105263157896" y="422.83157894736837" type="line"/>
      <point x="238.13684210526316" y="493.58947368421053" type="line"/>
      <point x="261.2421052631579" y="583.1052631578947"/>
      <point x="282.11578947368423" y="664.978947368421"/>
      <point x="303.75789473684216" y="744.9263157894737" type="curve"/>
      <point x="162.00000000000003" y="730.2315789473685" type="line"/>
      <point x="152.10526315789474" y="653.7157894736841"/>
      <point x="141.21052631578948" y="576.1263157894737"/>
      <point x="129.31578947368422" y="493.58947368421053" type="curve"/>
      <point x="70.90526315789474" y="217.7157894736842" type="line"/>
      <point x="49.4421052631579" y="135.4842105263158"/>
      <point x="34.21052631578948" y="72.53684210526316"/>
    </contour>
  </outline>
</glyph>
<glyph name="k" format="2">
  <advance width="557.4631578947368"/>
  <unicode hex="006B"/>
  <anchor x="230.36842105263156" y="0.0" name="bottom"/>
  <anchor x="383.1894736842105" y="727.1052631578947" name="top"/>
  <outline>
    <contour>
      <point x="350.58947368421053" y="0.0" type="curve"/>
      <point x="497.0105263157895" y="0.0" type="line"/>
      <point x="448.5052631578947" y="59.463157894736845"/>
      <point x="399.58947368421053" y="118.74736842105263"/>
      <point x="351.0842105263158" y="178.21052631578948" type="curve"/>
      <point x="272.86315789473684" y="284.4526315789474" type="line"/>
      <point x="288.94736842105266" y="234.25263157894736" type="line"/>
      <point x="383.47368421052636" y="320.53684210526313" type="line"/>
      <point x="450.5684210526316" y="379.58947368421053"/>
      <point x="517.8421052631578" y="438.2315789473684"/>
      <point x="586.1157894736842" y="497.2842105263158" type="curve"/>
      <point x="434.1052631578947" y="497.2842105263158" type="line"/>
      <point x="388.22105263157897" y="451.9789473684211"/>
      <point x="341.74736842105267" y="406.4947368421053"/>
      <point x="295.86315789473684" y="361.1894736842105" type="curve"/>
      <point x="217.2421052631579" y="287.34736842105264" type="line"/>
      <point x="183.95789473684212" y="287.34736842105264" type="line"/>
      <point x="168.10526315789474" y="212.54736842105262" type="line"/>
      <point x="198.67368421052632" y="212.54736842105262" type="line"/>
      <point x="260.42105263157896" y="130.98947368421054" type="line"/>
      <point x="290.9473684210527" y="87.32631578947368"/>
      <point x="321.06315789473683" y="43.66315789473684"/>
    </contour>
    <contour>
      <point x="15.568421052631587" y="0.0" type="curve"/>
      <point x="142.1157894736842" y="0.0" type="line"/>
      <point x="153.01052631578946" y="67.61052631578947"/>
      <point x="162.7263157894737" y="126.45263157894738"/>
      <point x="175.62105263157895" y="198.42105263157896" type="curve"/>
      <point x="238.13684210526316" y="493.58947368421053" type="line"/>
      <point x="261.2421052631579" y="583.1052631578947"/>
      <point x="282.11578947368423" y="664.978947368421"/>
      <point x="303.75789473684216" y="744.9263157894737" type="curve"/>
      <point x="162.00000000000003" y="730.2315789473685" type="line"/>
      <point x="152.10526315789474" y="653.7157894736841"/>
      <point x="141.21052631578948" y="576.1263157894737"/>
      <point x="129.31578947368422" y="493.58947368421053" type="curve"/>
      <point x="70.90526315789474" y="217.7157894736842" type="line"/>
      <point x="49.4421052631579" y="135.4842105263158"/>
      <point x="34.21052631578948" y="72.53684210526316"/>
    </contour>
  </outline>
</glyph>
<glyph name="l" format="2">
  <advance width="264.2736842105263"/>
  <unicode hex="006C"/>
  <anchor x="79.13684210526316" y="0.0" name="bottom"/>
  <anchor x="168.18947368421053" y="409.0" name="center"/>
  <anchor x="229.85263157894735" y="727.1052631578947" name="top"/>
  <anchor x="280.0736842105263" y="497.2842105263158" name="topright"/>
  <outline>
    <contour>
      <point x="15.568421052631587" y="0.0" type="curve"/>
      <point x="142.1157894736842" y="0.0" type="line"/>
      <point x="154.65263157894736" y="72.53684210526316"/>
      <point x="165.77894736842106" y="135.4842105263158"/>
      <point x="179.7263157894737" y="217.7157894736842" type="curve"/>
      <point x="238.13684210526316" y="493.58947368421053" type="line"/>
      <point x="261.2421052631579" y="583.1052631578947"/>
      <point x="282.11578947368423" y="664.9789473684211"/>
      <point x="303.75789473684216" y="744.9263157894737" type="curve"/>
      <point x="162.00000000000003" y="730.2315789473685" type="line"/>
      <point x="152.10526315789474" y="653.7157894736843"/>
      <point x="141.21052631578948" y="576.1263157894737"/>
      <point x="129.31578947368422" y="493.58947368421053" type="curve"/>
      <point x="70.90526315789474" y="217.7157894736842" type="line"/>
      <point x="49.4421052631579" y="135.4842105263158"/>
      <point x="34.21052631578948" y="72.53684210526316"/>
    </contour>
  </outline>
</glyph>
<glyph name="m" format="2">
  <advance width="882.7473684210527"/>
  <unicode hex="006D"/>
  <anchor x="397.35789473684207" y="0.0" name="bottom"/>
  <anchor x="502.178947368421" y="497.2842105263158" name="top"/>
  <outline>
    <contour>
      <point x="20.74736842105264" y="0.0" type="curve"/>
      <point x="147.29473684210527" y="0.0" type="line"/>
      <point x="159.83157894736843" y="72.53684210526316"/>
      <point x="170.3684210526316" y="135.4842105263158"/>
      <point x="183.67368421052632" y="212.37894736842105" type="curve"/>
      <point x="208.5684210526316" y="328.1368421052632" type="line"/>
      <point x="255.93684210526317" y="372.5578947368421"/>
      <point x="314.5894736842105" y="408.77894736842103"/>
      <point x="343.75789473684205" y="408.77894736842103" type="curve" smooth="yes"/>
      <point x="402.89473684210526" y="408.77894736842103"/>
      <point x="419.8631578947368" y="363.86315789473684"/>
      <point x="401.9684210526316" y="282.2105263157894" type="curve"/>
      <point x="387.8947368421052" y="212.37894736842105" type="line"/>
      <point x="368.4842105263158" y="135.4842105263158"/>
      <point x="353.2526315789474" y="72.53684210526316"/>
      <point x="335.0210526315789" y="0.0" type="curve"/>
      <point x="460.7473684210526" y="0.0" type="line"/>
      <point x="473.2842105263158" y="72.53684210526316"/>
      <point x="483.41052631578947" y="135.4842105263158"/>
      <point x="497.9473684210526" y="217.7157894736842" type="curve"/>
      <point x="505.9473684210526" y="256.12631578947367"/>
      <point x="515.6421052631579" y="289.33684210526314"/>
      <point x="521.6421052631578" y="317.15789473684214" type="curve" smooth="yes"/>
      <point x="527.4631578947367" y="344.4421052631579"/>
      <point x="529.6421052631579" y="369.3157894736842"/>
      <point x="528.0" y="390.77894736842103" type="curve"/>
      <point x="523.7157894736843" y="393.13684210526316" type="line"/>
      <point x="520.0736842105263" y="467.2105263157895"/>
      <point x="476.48421052631585" y="509.7473684210526"/>
      <point x="399.76842105263154" y="509.7473684210526" type="curve" smooth="yes"/>
      <point x="350.8" y="509.7473684210526"/>
      <point x="276.1894736842105" y="460.42105263157896"/>
      <point x="225.26315789473685" y="419.7789473684211" type="curve"/>
      <point x="215.33684210526317" y="419.7789473684211" type="line"/>
      <point x="224.99999999999997" y="503.1578947368421" type="line"/>
      <point x="118.10526315789474" y="497.2842105263158" type="line"/>
      <point x="110.10526315789473" y="433.14736842105265"/>
      <point x="103.51578947368422" y="370.29473684210524"/>
      <point x="95.92631578947369" y="309.56842105263155" type="curve"/>
      <point x="76.0842105263158" y="217.7157894736842" type="line"/>
      <point x="54.62105263157895" y="135.4842105263158"/>
      <point x="39.389473684210536" y="72.53684210526316"/>
    </contour>
    <contour>
      <point x="644.5263157894736" y="0.0" type="curve"/>
      <point x="770.2526315789473" y="0.0" type="line"/>
      <point x="782.7894736842104" y="72.53684210526316"/>
      <point x="792.9157894736841" y="135.4842105263158"/>
      <point x="807.4526315789473" y="217.7157894736842" type="curve"/>
      <point x="815.4526315789473" y="256.12631578947367"/>
      <point x="825.1473684210525" y="289.33684210526314"/>
      <point x="831.1473684210525" y="317.15789473684214" type="curve" smooth="yes"/>
      <point x="856.9157894736841" y="435.8736842105263"/>
      <point x="810.5052631578948" y="509.7473684210526"/>
      <point x="709.2736842105263" y="509.7473684210526" type="curve" smooth="yes"/>
      <point x="660.3052631578947" y="509.7473684210526"/>
      <point x="582.9263157894736" y="459.24210526315784"/>
      <point x="529.7684210526314" y="416.18947368421055" type="curve"/>
      <point x="519.0736842105263" y="416.18947368421055" type="line"/>
      <point x="518.0736842105263" y="328.1368421052632" type="line"/>
      <point x="565.4421052631579" y="372.5578947368421"/>
      <point x="624.0947368421054" y="408.77894736842103"/>
      <point x="653.2631578947368" y="408.77894736842103" type="curve" smooth="yes"/>
      <point x="712.4" y="408.77894736842103"/>
      <point x="729.3684210526316" y="363.86315789473684"/>
      <point x="711.4736842105262" y="282.2105263157894" type="curve"/>
      <point x="697.4" y="212.37894736842105" type="line"/>
      <point x="677.9894736842105" y="135.4842105263158"/>
      <point x="662.7578947368421" y="72.53684210526316"/>
    </contour>
  </outline>
</glyph>
<glyph name="n" format="2">
  <advance width="585.4947368421052"/>
  <unicode hex="006E"/>
  <anchor x="243.6421052631579" y="0.0" name="bottom"/>
  <anchor x="348.4631578947368" y="497.2842105263158" name="top"/>
  <outline>
    <contour>
      <point x="20.74736842105264" y="0.0" type="curve"/>
      <point x="147.29473684210527" y="0.0" type="line"/>
      <point x="159.83157894736843" y="72.53684210526316"/>
      <point x="170.3684210526316" y="135.4842105263158"/>
      <point x="183.67368421052632" y="212.37894736842105" type="curve"/>
      <point x="208.5684210526316" y="328.1368421052632" type="line"/>
      <point x="255.9368421052631" y="372.5578947368421"/>
      <point x="318.35789473684207" y="408.77894736842103"/>
      <point x="348.11578947368423" y="408.77894736842103" type="curve" smooth="yes"/>
      <point x="415.1473684210526" y="408.77894736842103"/>
      <point x="432.1157894736842" y="363.86315789473684"/>
      <point x="414.22105263157897" y="282.2105263157894" type="curve"/>
      <point x="400.1473684210526" y="212.37894736842105" type="line"/>
      <point x="380.7368421052632" y="135.4842105263158"/>
      <point x="365.5052631578948" y="72.53684210526316"/>
      <point x="347.2736842105263" y="0.0" type="curve"/>
      <point x="473.0" y="0.0" type="line"/>
      <point x="485.5368421052632" y="72.53684210526316"/>
      <point x="495.66315789473686" y="135.4842105263158"/>
      <point x="510.2" y="217.7157894736842" type="curve"/>
      <point x="518.1999999999999" y="256.12631578947367"/>
      <point x="527.8947368421052" y="289.33684210526314"/>
      <point x="533.8947368421052" y="317.15789473684214" type="curve" smooth="yes"/>
      <point x="559.6631578947367" y="435.87368421052633"/>
      <point x="513.2526315789473" y="509.7473684210526"/>
      <point x="404.7157894736842" y="509.7473684210526" type="curve" smooth="yes"/>
      <point x="354.56842105263155" y="509.7473684210526"/>
      <point x="275.7789473684211" y="460.42105263157896"/>
      <point x="224.85263157894738" y="419.7789473684211" type="curve"/>
      <point x="214.9263157894737" y="419.7789473684211" type="line"/>
      <point x="225.5894736842105" y="503.1578947368421" type="line"/>
      <point x="118.10526315789474" y="497.2842105263158" type="line"/>
      <point x="110.10526315789473" y="433.14736842105265"/>
      <point x="103.51578947368422" y="370.29473684210524"/>
      <point x="95.92631578947369" y="309.56842105263155" type="curve"/>
      <point x="76.0842105263158" y="217.7157894736842" type="line"/>
      <point x="54.62105263157895" y="135.4842105263158"/>
      <point x="39.389473684210536" y="72.53684210526316"/>
    </contour>
  </outline>
</glyph>
<glyph name="p" format="2">
  <advance width="598.4631578947368"/>
  <unicode hex="0070"/>
  <outline>
    <contour>
      <point x="-20.842105263157887" y="-195.6421052631579" type="curve"/>
      <point x="108.7578947368421" y="-192.0" type="line"/>
      <point x="120.4736842105263" y="-119.46315789473684"/>
      <point x="130.18947368421053" y="-56.51578947368421"/>
      <point x="143.0842105263158" y="20.378947368421052" type="curve"/>
      <point x="153.03157894736842" y="65.7578947368421" type="line"/>
      <point x="161.0842105263158" y="65.7578947368421" type="line"/>
      <point x="208.03157894736844" y="23.68421052631579"/>
      <point x="270.3578947368421" y="-11.873684210526315"/>
      <point x="315.1473684210526" y="-11.873684210526315" type="curve" smooth="yes"/>
      <point x="434.6842105263158" y="-11.873684210526315"/>
      <point x="518.9368421052632" y="82.15789473684211"/>
      <point x="548.9368421052632" y="224.92631578947368" type="curve" smooth="yes"/>
      <point x="580.3473684210526" y="375.7473684210526"/>
      <point x="526.5578947368421" y="509.7473684210526"/>
      <point x="382.99999999999994" y="509.7473684210526" type="curve" smooth="yes"/>
      <point x="343.5157894736842" y="509.7473684210526"/>
      <point x="274.59999999999997" y="472.13684210526316"/>
      <point x="231.6736842105263" y="435.1578947368421" type="curve"/>
      <point x="220.7473684210526" y="435.1578947368421" type="line"/>
      <point x="227.5157894736842" y="503.1578947368421" type="line"/>
      <point x="118.10526315789474" y="497.2842105263158" type="line"/>
      <point x="110.10526315789473" y="433.14736842105265"/>
      <point x="103.51578947368422" y="370.29473684210524"/>
      <point x="95.92631578947369" y="309.56842105263155" type="curve"/>
      <point x="35.49473684210527" y="25.71578947368421" type="line"/>
      <point x="15.031578947368429" y="-56.51578947368421"/>
      <point x="-2.610526315789466" y="-123.10526315789474"/>
    </contour>
    <contour>
      <point x="286.82105263157894" y="84.16842105263159" type="curve"/>
      <point x="254.13684210526313" y="86.57894736842105"/>
      <point x="202.64210526315787" y="113.03157894736843"/>
      <point x="170.8842105263158" y="150.50526315789475" type="curve"/>
      <point x="213.1578947368421" y="349.8" type="line"/>
      <point x="250.0947368421052" y="385.43157894736845"/>
      <point x="308.12631578947367" y="412.7052631578947"/>
      <point x="333.5578947368421" y="414.9368421052631" type="curve"/>
      <point x="425.86315789473684" y="411.9368421052631"/>
      <point x="458.4947368421053" y="329.2105263157895"/>
      <point x="438.70526315789476" y="233.85263157894738" type="curve" smooth="yes"/>
      <point x="420.86315789473684" y="148.41052631578947"/>
      <point x="372.1052631578947" y="87.57894736842105"/>
    </contour>
  </outline>
</glyph>
<glyph name="q" format="2">
  <advance width="587.6421052631579"/>
  <unicode hex="0071"/>
  <outline>
    <contour>
      <point x="303.5789473684211" y="-195.6421052631579" type="curve"/>
      <point x="430.71578947368414" y="-192.0" type="line"/>
      <point x="443.25263157894733" y="-119.46315789473684"/>
      <point x="453.7894736842105" y="-56.51578947368421"/>
      <point x="468.32631578947365" y="25.71578947368421" type="curve"/>
      <point x="528.578947368421" y="309.56842105263155" type="line"/>
      <point x="545.5052631578947" y="372.1157894736842"/>
      <point x="565.6105263157895" y="437.2"/>
      <point x="585.3578947368421" y="503.1578947368421" type="curve"/>
      <point x="475.5894736842105" y="497.2842105263158" type="line"/>
      <point x="455.35789473684207" y="431.0315789473684" type="line"/>
      <point x="445.2526315789474" y="431.0315789473684" type="line"/>
      <point x="400.20000000000005" y="471.1368421052631"/>
      <point x="331.10526315789474" y="509.7473684210526"/>
      <point x="283.7263157894737" y="509.7473684210526" type="curve" smooth="yes"/>
      <point x="164.18947368421053" y="509.7473684210526"/>
      <point x="79.93684210526315" y="415.7157894736842"/>
      <point x="49.93684210526315" y="272.9473684210526" type="curve" smooth="yes"/>
      <point x="18.52631578947368" y="122.1263157894737"/>
      <point x="72.3157894736842" y="-11.873684210526315"/>
      <point x="215.87368421052633" y="-11.873684210526315" type="curve" smooth="yes"/>
      <point x="253.3052631578947" y="-11.873684210526315"/>
      <point x="312.9894736842106" y="18.968421052631577"/>
      <point x="357.34736842105264" y="60.22105263157894" type="curve"/>
      <point x="367.0421052631579" y="60.22105263157894" type="line"/>
      <point x="358.27368421052637" y="20.378947368421052" type="line"/>
      <point x="339.45263157894743" y="-56.51578947368421"/>
      <point x="321.8105263157895" y="-123.10526315789474"/>
    </contour>
    <contour>
      <point x="265.3157894736842" y="82.93684210526317" type="curve"/>
      <point x="173.01052631578946" y="85.34736842105264"/>
      <point x="139.78947368421052" y="169.25263157894736"/>
      <point x="160.16842105263157" y="264.0210526315789" type="curve" smooth="yes"/>
      <point x="178.6" y="350.6421052631579"/>
      <point x="226.76842105263157" y="410.29473684210524"/>
      <point x="312.05263157894734" y="413.7052631578947" type="curve"/>
      <point x="346.5052631578947" y="411.88421052631577"/>
      <point x="396.23157894736846" y="385.4315789473684"/>
      <point x="429.7578947368421" y="356.2105263157895" type="curve"/>
      <point x="388.0736842105263" y="161.0421052631579" type="line"/>
      <point x="354.0842105263158" y="119.51578947368422"/>
      <point x="303.12631578947367" y="85.7578947368421"/>
    </contour>
  </outline>
</glyph>
<glyph name="r" format="2">
  <advance width="412.0631578947369"/>
  <unicode hex="0072"/>
  <anchor x="78.26315789473685" y="0.0" name="bottom"/>
  <anchor x="286.46315789473687" y="497.2842105263158" name="top"/>
  <outline>
    <contour>
      <point x="20.74736842105264" y="0.0" type="curve"/>
      <point x="147.29473684210527" y="0.0" type="line"/>
      <point x="159.83157894736843" y="72.53684210526316"/>
      <point x="170.3684210526316" y="135.4842105263158"/>
      <point x="183.67368421052632" y="212.37894736842105" type="curve"/>
      <point x="204.74736842105264" y="306.8" type="line"/>
      <point x="264.24210526315784" y="366.0631578947369"/>
      <point x="321.21052631578937" y="399.33684210526314"/>
      <point x="344.178947368421" y="399.33684210526314" type="curve" smooth="yes"/>
      <point x="352.5894736842105" y="399.33684210526314"/>
      <point x="380.17894736842106" y="392.3368421052631"/>
      <point x="409.2842105263158" y="384.69473684210527" type="curve"/>
      <point x="443.09473684210525" y="499.1578947368421" type="line"/>
      <point x="419.7368421052631" y="505.7473684210526"/>
      <point x="388.78947368421046" y="509.7473684210526"/>
      <point x="379.4315789473684" y="509.7473684210526" type="curve" smooth="yes"/>
      <point x="338.7894736842106" y="509.7473684210526"/>
      <point x="290.10526315789474" y="477.13684210526316"/>
      <point x="223.08421052631576" y="411.52631578947364" type="curve"/>
      <point x="213.15789473684208" y="411.52631578947364" type="line"/>
      <point x="225.0" y="503.1578947368421" type="line"/>
      <point x="118.10526315789474" y="497.2842105263158" type="line"/>
      <point x="110.10526315789473" y="433.14736842105265"/>
      <point x="103.51578947368422" y="370.29473684210524"/>
      <point x="95.92631578947369" y="309.56842105263155" type="curve"/>
      <point x="76.0842105263158" y="217.7157894736842" type="line"/>
      <point x="54.62105263157895" y="135.4842105263158"/>
      <point x="39.389473684210536" y="72.53684210526316"/>
    </contour>
  </outline>
</glyph>
<glyph name="s" format="2">
  <advance width="459.44827586206895"/>
  <unicode hex="0073"/>
  <anchor x="178.06896551724137" y="0.0" name="bottom"/>
  <anchor x="282.9655172413793" y="497.58620689655174" name="top"/>
  <outline>
    <contour>
      <point x="198.86206896551724" y="-11.689655172413794" type="curve" smooth="yes"/>
      <point x="315.7931034482758" y="-11.689655172413794"/>
      <point x="378.17241379310343" y="35.48275862068965"/>
      <point x="393.17241379310343" y="108.96551724137932" type="curve" smooth="yes"/>
      <point x="411.27586206896547" y="198.55172413793105"/>
      <point x="361.82758620689657" y="242.44827586206898"/>
      <point x="266.9655172413793" y="284.0344827586207" type="curve" smooth="yes"/>
      <point x="194.48275862068965" y="316.2758620689655"/>
      <point x="182.06896551724137" y="338.10344827586204"/>
      <point x="189.3793103448276" y="369.5862068965517" type="curve" smooth="yes"/>
      <point x="199.0" y="411.6896551724138"/>
      <point x="241.1034482758621" y="417.10344827586204"/>
      <point x="272.7241379310344" y="419.10344827586204" type="curve"/>
      <point x="287.9310344827586" y="419.10344827586204"/>
      <point x="350.0344827586207" y="396.41379310344826"/>
      <point x="409.1379310344828" y="371.7241379310344" type="curve"/>
      <point x="436.17241379310343" y="468.4827586206897" type="line"/>
      <point x="385.4137931034482" y="483.27586206896547"/>
      <point x="297.3448275862069" y="509.37931034482756"/>
      <point x="258.27586206896547" y="509.37931034482756" type="curve" smooth="yes"/>
      <point x="162.06896551724137" y="509.37931034482756"/>
      <point x="96.27586206896552" y="465.0"/>
      <point x="78.6896551724138" y="382.7586206896552" type="curve" smooth="yes"/>
      <point x="60.79310344827587" y="301.1724137931035"/>
      <point x="98.51724137931035" y="255.20689655172413"/>
      <point x="185.10344827586206" y="216.10344827586206" type="curve" smooth="yes"/>
      <point x="265.9655172413793" y="179.9655172413793"/>
      <point x="290.89655172413796" y="158.3448275862069"/>
      <point x="281.48275862068965" y="122.9310344827586" type="curve" smooth="yes"/>
      <point x="271.9655172413793" y="86.31034482758622"/>
      <point x="228.68965517241378" y="80.58620689655172"/>
      <point x="189.10344827586206" y="79.48275862068965" type="curve"/>
      <point x="163.06896551724142" y="79.48275862068965"/>
      <point x="101.79310344827587" y="105.2758620689655"/>
      <point x="36.10344827586207" y="137.0689655172414" type="curve"/>
      <point x="8.06896551724138" y="35.82758620689656" type="line"/>
      <point x="76.93103448275863" y="12.517241379310345"/>
      <point x="157.48275862068965" y="-11.689655172413794"/>
    </contour>
  </outline>
</glyph>
<glyph name="t" format="2">
  <advance width="414.77894736842103"/>
  <unicode hex="0074"/>
  <anchor x="182.53684210526316" y="0.0" name="bottom"/>
  <anchor x="212.8" y="248.6421052631579" name="center"/>
  <anchor x="286.7263157894737" y="646.9894736842106" name="top"/>
  <anchor x="305.17894736842106" y="497.2842105263158" name="topright"/>
  <outline>
    <contour>
      <point x="237.56842105263155" y="-11.873684210526315" type="curve" smooth="yes"/>
      <point x="258.1052631578947" y="-11.873684210526315"/>
      <point x="306.77894736842103" y="0.07368421052631535"/>
      <point x="337.8842105263158" y="10.48421052631579" type="curve"/>
      <point x="349.55789473684206" y="106.54736842105262" type="line"/>
      <point x="317.43157894736845" y="91.6"/>
      <point x="281.89473684210526" y="79.65263157894736"/>
      <point x="270.17894736842106" y="79.65263157894736" type="curve" smooth="yes"/>
      <point x="218.01052631578943" y="79.65263157894736"/>
      <point x="190.2736842105263" y="114.18947368421053"/>
      <point x="206.34736842105264" y="189.8421052631579" type="curve" smooth="yes"/>
      <point x="265.4947368421052" y="467.6842105263158" type="line"/>
      <point x="282.9578947368421" y="550.0"/>
      <point x="296.88421052631577" y="605.0842105263158"/>
      <point x="317.63157894736844" y="680.6" type="curve"/>
      <point x="190.79999999999998" y="657.6947368421053" type="line"/>
      <point x="181.49473684210528" y="594.0"/>
      <point x="172.54736842105262" y="538.7157894736843"/>
      <point x="157.90526315789475" y="467.6842105263158" type="curve"/>
      <point x="135.2842105263158" y="361.0421052631579"/>
      <point x="113.8" y="272.5473684210527"/>
      <point x="91.77894736842106" y="169.21052631578948" type="curve" smooth="yes"/>
      <point x="66.3157894736842" y="48.66315789473684"/>
      <point x="130.14736842105262" y="-11.873684210526315"/>
    </contour>
    <contour>
      <point x="54.70526315789474" y="404.70526315789476" type="line"/>
      <point x="177.55789473684212" y="416.6842105263158" type="line"/>
      <point x="224.14736842105262" y="416.6842105263158" type="line"/>
      <point x="285.57894736842104" y="413.63157894736844"/>
      <point x="352.42105263157896" y="409.1684210526316"/>
      <point x="416.08421052631576" y="404.70526315789476" type="curve"/>
      <point x="435.81052631578945" y="497.2842105263158" type="line"/>
      <point x="74.43157894736842" y="497.2842105263158" type="line"/>
    </contour>
  </outline>
</glyph>
<glyph name="u" format="2">
  <advance width="567.8842105263158"/>
  <unicode hex="0075"/>
  <anchor x="231.21052631578945" y="0.0" name="bottom"/>
  <anchor x="451.28421052631575" y="0.0" name="ogonek"/>
  <anchor x="335.6210526315789" y="497.2842105263158" name="top"/>
  <anchor x="593.8105263157895" y="497.2842105263158" name="topright"/>
  <outline>
    <contour>
      <point x="178.90526315789472" y="-11.873684210526315" type="curve" smooth="yes"/>
      <point x="225.51578947368424" y="-11.873684210526315"/>
      <point x="304.3052631578947" y="37.45263157894737"/>
      <point x="355.23157894736846" y="78.09473684210526" type="curve"/>
      <point x="365.1578947368422" y="78.09473684210526" type="line"/>
      <point x="352.13684210526316" y="0.0" type="line"/>
      <point x="453.7473684210526" y="0.0" type="line"/>
      <point x="466.28421052631575" y="72.53684210526316"/>
      <point x="476.41052631578947" y="135.4842105263158"/>
      <point x="490.35789473684207" y="217.7157894736842" type="curve"/>
      <point x="502.178947368421" y="271.82105263157894" type="line"/>
      <point x="524.2842105263157" y="360.62105263157895"/>
      <point x="540.6947368421052" y="424.7473684210526"/>
      <point x="558.9263157894736" y="497.2842105263158" type="curve"/>
      <point x="433.0210526315789" y="497.2842105263158" type="line"/>
      <point x="420.89473684210526" y="424.7473684210526"/>
      <point x="409.35789473684207" y="360.62105263157895"/>
      <point x="395.82105263157894" y="283.7263157894737" type="curve"/>
      <point x="371.1052631578947" y="167.6842105263158" type="line"/>
      <point x="323.7368421052632" y="123.26315789473685"/>
      <point x="261.3157894736842" y="87.0421052631579"/>
      <point x="235.09473684210525" y="87.0421052631579" type="curve" smooth="yes"/>
      <point x="168.06315789473683" y="87.0421052631579"/>
      <point x="150.68421052631578" y="131.95789473684212"/>
      <point x="168.57894736842104" y="213.61052631578946" type="curve"/>
      <point x="182.88421052631577" y="283.7263157894737" type="line"/>
      <point x="201.70526315789473" y="360.62105263157895"/>
      <point x="219.52631578947367" y="428.38947368421054"/>
      <point x="237.7578947368421" y="500.9263157894737" type="curve"/>
      <point x="109.62105263157893" y="497.2842105263158" type="line"/>
      <point x="97.49473684210525" y="424.7473684210526"/>
      <point x="85.9578947368421" y="360.62105263157895"/>
      <point x="71.6" y="271.82105263157894" type="curve"/>
      <point x="63.6" y="235.17894736842103"/>
      <point x="56.95789473684211" y="208.53684210526316"/>
      <point x="50.95789473684211" y="180.7157894736842" type="curve" smooth="yes"/>
      <point x="25.189473684210522" y="62.0"/>
      <point x="70.36842105263158" y="-11.873684210526315"/>
    </contour>
  </outline>
</glyph>
<glyph name="v" format="2">
  <advance width="531.7157894736843"/>
  <unicode hex="0076"/>
  <outline>
    <contour>
      <point x="149.54736842105262" y="0.0" type="curve"/>
      <point x="279.7578947368421" y="0.0" type="line"/>
      <point x="314.29473684210524" y="62.410526315789475"/>
      <point x="347.8315789473684" y="123.82105263157895"/>
      <point x="381.77894736842103" y="186.23157894736843" type="curve"/>
      <point x="433.13684210526316" y="275.0526315789474" type="line"/>
      <point x="477.5473684210526" y="348.87368421052633"/>
      <point x="522.7263157894738" y="423.87368421052633"/>
      <point x="567.3157894736842" y="497.2842105263158" type="curve"/>
      <point x="431.48421052631585" y="497.2842105263158" type="line"/>
      <point x="394.13684210526316" y="422.57894736842104"/>
      <point x="357.3263157894737" y="347.12631578947367"/>
      <point x="318.15789473684214" y="267.13684210526316" type="curve"/>
      <point x="240.71578947368423" y="118.33684210526316" type="line"/>
      <point x="230.61052631578949" y="118.33684210526316" type="line"/>
      <point x="214.38947368421054" y="267.13684210526316" type="line"/>
      <point x="207.8315789473684" y="346.12631578947367"/>
      <point x="201.86315789473682" y="423.57894736842104"/>
      <point x="194.89473684210526" y="500.9263157894737" type="curve"/>
      <point x="70.39999999999999" y="497.2842105263158" type="line"/>
      <point x="83.98947368421052" y="425.69473684210527"/>
      <point x="97.98947368421052" y="349.46315789473687"/>
      <point x="111.57894736842105" y="276.6421052631579" type="curve"/>
      <point x="125.34736842105264" y="188.23157894736843" type="line"/>
      <point x="132.88421052631577" y="127.58947368421053"/>
      <point x="142.0105263157895" y="61.231578947368426"/>
    </contour>
  </outline>
</glyph>
<glyph name="w" format="2">
  <advance width="817.8421052631579"/>
  <unicode hex="0077"/>
  <anchor x="355.13684210526316" y="0.0" name="bottom"/>
  <anchor x="459.5473684210526" y="497.2842105263158" name="top"/>
  <outline>
    <contour>
      <point x="124.54736842105262" y="0.0" type="curve"/>
      <point x="252.0631578947368" y="0.0" type="line"/>
      <point x="284.6947368421052" y="70.29473684210527"/>
      <point x="320.09473684210525" y="144.94736842105266"/>
      <point x="352.72631578947374" y="214.65263157894736" type="curve"/>
      <point x="418.27368421052637" y="348.7052631578947" type="line"/>
      <point x="427.5578947368421" y="348.7052631578947" type="line"/>
      <point x="438.1157894736842" y="217.8842105263158" type="line"/>
      <point x="441.36842105263156" y="150.30526315789473"/>
      <point x="446.38947368421054" y="67.34736842105264"/>
      <point x="450.05263157894734" y="0.0" type="curve"/>
      <point x="589.1894736842104" y="0.0" type="line"/>
      <point x="619.5473684210526" y="60.82105263157895"/>
      <point x="650.4947368421051" y="124.23157894736842"/>
      <point x="683.4421052631578" y="190.23157894736843" type="curve"/>
      <point x="729.6210526315789" y="277.2315789473684" type="line"/>
      <point x="770.8526315789474" y="350.87368421052633"/>
      <point x="811.2631578947369" y="422.87368421052633"/>
      <point x="853.6736842105263" y="497.2842105263158" type="curve"/>
      <point x="717.4315789473684" y="497.2842105263158" type="line"/>
      <point x="686.1578947368421" y="428.2421052631579"/>
      <point x="646.757894736842" y="341.0736842105263"/>
      <point x="612.3052631578947" y="264.85263157894735" type="curve"/>
      <point x="540.7578947368421" y="114.41052631578947" type="line"/>
      <point x="531.6526315789473" y="114.41052631578947" type="line"/>
      <point x="522.1473684210526" y="263.4421052631579" type="line"/>
      <point x="519.1263157894736" y="340.0736842105263"/>
      <point x="515.9263157894736" y="422.65263157894736"/>
      <point x="512.9052631578948" y="497.2842105263158" type="curve"/>
      <point x="397.9578947368421" y="497.2842105263158" type="line"/>
      <point x="362.3263157894737" y="418.29473684210524"/>
      <point x="327.69473684210527" y="340.89473684210526"/>
      <point x="292.24210526315795" y="262.2631578947368" type="curve"/>
      <point x="222.46315789473684" y="114.41052631578947" type="line"/>
      <point x="213.3578947368421" y="114.41052631578947" type="line"/>
      <point x="203.26315789473685" y="259.90526315789475" type="line"/>
      <point x="200.24210526315787" y="336.53684210526313"/>
      <point x="196.45263157894735" y="423.1157894736842"/>
      <point x="192.8421052631579" y="500.9263157894737" type="curve"/>
      <point x="67.34736842105261" y="497.2842105263158" type="line"/>
      <point x="78.34736842105265" y="422.2842105263158"/>
      <point x="88.75789473684209" y="351.0526315789474"/>
      <point x="99.16842105263157" y="277.2315789473684" type="curve"/>
      <point x="109.11578947368422" y="188.6421052631579" type="line"/>
      <point x="114.65263157894736" y="124.05263157894737"/>
      <point x="119.6" y="62.410526315789475"/>
    </contour>
  </outline>
</glyph>
<glyph name="x" format="2">
  <advance width="552.2842105263159"/>
  <unicode hex="0078"/>
  <outline>
    <contour>
      <point x="-31.778947368421058" y="0.0" type="curve"/>
      <point x="113.51578947368422" y="0.0" type="line"/>
      <point x="144.3263157894737" y="42.02105263157895"/>
      <point x="166.8315789473684" y="72.27368421052631"/>
      <point x="197.05263157894737" y="114.52631578947368" type="curve"/>
      <point x="259.9578947368421" y="194.1578947368421" type="line"/>
      <point x="268.2421052631579" y="194.1578947368421" type="line"/>
      <point x="302.89473684210526" y="111.29473684210527" type="line"/>
      <point x="318.4" y="70.27368421052631"/>
      <point x="329.1894736842105" y="40.2"/>
      <point x="344.69473684210527" y="0.0" type="curve"/>
      <point x="479.7052631578947" y="0.0" type="line"/>
      <point x="445.57894736842104" y="63.87368421052632"/>
      <point x="423.6315789473684" y="105.51578947368421"/>
      <point x="397.5052631578947" y="153.92631578947368" type="curve"/>
      <point x="340.7157894736842" y="269.85263157894735" type="line"/>
      <point x="340.7684210526316" y="243.94736842105263" type="line"/>
      <point x="436.021052631579" y="351.0" type="line"/>
      <point x="481.5578947368421" y="400.41052631578947"/>
      <point x="510.55789473684206" y="432.05263157894734"/>
      <point x="570.6842105263157" y="497.2842105263158" type="curve"/>
      <point x="424.978947368421" y="497.2842105263158" type="line"/>
      <point x="393.34736842105264" y="455.2631578947368"/>
      <point x="370.6105263157895" y="424.1894736842105"/>
      <point x="341.33684210526314" y="383.7052631578947" type="curve"/>
      <point x="281.14736842105265" y="307.61052631578946" type="line"/>
      <point x="272.63157894736844" y="307.61052631578946" type="line"/>
      <point x="241.8736842105263" y="384.11578947368423" type="line"/>
      <point x="228.90526315789472" y="422.8315789473684"/>
      <point x="216.52631578947367" y="458.4947368421053"/>
      <point x="201.20000000000002" y="500.9263157894737" type="curve"/>
      <point x="74.34736842105264" y="497.2842105263158" type="line"/>
      <point x="104.65263157894738" y="436.0526315789474"/>
      <point x="123.01052631578948" y="398.82105263157894"/>
      <point x="148.31578947368422" y="348.2315789473684" type="curve"/>
      <point x="196.69473684210527" y="241.58947368421053" type="line"/>
      <point x="201.56842105263158" y="268.6736842105263" type="line"/>
      <point x="106.01052631578948" y="155.1578947368421" type="line"/>
      <point x="59.884210526315805" y="103.10526315789474"/>
      <point x="28.1157894736842" y="67.05263157894737"/>
    </contour>
  </outline>
</glyph>
<glyph name="y" format="2">
  <advance width="534.0736842105263"/>
  <unicode hex="0079"/>
  <anchor x="364.27368421052637" y="0.0" name="bottom"/>
  <anchor x="319.8315789473684" y="497.2842105263158" name="top"/>
  <outline>
    <contour>
      <point x="23.515789473684215" y="-195.6421052631579" type="curve"/>
      <point x="160.1684210526316" y="-192.0" type="line"/>
      <point x="200.70526315789476" y="-120.58947368421053"/>
      <point x="248.0631578947368" y="-37.357894736842105"/>
      <point x="320.5473684210526" y="89.6421052631579" type="curve"/>
      <point x="404.3157894736842" y="229.46315789473684" type="line"/>
      <point x="480.0842105263158" y="354.46315789473687"/>
      <point x="517.4947368421053" y="415.69473684210527"/>
      <point x="567.263157894737" y="497.2842105263158" type="curve"/>
      <point x="432.6631578947369" y="497.2842105263158" type="line"/>
      <point x="394.08421052631576" y="419.4736842105263"/>
      <point x="356.5052631578948" y="344.66315789473686"/>
      <point x="316.74736842105267" y="265.0842105263158" type="curve"/>
      <point x="236.7157894736842" y="115.05263157894737" type="line"/>
      <point x="226.61052631578946" y="115.05263157894737" type="line"/>
      <point x="211.56842105263158" y="264.90526315789475" type="line"/>
      <point x="205.6" y="345.30526315789473"/>
      <point x="199.6315789473684" y="420.5263157894737"/>
      <point x="193.66315789473683" y="500.9263157894737" type="curve"/>
      <point x="69.16842105263156" y="497.2842105263158" type="line"/>
      <point x="82.16842105263157" y="425.87368421052633"/>
      <point x="95.7578947368421" y="349.87368421052633"/>
      <point x="108.75789473684209" y="278.46315789473687" type="curve"/>
      <point x="122.1157894736842" y="188.46315789473684" type="line"/>
      <point x="130.2421052631579" y="120.05263157894736"/>
      <point x="138.77894736842106" y="51.05263157894737"/>
      <point x="146.90526315789472" y="-17.357894736842105" type="curve"/>
      <point x="155.4736842105263" y="9.957894736842105" type="line"/>
      <point x="112.36842105263158" y="-57.14736842105263"/>
      <point x="66.62105263157893" y="-128.53684210526316"/>
    </contour>
  </outline>
</glyph>
<glyph name="z" format="2">
  <advance width="504.1684210526316"/>
  <unicode hex="007A"/>
  <anchor x="198.0842105263158" y="0.0" name="bottom"/>
  <anchor x="250.49473684210525" y="248.6421052631579" name="center"/>
  <anchor x="302.9052631578947" y="497.2842105263158" name="top"/>
  <outline>
    <contour>
      <point x="-16.621052631578948" y="0.0" type="line"/>
      <point x="418.3263157894737" y="0.0" type="line"/>
      <point x="438.46315789473687" y="94.22105263157894" type="line"/>
      <point x="371.67368421052635" y="89.93684210526317"/>
      <point x="286.0421052631579" y="85.2421052631579"/>
      <point x="234.25263157894736" y="82.18947368421053" type="curve"/>
      <point x="119.72631578947369" y="82.18947368421053" type="line"/>
      <point x="131.70526315789473" y="58.821052631578944" type="line"/>
      <point x="315.9578947368421" y="248.8421052631579" type="line"/>
      <point x="373.87368421052633" y="305.8842105263157"/>
      <point x="446.09473684210525" y="376.821052631579"/>
      <point x="492.1157894736842" y="421.7894736842106" type="curve"/>
      <point x="507.7894736842105" y="497.2842105263158" type="line"/>
      <point x="91.07368421052631" y="497.2842105263158" type="line"/>
      <point x="70.52631578947368" y="401.0105263157895" type="line"/>
      <point x="141.0842105263158" y="405.7052631578947"/>
      <point x="229.94736842105263" y="411.2210526315789"/>
      <point x="281.9684210526316" y="414.6842105263158" type="curve"/>
      <point x="386.36842105263156" y="414.6842105263158" type="line"/>
      <point x="370.69473684210527" y="447.87368421052633" type="line"/>
      <point x="182.92631578947368" y="251.05263157894737" type="line"/>
      <point x="128.18947368421053" y="196.36842105263162"/>
      <point x="64.09473684210526" y="132.32631578947368"/>
      <point x="-2.589473684210525" y="66.10526315789474" type="curve"/>
    </contour>
  </outline>
</glyph>
<glyph name="braceleft" format="2">
  <advance width="420.4421052631579"/>
  <unicode hex="007B"/>
  <outline>
    <contour>
      <point x="239.63157894736844" y="-119.38947368421053" type="curve" smooth="yes"/>
      <point x="325.17894736842106" y="-119.38947368421053" type="line"/>
      <point x="343.9052631578947" y="-28.042105263157893" type="line"/>
      <point x="310.4947368421052" y="-29.45263157894736"/>
      <point x="283.08421052631576" y="-30.273684210526312"/>
      <point x="266.08421052631576" y="-30.684210526315788" type="curve"/>
      <point x="209.32631578947368" y="-29.042105263157893"/>
      <point x="190.1263157894737" y="6.9789473684210535"/>
      <point x="199.66315789473686" y="58.71578947368421" type="curve" smooth="yes"/>
      <point x="233.9894736842105" y="241.25263157894736" type="line" smooth="yes"/>
      <point x="235.81052631578947" y="251.76842105263157"/>
      <point x="198.4736842105263" y="294.8947368421053"/>
      <point x="168.26315789473685" y="318.41052631578947" type="curve"/>
      <point x="170.08421052631581" y="328.10526315789474" type="line"/>
      <point x="208.1157894736842" y="351.4421052631579"/>
      <point x="267.63157894736844" y="401.7473684210526"/>
      <point x="270.27368421052637" y="413.4947368421052" type="curve" smooth="yes"/>
      <point x="314.4736842105263" y="604.8736842105263" type="line" smooth="yes"/>
      <point x="326.8315789473684" y="658.378947368421"/>
      <point x="356.2105263157895" y="679.0947368421051"/>
      <point x="410.4315789473684" y="680.7368421052631" type="curve"/>
      <point x="429.2" y="680.3263157894736"/>
      <point x="463.4526315789473" y="678.9157894736841"/>
      <point x="490.09473684210525" y="678.0947368421052" type="curve"/>
      <point x="509.82105263157894" y="769.4421052631579" type="line"/>
      <point x="406.91578947368424" y="769.4421052631579" type="line" smooth="yes"/>
      <point x="301.79999999999995" y="769.4421052631579"/>
      <point x="231.37894736842105" y="728.2842105263159"/>
      <point x="213.73684210526315" y="631.4526315789474" type="curve"/>
      <point x="212.14736842105262" y="623.0947368421052"/>
      <point x="183.1263157894737" y="467.9052631578947"/>
      <point x="181.53684210526316" y="459.9578947368421" type="curve"/>
      <point x="169.17894736842103" y="398.1684210526316"/>
      <point x="114.83157894736843" y="364.6842105263158"/>
      <point x="79.72631578947367" y="364.6842105263158" type="curve" smooth="yes"/>
      <point x="38.4421052631579" y="364.6842105263158" type="line"/>
      <point x="21.768421052631577" y="284.77894736842103" type="line"/>
      <point x="63.05263157894737" y="284.77894736842103" type="line" smooth="yes"/>
      <point x="98.15789473684211" y="284.77894736842103"/>
      <point x="138.73684210526318" y="257.1894736842105"/>
      <point x="124.61052631578949" y="189.50526315789475" type="curve"/>
      <point x="123.02105263157895" y="181.55789473684206"/>
      <point x="93.71578947368423" y="56.06315789473684"/>
      <point x="92.12631578947368" y="48.11578947368422" type="curve"/>
      <point x="72.84210526315789" y="-46.53684210526315"/>
      <point x="129.21052631578948" y="-119.38947368421053"/>
    </contour>
  </outline>
</glyph>
<glyph name="asciitilde" format="2">
  <advance width="572.3157894736842"/>
  <unicode hex="007E"/>
  <outline>
    <contour>
      <point x="408.33684210526314" y="214.93684210526317" type="curve" smooth="yes"/>
      <point x="476.06315789473683" y="214.93684210526317"/>
      <point x="520.2210526315789" y="272.2315789473684"/>
      <point x="540.9684210526316" y="371.09473684210525" type="curve"/>
      <point x="472.5578947368421" y="371.09473684210525" type="line"/>
      <point x="457.61052631578946" y="330.69473684210527"/>
      <point x="442.7157894736842" y="312.8"/>
      <point x="409.9789473684211" y="310.38947368421054" type="curve"/>
      <point x="345.6" y="314.4421052631579"/>
      <point x="269.44210526315794" y="387.7894736842105"/>
      <point x="191.0842105263158" y="387.7894736842105" type="curve" smooth="yes"/>
      <point x="120.89473684210526" y="387.7894736842105"/>
      <point x="75.32631578947368" y="329.4947368421053"/>
      <point x="53.98947368421052" y="231.6315789473684" type="curve"/>
      <point x="122.4" y="231.6315789473684" type="line"/>
      <point x="137.34736842105264" y="272.0315789473684"/>
      <point x="154.65263157894736" y="289.9263157894737"/>
      <point x="187.62105263157892" y="292.33684210526314" type="curve"/>
      <point x="250.53684210526313" y="288.2842105263158"/>
      <point x="328.33684210526314" y="214.93684210526317"/>
    </contour>
  </outline>
</glyph>
<glyph name="cent" format="2">
  <advance width="490.5052631578947"/>
  <unicode hex="00A2"/>
  <anchor x="231.02105263157893" y="0.0" name="bottom"/>
  <anchor x="330.53684210526313" y="497.2842105263158" name="top"/>
  <outline>
    <contour>
      <point x="155.6" y="-137.0" type="curve"/>
      <point x="246.4842105263158" y="-137.0" type="line"/>
      <point x="271.7894736842105" y="-8.442105263157897"/>
      <point x="297.86315789473684" y="125.26315789473685"/>
      <point x="310.37894736842105" y="192.41052631578947" type="curve"/>
      <point x="332.37894736842105" y="295.6421052631579" type="line"/>
      <point x="348.17894736842106" y="362.7894736842105"/>
      <point x="378.8947368421052" y="495.08421052631576"/>
      <point x="408.4842105263158" y="625.0526315789474" type="curve"/>
      <point x="317.59999999999997" y="625.0526315789474" type="line"/>
      <point x="291.88421052631577" y="494.2631578947368"/>
      <point x="266.2210526315789" y="362.37894736842105"/>
      <point x="253.70526315789473" y="295.6421052631579" type="curve"/>
      <point x="231.70526315789473" y="192.41052631578947" type="line"/>
      <point x="216.31578947368422" y="126.90526315789472"/>
      <point x="185.18947368421053" y="-7.621052631578948"/>
    </contour>
    <contour>
      <point x="282.33684210526314" y="-10.642105263157895" type="curve" smooth="yes"/>
      <point x="314.64210526315793" y="-10.642105263157895"/>
      <point x="375.17894736842106" y="6.252631578947368"/>
      <point x="402.17894736842106" y="16.02105263157895" type="curve"/>
      <point x="414.90526315789475" y="116.18947368421053" type="line"/>
      <point x="380.7789473684211" y="100.47368421052632"/>
      <point x="321.6526315789474" y="82.29473684210527"/>
      <point x="301.22105263157897" y="81.70526315789473" type="curve" smooth="yes"/>
      <point x="195.01052631578946" y="83.70526315789473"/>
      <point x="133.5578947368421" y="150.89473684210526"/>
      <point x="158.57894736842104" y="266.58947368421053" type="curve" smooth="yes"/>
      <point x="179.6" y="361.8736842105263"/>
      <point x="244.73684210526315" y="409.93684210526317"/>
      <point x="327.5894736842105" y="414.93684210526317" type="curve"/>
      <point x="342.3052631578948" y="414.93684210526317"/>
      <point x="406.4315789473684" y="395.1684210526316"/>
      <point x="465.91578947368424" y="370.6315789473684" type="curve"/>
      <point x="494.15789473684214" y="467.8526315789474" type="line"/>
      <point x="444.7157894736842" y="484.4947368421053"/>
      <point x="358.71578947368425" y="509.33684210526314"/>
      <point x="327.76842105263154" y="509.33684210526314" type="curve" smooth="yes"/>
      <point x="180.52631578947367" y="509.33684210526314"/>
      <point x="77.57894736842105" y="415.56842105263155"/>
      <point x="48.757894736842104" y="277.5157894736842" type="curve" smooth="yes"/>
      <point x="13.294736842105259" y="106.48421052631579"/>
      <point x="108.2" y="-10.642105263157895"/>
    </contour>
  </outline>
</glyph>
<glyph name="currency" format="2">
  <advance width="634.4842105263158"/>
  <unicode hex="00A4"/>
  <outline>
    <contour>
      <point x="316.1894736842105" y="107.42105263157895" type="curve" smooth="yes"/>
      <point x="437.0210526315789" y="107.42105263157895"/>
      <point x="517.8736842105263" y="164.8842105263158"/>
      <point x="543.5684210526316" y="291.0210526315789" type="curve" smooth="yes"/>
      <point x="569.8526315789475" y="419.7473684210526"/>
      <point x="481.0" y="532.3473684210526"/>
      <point x="346.2421052631579" y="532.3473684210526" type="curve" smooth="yes"/>
      <point x="229.53684210526313" y="532.3473684210526"/>
      <point x="143.78947368421052" y="475.4736842105263"/>
      <point x="118.09473684210526" y="349.33684210526314" type="curve" smooth="yes"/>
      <point x="91.81052631578947" y="220.02105263157895"/>
      <point x="179.0736842105263" y="107.42105263157895"/>
    </contour>
    <contour>
      <point x="109.25263157894739" y="39.10526315789473" type="line"/>
      <point x="155.76842105263157" y="84.4421052631579"/>
      <point x="205.82105263157894" y="133.7263157894737"/>
      <point x="237.38947368421054" y="164.70526315789473" type="curve"/>
      <point x="170.58947368421053" y="235.96842105263158" type="line"/>
      <point x="137.61052631578949" y="207.22105263157894"/>
      <point x="84.32631578947368" y="160.578947368421"/>
      <point x="36.578947368421055" y="117.47368421052632" type="curve"/>
    </contour>
    <contour>
      <point x="323.1157894736842" y="199.3578947368421" type="curve"/>
      <point x="248.69473684210524" y="203.0"/>
      <point x="199.8842105263158" y="263.1157894736842"/>
      <point x="214.3684210526316" y="336.30526315789473" type="curve" smooth="yes"/>
      <point x="227.4421052631579" y="404.0315789473684"/>
      <point x="277.2" y="438.41052631578947"/>
      <point x="340.9578947368421" y="441.6421052631579" type="curve"/>
      <point x="414.43157894736845" y="437.58947368421053"/>
      <point x="462.6" y="376.65263157894736"/>
      <point x="448.5263157894737" y="305.69473684210527" type="curve" smooth="yes"/>
      <point x="434.4526315789474" y="234.50526315789475"/>
      <point x="390.0" y="201.3578947368421"/>
    </contour>
    <contour>
      <point x="194.7157894736842" y="398.90526315789475" type="curve"/>
      <point x="264.1578947368421" y="463.65263157894736" type="line"/>
      <point x="235.0" y="496.6315789473684"/>
      <point x="188.35789473684207" y="549.9157894736842"/>
      <point x="145.2526315789474" y="598.0736842105264" type="curve"/>
      <point x="69.11578947368422" y="526.6315789473684" type="line"/>
      <point x="113.86315789473686" y="480.70526315789476"/>
      <point x="163.55789473684212" y="430.06315789473683"/>
    </contour>
    <contour>
      <point x="520.4105263157894" y="43.10526315789474" type="curve"/>
      <point x="596.5473684210526" y="114.54736842105264" type="line"/>
      <point x="551.8000000000001" y="160.4736842105263"/>
      <point x="502.10526315789474" y="211.1157894736842"/>
      <point x="470.9473684210526" y="242.2736842105263" type="curve"/>
      <point x="401.5052631578948" y="177.5263157894737" type="line"/>
      <point x="430.66315789473686" y="144.54736842105262"/>
      <point x="477.3052631578948" y="91.26315789473685"/>
    </contour>
    <contour>
      <point x="495.0736842105263" y="405.2105263157894" type="line"/>
      <point x="528.0526315789473" y="433.95789473684204"/>
      <point x="581.3368421052631" y="480.6"/>
      <point x="629.0842105263157" y="523.7052631578948" type="curve"/>
      <point x="556.4105263157895" y="602.0736842105264" type="line"/>
      <point x="509.89473684210526" y="556.7368421052631"/>
      <point x="459.8421052631579" y="507.4526315789474"/>
      <point x="428.27368421052637" y="476.47368421052636" type="curve"/>
    </contour>
  </outline>
</glyph>
<glyph name="yen" format="2">
  <advance width="635.8421052631579"/>
  <unicode hex="00A5"/>
  <outline>
    <contour>
      <point x="270.77894736842103" y="260.0842105263158" type="line"/>
      <point x="372.0315789473684" y="260.0842105263158" type="line"/>
      <point x="571.1052631578948" y="517.5578947368421" type="line"/>
      <point x="619.9263157894736" y="576.6631578947367"/>
      <point x="666.7473684210526" y="633.9473684210526"/>
      <point x="709.978947368421" y="686.4631578947368" type="curve"/>
      <point x="556.0105263157893" y="686.4631578947368" type="line"/>
      <point x="498.28421052631575" y="601.242105263158"/>
      <point x="471.7789473684211" y="561.4"/>
      <point x="425.7157894736842" y="493.30526315789473" type="curve"/>
      <point x="344.9157894736842" y="381.0105263157895" type="line"/>
      <point x="335.6315789473684" y="381.0105263157895" type="line"/>
      <point x="301.7473684210526" y="488.4842105263158" type="line"/>
      <point x="283.52631578947364" y="556.3473684210526"/>
      <point x="272.5578947368421" y="600.0631578947367"/>
      <point x="249.4421052631579" y="686.4631578947368" type="curve"/>
      <point x="109.86315789473684" y="686.4631578947368" type="line"/>
      <point x="145.45263157894735" y="599.8947368421053"/>
      <point x="158.86315789473682" y="566.6105263157893"/>
      <point x="179.45263157894738" y="516.3263157894736" type="curve"/>
    </contour>
    <contour>
      <point x="200.21052631578945" y="0.0" type="curve"/>
      <point x="332.27368421052637" y="0.0" type="line"/>
      <point x="345.40000000000003" y="75.7157894736842"/>
      <point x="356.3473684210527" y="138.66315789473686"/>
      <point x="370.8842105263158" y="223.48421052631576" type="curve"/>
      <point x="398.3263157894737" y="353.2315789473684" type="line"/>
      <point x="283.9894736842105" y="353.2315789473684" type="line"/>
      <point x="256.5473684210526" y="223.89473684210526" type="line"/>
      <point x="235.08421052631576" y="139.07368421052632"/>
      <point x="219.44210526315788" y="76.30526315789473"/>
    </contour>
    <contour>
      <point x="51.98947368421052" y="128.49473684210525" type="line"/>
      <point x="116.96842105263158" y="130.3157894736842"/>
      <point x="188.0736842105263" y="132.13684210526316"/>
      <point x="232.1052631578947" y="132.9578947368421" type="curve"/>
      <point x="356.06315789473683" y="132.9578947368421" type="line"/>
      <point x="400.0947368421053" y="132.13684210526316"/>
      <point x="470.37894736842105" y="130.3157894736842"/>
      <point x="535.357894736842" y="128.49473684210525" type="curve"/>
      <point x="551.2105263157895" y="205.2421052631579" type="line"/>
      <point x="485.82105263157894" y="204.2421052631579"/>
      <point x="415.1263157894737" y="203.2421052631579"/>
      <point x="371.09473684210525" y="202.83157894736843" type="curve"/>
      <point x="247.13684210526316" y="202.83157894736843" type="line"/>
      <point x="203.10526315789474" y="203.2421052631579"/>
      <point x="132.41052631578947" y="204.2421052631579"/>
      <point x="67.84210526315789" y="205.2421052631579" type="curve"/>
    </contour>
    <contour>
      <point x="83.9157894736842" y="280.66315789473686" type="line"/>
      <point x="149.48421052631576" y="281.66315789473686"/>
      <point x="220.17894736842103" y="282.66315789473686"/>
      <point x="264.2105263157895" y="283.0736842105263" type="curve"/>
      <point x="388.1684210526316" y="283.0736842105263" type="line"/>
      <point x="432.20000000000005" y="282.66315789473686"/>
      <point x="502.89473684210526" y="281.66315789473686"/>
      <point x="567.2842105263159" y="280.66315789473686" type="curve"/>
      <point x="583.7263157894737" y="357.41052631578947" type="line"/>
      <point x="518.3368421052631" y="355.5894736842105"/>
      <point x="447.23157894736846" y="353.76842105263154"/>
      <point x="403.2" y="352.9473684210526" type="curve"/>
      <point x="279.2421052631579" y="352.9473684210526" type="line"/>
      <point x="235.21052631578945" y="353.76842105263154"/>
      <point x="164.92631578947365" y="355.5894736842105"/>
      <point x="100.35789473684211" y="357.41052631578947" type="curve"/>
    </contour>
  </outline>
</glyph>
<glyph name="brokenbar" format="2">
  <advance width="271.34736842105264"/>
  <unicode hex="00A6"/>
  <outline>
    <contour>
      <point x="112.18947368421053" y="361.89473684210526" type="line"/>
      <point x="207.8736842105263" y="361.89473684210526" type="line"/>
      <point x="227.28421052631577" y="452.89473684210526" type="line"/>
      <point x="236.1052631578947" y="491.71578947368425"/>
      <point x="271.7473684210526" y="643.7157894736843"/>
      <point x="303.38947368421054" y="781.8947368421053" type="curve"/>
      <point x="195.49473684210525" y="781.8947368421053" type="line"/>
      <point x="168.54736842105262" y="643.7157894736843"/>
      <point x="139.18947368421053" y="491.3052631578948"/>
      <point x="131.6" y="452.89473684210526" type="curve"/>
    </contour>
    <contour>
      <point x="-4.50526315789473" y="-158.10526315789474" type="curve"/>
      <point x="103.38947368421053" y="-158.10526315789474" type="line"/>
      <point x="130.33684210526314" y="-20.92631578947369"/>
      <point x="159.69473684210524" y="132.4842105263158"/>
      <point x="167.28421052631577" y="170.89473684210526" type="curve"/>
      <point x="186.28421052631577" y="261.89473684210526" type="line"/>
      <point x="90.60000000000001" y="261.89473684210526" type="line"/>
      <point x="71.60000000000001" y="170.89473684210526" type="line"/>
      <point x="63.18947368421053" y="133.30526315789473"/>
      <point x="27.13684210526316" y="-20.515789473684215"/>
    </contour>
  </outline>
</glyph>
<glyph name="ordfeminine" format="2">
  <advance width="398.7586206896552"/>
  <unicode hex="00AA"/>
  <outline>
    <contour>
      <point x="177.75862068965517" y="331.41379310344826" type="curve" smooth="yes"/>
      <point x="206.6896551724138" y="331.41379310344826"/>
      <point x="260.3103448275862" y="363.93103448275866"/>
      <point x="302.10344827586204" y="398.0344827586207" type="curve"/>
      <point x="308.8965517241379" y="398.0344827586207" type="line"/>
      <point x="310.8965517241379" y="339.3103448275862" type="line"/>
      <point x="390.2068965517242" y="339.3103448275862" type="line"/>
      <point x="390.1034482758621" y="380.58620689655174"/>
      <point x="390.0" y="412.06896551724134"/>
      <point x="390.79310344827593" y="453.0344827586207" type="curve"/>
      <point x="400.3103448275862" y="498.6206896551724" type="line" smooth="yes"/>
      <point x="406.4137931034483" y="527.2413793103449"/>
      <point x="415.3103448275862" y="557.2413793103448"/>
      <point x="419.2068965517241" y="579.3103448275862" type="curve" smooth="yes"/>
      <point x="438.1034482758621" y="668.7931034482758"/>
      <point x="390.3448275862069" y="726.7931034482758"/>
      <point x="290.48275862068965" y="726.7931034482758" type="curve" smooth="yes"/>
      <point x="265.27586206896547" y="726.7931034482758"/>
      <point x="187.62068965517244" y="710.6896551724137"/>
      <point x="150.0344827586207" y="702.5862068965516" type="curve"/>
      <point x="137.86206896551724" y="620.9655172413793" type="line"/>
      <point x="200.3448275862069" y="640.655172413793"/>
      <point x="255.1379310344828" y="655.551724137931"/>
      <point x="267.6551724137931" y="655.551724137931" type="curve" smooth="yes"/>
      <point x="324.7931034482759" y="655.551724137931"/>
      <point x="353.6206896551724" y="629.8275862068965"/>
      <point x="342.58620689655174" y="585.6896551724138" type="curve"/>
      <point x="219.13793103448276" y="564.0689655172414" type="line" smooth="yes"/>
      <point x="150.8620689655172" y="552.0689655172414"/>
      <point x="96.03448275862068" y="524.9999999999999"/>
      <point x="80.03448275862068" y="452.2068965517241" type="curve" smooth="yes"/>
      <point x="64.03448275862068" y="382.3103448275863"/>
      <point x="107.24137931034481" y="331.41379310344826"/>
    </contour>
    <contour>
      <point x="216.82758620689654" y="397.0689655172414" type="curve" smooth="yes"/>
      <point x="178.86206896551724" y="397.0689655172414"/>
      <point x="150.82758620689654" y="418.7931034482759"/>
      <point x="159.3448275862069" y="459.37931034482756" type="curve" smooth="yes"/>
      <point x="167.6551724137931" y="497.0344827586207"/>
      <point x="203.20689655172416" y="506.2413793103448"/>
      <point x="241.0689655172414" y="514.551724137931" type="curve" smooth="yes"/>
      <point x="302.3793103448276" y="528.0689655172414"/>
      <point x="316.6896551724138" y="533.1724137931034"/>
      <point x="332.2068965517241" y="541.1724137931035" type="curve"/>
      <point x="313.5862068965517" y="457.96551724137925" type="line"/>
      <point x="277.6206896551724" y="418.68965517241384"/>
      <point x="235.86206896551724" y="397.0689655172414"/>
    </contour>
  </outline>
</glyph>
<glyph name="logicalnot" format="2">
  <advance width="572.3157894736842"/>
  <unicode hex="00AC"/>
  <outline>
    <contour>
      <point x="370.9684210526316" y="56.37894736842105" type="curve"/>
      <point x="478.04210526315796" y="56.37894736842105" type="line"/>
      <point x="490.4526315789474" y="122.53684210526315"/>
      <point x="503.4526315789474" y="191.6421052631579"/>
      <point x="511.6842105263158" y="235.26315789473685" type="curve"/>
      <point x="536.8421052631579" y="353.0526315789474" type="line"/>
      <point x="471.86315789473684" y="351.2315789473684"/>
      <point x="400.16842105263163" y="349.41052631578947"/>
      <point x="356.13684210526316" y="348.58947368421053" type="curve"/>
      <point x="258.59999999999997" y="348.58947368421053" type="line"/>
      <point x="214.5684210526316" y="349.41052631578947"/>
      <point x="144.87368421052633" y="351.2315789473684"/>
      <point x="79.89473684210526" y="353.0526315789474" type="curve"/>
      <point x="57.70526315789473" y="248.4421052631579" type="line"/>
      <point x="123.09473684210528" y="250.26315789473685"/>
      <point x="194.20000000000002" y="252.08421052631581"/>
      <point x="238.2315789473684" y="252.90526315789475" type="curve"/>
      <point x="335.7684210526316" y="252.90526315789475" type="line"/>
      <point x="375.3368421052632" y="252.08421052631581"/>
      <point x="438.74736842105267" y="250.26315789473685"/>
      <point x="496.44210526315794" y="248.4421052631579" type="curve"/>
      <point x="431.58947368421053" y="320.5263157894737" type="line"/>
      <point x="413.53684210526313" y="235.67368421052632" type="line"/>
      <point x="403.0736842105263" y="191.46315789473684"/>
      <point x="386.43157894736845" y="121.76842105263158"/>
    </contour>
  </outline>
</glyph>
<glyph name="registered" format="2">
  <advance width="572.6736842105263"/>
  <unicode hex="00AE"/>
  <outline>
    <contour>
      <point x="341.69473684210527" y="249.16842105263157" type="curve" smooth="yes"/>
      <point x="501.0105263157895" y="249.16842105263157"/>
      <point x="591.778947368421" y="355.2736842105263"/>
      <point x="591.778947368421" y="498.0210526315789" type="curve" smooth="yes"/>
      <point x="591.778947368421" y="635.1263157894737"/>
      <point x="506.2421052631579" y="746.0526315789474"/>
      <point x="338.64210526315793" y="746.0526315789474" type="curve" smooth="yes"/>
      <point x="173.2736842105263" y="746.0526315789474"/>
      <point x="86.78947368421052" y="636.7157894736843"/>
      <point x="86.78947368421052" y="497.61052631578946" type="curve" smooth="yes"/>
      <point x="86.78947368421052" y="365.5578947368421"/>
      <point x="167.50526315789475" y="249.16842105263157"/>
    </contour>
    <contour>
      <point x="234.2" y="362.2526315789474" type="curve"/>
      <point x="294.52631578947376" y="362.2526315789474" type="line"/>
      <point x="292.70526315789476" y="400.5578947368421"/>
      <point x="291.8842105263158" y="415.3578947368421"/>
      <point x="290.0631578947369" y="456.2526315789474" type="curve"/>
      <point x="290.0631578947369" y="548.2526315789473" type="line"/>
      <point x="291.8842105263158" y="588.9684210526316"/>
      <point x="292.70526315789476" y="604.9473684210526"/>
      <point x="294.11578947368423" y="639.1473684210526" type="curve"/>
      <point x="232.96842105263158" y="647.2526315789473" type="line"/>
      <point x="234.78947368421052" y="608.1263157894737"/>
      <point x="235.61052631578949" y="592.5578947368421"/>
      <point x="237.43157894736842" y="552.2526315789473" type="curve"/>
      <point x="237.43157894736842" y="456.2526315789474" type="line"/>
      <point x="236.02105263157895" y="414.5368421052632"/>
      <point x="235.61052631578949" y="401.7894736842105"/>
    </contour>
    <contour>
      <point x="341.2842105263158" y="291.0736842105263" type="curve"/>
      <point x="198.37894736842105" y="294.30526315789473"/>
      <point x="131.56842105263158" y="378.9263157894737"/>
      <point x="131.56842105263158" y="497.61052631578946" type="curve" smooth="yes"/>
      <point x="131.56842105263158" y="619.4526315789474"/>
      <point x="201.61052631578949" y="701.3263157894736"/>
      <point x="339.0526315789474" y="704.5578947368421" type="curve"/>
      <point x="477.3157894736842" y="701.3263157894736"/>
      <point x="546.4105263157895" y="619.4"/>
      <point x="546.4105263157895" y="498.0210526315789" type="curve" smooth="yes"/>
      <point x="546.4105263157895" y="374.3578947368421"/>
      <point x="474.0315789473685" y="294.30526315789473"/>
    </contour>
    <contour>
      <point x="401.7578947368421" y="362.2526315789474" type="curve"/>
      <point x="473.3157894736842" y="362.2526315789474" type="line"/>
      <point x="455.1368421052632" y="385.89473684210526"/>
      <point x="431.8315789473684" y="416.2526315789474"/>
      <point x="409.8842105263158" y="445.0736842105263" type="curve"/>
      <point x="368.8105263157895" y="501.89473684210526" type="line"/>
      <point x="348.13684210526316" y="481.5578947368421" type="line"/>
      <point x="419.3684210526316" y="481.5578947368421"/>
      <point x="445.13684210526316" y="519.9684210526316"/>
      <point x="445.13684210526316" y="567.2" type="curve" smooth="yes"/>
      <point x="445.13684210526316" y="624.4315789473684"/>
      <point x="406.13684210526316" y="649.0736842105263"/>
      <point x="340.69473684210527" y="649.0736842105263" type="curve"/>
      <point x="296.1789473684211" y="649.0736842105263"/>
      <point x="260.89473684210526" y="647.2526315789473"/>
      <point x="232.96842105263158" y="647.2526315789473" type="curve"/>
      <point x="273.2631578947369" y="603.8315789473684" type="line"/>
      <point x="338.46315789473687" y="603.8315789473684" type="line" smooth="yes"/>
      <point x="357.71578947368425" y="603.8315789473684"/>
      <point x="390.27368421052637" y="602.2421052631579"/>
      <point x="390.27368421052637" y="562.2736842105263" type="curve" smooth="yes"/>
      <point x="390.27368421052637" y="524.8947368421053"/>
      <point x="365.2526315789474" y="513.3578947368421"/>
      <point x="328.3368421052632" y="513.3578947368421" type="curve" smooth="yes"/>
      <point x="279.72631578947374" y="513.3578947368421" type="line"/>
      <point x="279.72631578947374" y="476.2736842105263" type="line"/>
      <point x="346.3684210526316" y="476.2736842105263" type="line"/>
      <point x="314.0" y="496.4842105263158" type="line"/>
      <point x="359.021052631579" y="431.66315789473686" type="line"/>
      <point x="372.7368421052632" y="409.2526315789474"/>
      <point x="385.45263157894743" y="388.66315789473686"/>
    </contour>
  </outline>
</glyph>
<glyph name="plusminus" format="2">
  <advance width="572.3157894736842"/>
  <unicode hex="00B1"/>
  <outline>
    <contour>
      <point x="3.8631578947368403" y="-4.463157894736842" type="line"/>
      <point x="69.25263157894737" y="-2.6421052631578945"/>
      <point x="139.94736842105266" y="-0.8210526315789474"/>
      <point x="184.38947368421051" y="0.0" type="curve"/>
      <point x="281.9263157894737" y="0.0" type="line"/>
      <point x="325.5473684210526" y="-0.8210526315789474"/>
      <point x="396.2421052631579" y="-2.6421052631578945"/>
      <point x="460.8105263157895" y="-4.463157894736842" type="curve"/>
      <point x="483.0" y="100.14736842105263" type="line"/>
      <point x="417.61052631578946" y="98.32631578947368"/>
      <point x="346.5052631578948" y="96.50526315789475"/>
      <point x="302.4736842105263" y="95.6842105263158" type="curve"/>
      <point x="204.93684210526314" y="95.6842105263158" type="line"/>
      <point x="160.90526315789475" y="96.50526315789475"/>
      <point x="90.62105263157895" y="98.32631578947368"/>
      <point x="26.05263157894737" y="100.14736842105263" type="curve"/>
    </contour>
    <contour>
      <point x="80.50526315789473" y="357.1578947368421" type="line"/>
      <point x="145.8947368421053" y="358.9789473684211"/>
      <point x="217.58947368421056" y="360.8"/>
      <point x="261.62105263157895" y="361.62105263157895" type="curve"/>
      <point x="359.1578947368421" y="361.62105263157895" type="line"/>
      <point x="403.18947368421055" y="360.8"/>
      <point x="472.88421052631577" y="358.9789473684211"/>
      <point x="537.4526315789474" y="357.1578947368421" type="curve"/>
      <point x="559.642105263158" y="461.7684210526316" type="line"/>
      <point x="494.66315789473686" y="459.9473684210526"/>
      <point x="423.5578947368422" y="458.12631578947367"/>
      <point x="379.5263157894737" y="457.30526315789473" type="curve"/>
      <point x="281.98947368421057" y="457.30526315789473" type="line"/>
      <point x="237.95789473684212" y="458.12631578947367"/>
      <point x="167.67368421052632" y="459.9473684210526"/>
      <point x="102.69473684210524" y="461.7684210526316" type="curve"/>
    </contour>
    <contour>
      <point x="215.6" y="173.30526315789473" type="curve"/>
      <point x="323.67368421052635" y="173.30526315789473" type="line"/>
      <point x="336.08421052631576" y="239.46315789473687"/>
      <point x="349.08421052631576" y="308.978947368421"/>
      <point x="357.3157894736842" y="353.0105263157895" type="curve"/>
      <point x="381.56842105263155" y="465.9157894736842" type="line"/>
      <point x="392.0315789473684" y="509.9473684210526"/>
      <point x="408.6736842105263" y="580.6421052631579"/>
      <point x="424.13684210526316" y="645.621052631579" type="curve"/>
      <point x="316.06315789473683" y="645.621052631579" type="line"/>
      <point x="304.24210526315795" y="581.2315789473683"/>
      <point x="290.6526315789474" y="509.35789473684207"/>
      <point x="282.42105263157896" y="465.9157894736842" type="curve"/>
      <point x="258.1684210526316" y="353.0105263157895" type="line"/>
      <point x="248.2947368421053" y="309.56842105263155"/>
      <point x="231.65263157894736" y="238.87368421052633"/>
    </contour>
  </outline>
</glyph>
<glyph name="micro" format="2">
  <advance width="566.2421052631579"/>
  <unicode hex="00B5"/>
  <outline>
    <contour>
      <point x="-37.55789473684211" y="-195.6421052631579" type="curve"/>
      <point x="92.04210526315788" y="-192.0" type="line"/>
      <point x="103.7578947368421" y="-119.46315789473684"/>
      <point x="113.47368421052633" y="-56.51578947368421"/>
      <point x="126.36842105263158" y="20.378947368421052" type="curve" smooth="yes"/>
      <point x="133.67368421052632" y="54.95789473684209" type="line"/>
      <point x="84.62105263157895" y="54.95789473684209" type="line"/>
      <point x="99.26315789473684" y="12.326315789473684"/>
      <point x="135.28421052631577" y="-11.873684210526315"/>
      <point x="192.45263157894738" y="-11.873684210526315" type="curve" smooth="yes"/>
      <point x="236.6" y="-11.873684210526315"/>
      <point x="313.0" y="39.810526315789474"/>
      <point x="359.23157894736846" y="81.0421052631579" type="curve"/>
      <point x="369.15789473684214" y="81.0421052631579" type="line"/>
      <point x="372.33684210526314" y="0.0" type="line"/>
      <point x="475.3578947368421" y="0.0" type="line"/>
      <point x="474.82105263157894" y="55.4421052631579"/>
      <point x="474.87368421052633" y="101.57894736842105"/>
      <point x="475.5157894736842" y="148.91578947368419" type="curve"/>
      <point x="501.7684210526316" y="272.6421052631579" type="line"/>
      <point x="521.8210526315789" y="361.0315789473684"/>
      <point x="536.4105263157896" y="424.7473684210526"/>
      <point x="553.0" y="497.2842105263158" type="curve"/>
      <point x="432.61052631578946" y="497.2842105263158" type="line"/>
      <point x="420.0736842105263" y="424.7473684210526"/>
      <point x="408.5368421052632" y="359.2105263157895"/>
      <point x="395.4105263157895" y="283.7263157894737" type="curve"/>
      <point x="370.69473684210527" y="167.6842105263158" type="line"/>
      <point x="323.32631578947365" y="123.26315789473685"/>
      <point x="260.90526315789475" y="87.0421052631579"/>
      <point x="234.68421052631575" y="87.0421052631579" type="curve" smooth="yes"/>
      <point x="167.65263157894736" y="87.0421052631579"/>
      <point x="150.68421052631578" y="131.95789473684212"/>
      <point x="168.16842105263157" y="213.61052631578946" type="curve"/>
      <point x="182.4736842105263" y="283.7263157894737" type="line"/>
      <point x="200.06315789473683" y="360.0315789473684"/>
      <point x="216.06315789473686" y="428.38947368421054"/>
      <point x="233.06315789473683" y="500.9263157894737" type="curve"/>
      <point x="109.21052631578947" y="497.2842105263158" type="line"/>
      <point x="97.08421052631577" y="425.56842105263155"/>
      <point x="85.54736842105264" y="360.0315789473684"/>
      <point x="71.18947368421053" y="271.82105263157894" type="curve"/>
      <point x="18.778947368421047" y="25.71578947368421" type="line"/>
      <point x="-1.684210526315792" y="-56.51578947368421"/>
      <point x="-19.326315789473686" y="-123.10526315789474"/>
    </contour>
  </outline>
</glyph>
<glyph name="AE" format="2">
  <advance width="984.6896551724138"/>
  <unicode hex="00C6"/>
  <anchor x="479.344827586207" y="0.0" name="bottom"/>
  <anchor x="629.344827586207" y="713.0" name="top"/>
  <outline>
    <contour>
      <point x="-45.06896551724138" y="0.0" type="curve"/>
      <point x="105.34482758620689" y="0.0" type="line"/>
      <point x="159.20689655172413" y="80.93103448275863"/>
      <point x="219.37931034482756" y="171.17241379310346"/>
      <point x="272.0344827586207" y="250.0" type="curve"/>
      <point x="530.4827586206897" y="615.6551724137931" type="line"/>
      <point x="552.6551724137931" y="615.6551724137931" type="line"/>
      <point x="632.551724137931" y="615.6551724137931" type="line"/>
      <point x="664.6551724137931" y="713.0" type="line"/>
      <point x="463.8620689655172" y="713.0" type="line"/>
      <point x="416.8275862068965" y="641.896551724138"/>
      <point x="367.3103448275862" y="568.3103448275863"/>
      <point x="315.9655172413793" y="490.89655172413796" type="curve"/>
      <point x="137.6896551724138" y="241.10344827586206" type="line"/>
      <point x="80.17241379310344" y="165.10344827586206"/>
      <point x="12.448275862068963" y="76.0"/>
    </contour>
    <contour>
      <point x="181.79310344827584" y="167.13793103448276" type="line"/>
      <point x="508.1034482758621" y="167.13793103448276" type="line"/>
      <point x="517.6896551724138" y="259.0" type="line"/>
      <point x="212.0" y="259.0" type="line"/>
    </contour>
    <contour>
      <point x="412.0344827586207" y="0.0" type="curve"/>
      <point x="547.6551724137931" y="0.0" type="line"/>
      <point x="552.2413793103449" y="18.344827586206897" type="line"/>
      <point x="565.551724137931" y="95.75862068965519"/>
      <point x="576.8620689655174" y="163.06896551724137"/>
      <point x="592.0689655172415" y="251.75862068965517" type="curve"/>
      <point x="635.6896551724138" y="456.86206896551727" type="line"/>
      <point x="658.2758620689657" y="548.1379310344827"/>
      <point x="674.2758620689655" y="614.7586206896552"/>
      <point x="694.0689655172414" y="694.7586206896551" type="curve"/>
      <point x="697.6551724137931" y="713.0" type="line"/>
      <point x="562.0344827586207" y="713.0" type="line"/>
      <point x="548.7241379310344" y="634.7931034482758"/>
      <point x="537.4137931034483" y="568.2758620689655"/>
      <point x="521.2068965517242" y="472.8965517241379" type="curve"/>
      <point x="471.2068965517242" y="236.0" type="line"/>
      <point x="448.62068965517244" y="145.51724137931035"/>
      <point x="431.82758620689657" y="79.3103448275862"/>
    </contour>
    <contour>
      <point x="524.3103448275863" y="0.0" type="line"/>
      <point x="877.7586206896552" y="0.0" type="line"/>
      <point x="901.7931034482759" y="111.20689655172414" type="line"/>
      <point x="837.1724137931036" y="108.41379310344828"/>
      <point x="736.0" y="103.72413793103448"/>
      <point x="672.2068965517242" y="100.93103448275862" type="curve"/>
      <point x="545.6551724137933" y="100.93103448275862" type="line"/>
    </contour>
    <contour>
      <point x="576.6896551724138" y="312.0344827586207" type="line"/>
      <point x="711.7241379310345" y="312.0344827586207" type="line"/>
      <point x="772.8965517241379" y="311.1379310344828"/>
      <point x="879.0" y="308.3448275862069"/>
      <point x="922.4827586206897" y="307.44827586206895" type="curve"/>
      <point x="945.6206896551724" y="415.9655172413793" type="line"/>
      <point x="887.7931034482759" y="414.06896551724134"/>
      <point x="818.1724137931034" y="412.17241379310343"/>
      <point x="733.1724137931035" y="409.37931034482756" type="curve"/>
      <point x="597.1379310344828" y="409.37931034482756" type="line"/>
    </contour>
    <contour>
      <point x="645.7931034482759" y="612.0689655172414" type="line"/>
      <point x="770.1379310344828" y="612.0689655172414" type="line"/>
      <point x="843.8275862068966" y="609.2758620689656"/>
      <point x="939.2068965517243" y="604.5862068965517"/>
      <point x="1002.9310344827587" y="601.7931034482759" type="curve"/>
      <point x="1026.0689655172414" y="713.0" type="line"/>
      <point x="667.1379310344828" y="713.0" type="line"/>
    </contour>
  </outline>
</glyph>
<glyph name="multiply" format="2">
  <advance width="572.0631578947368"/>
  <unicode hex="00D7"/>
  <outline>
    <contour>
      <point x="416.14736842105265" y="70.83157894736841" type="curve"/>
      <point x="496.10526315789474" y="140.22105263157894" type="line"/>
      <point x="457.9473684210526" y="184.55789473684212"/>
      <point x="415.0736842105263" y="234.78947368421052"/>
      <point x="388.9157894736842" y="265.5368421052632" type="curve"/>
      <point x="280.821052631579" y="400.47368421052636" type="line"/>
      <point x="255.30526315789476" y="434.63157894736844"/>
      <point x="218.02105263157895" y="483.7368421052632"/>
      <point x="181.32631578947368" y="532.6631578947367" type="curve"/>
      <point x="100.36842105263156" y="462.4526315789474" type="line"/>
      <point x="139.29473684210527" y="417.34736842105264"/>
      <point x="180.98947368421054" y="369.29473684210524"/>
      <point x="207.73684210526318" y="337.9578947368421" type="curve"/>
      <point x="316.24210526315784" y="202.2" type="line"/>
      <point x="340.9894736842105" y="170.2210526315789"/>
      <point x="381.0421052631579" y="117.16842105263157"/>
    </contour>
    <contour>
      <point x="91.22105263157896" y="66.36842105263158" type="line"/>
      <point x="146.78947368421052" y="113.70526315789473"/>
      <point x="206.25263157894733" y="164.16842105263157"/>
      <point x="242.46315789473684" y="195.5578947368421" type="curve"/>
      <point x="410.06315789473683" y="331.62105263157895" type="line"/>
      <point x="448.86315789473684" y="361.5473684210526"/>
      <point x="510.7894736842106" y="408.6"/>
      <point x="568.1789473684211" y="452.2947368421053" type="curve"/>
      <point x="502.48421052631585" y="535.5368421052631" type="line"/>
      <point x="447.7368421052632" y="488.2"/>
      <point x="389.22105263157897" y="438.09473684210525"/>
      <point x="351.65263157894736" y="405.93684210526317" type="curve"/>
      <point x="187.0" y="272.2315789473684" type="line"/>
      <point x="148.78947368421052" y="242.89473684210523"/>
      <point x="83.91578947368421" y="192.8947368421053"/>
      <point x="26.526315789473685" y="149.2" type="curve"/>
    </contour>
  </outline>
</glyph>
